<svg width="242" height="117" viewBox="0 0 242 117" fill="none" xmlns="http://www.w3.org/2000/svg">
<g clip-path="url(#clip0_1_44)">
<path d="M12.3937 111.158H8.67557V99.9659H3.66422V111.158H0V86.2077H3.66422V96.4718H8.67557V86.2077H12.3937V111.158Z" fill="white"/>
<path d="M25.38 109.138C25.38 110.448 24.6795 111.104 23.3324 111.104H17.1355C15.7884 111.104 15.0879 110.448 15.0879 109.138V97.0177C15.0879 95.7074 15.7884 95.0523 17.1355 95.0523H23.3324C24.6795 95.0523 25.38 95.7074 25.38 97.0177V102.914L24.4101 103.897H18.5905V108.428H21.9852V105.753H25.4339V109.138H25.38ZM21.9314 101.604V97.7275H18.5905V101.604H21.9314Z" fill="white"/>
<path d="M45.5333 111.158H41.9769V98.1097L38.5821 98.1643V111.158H34.9717V98.1097L31.577 98.1643V111.158H28.0205V95.0523H31.6308V95.6528C32.493 95.489 33.3013 95.3798 34.1096 95.2161C35.1334 95.0523 35.9956 94.9977 36.6422 94.9977C37.4505 94.9977 37.9893 95.2161 38.2588 95.7074C39.1209 95.5436 40.037 95.4344 40.8992 95.2707C42.0846 95.0523 42.9468 94.9977 43.5934 94.9977C44.8867 94.9977 45.5333 95.6528 45.5333 96.9631V111.158Z" fill="white"/>
<path d="M58.7353 107.882C58.7353 109.193 58.2504 110.121 57.3343 110.612C56.6877 110.994 55.6638 111.158 54.2628 111.158C53.9395 111.158 53.5084 111.158 52.9157 111.104C52.3229 111.104 51.9457 111.049 51.6763 111.049V116.945H48.1199V94.9431H51.7302V95.5436C52.5924 95.4344 53.4007 95.2706 54.2628 95.1615C55.3405 94.9977 56.1488 94.8885 56.7954 94.8885C58.0887 94.8885 58.7892 95.5436 58.7892 96.8539V107.882H58.7353ZM55.125 106.9V98.1097L51.7302 98.1643V108.101H53.9395C54.6939 108.101 55.125 107.719 55.125 106.9Z" fill="white"/>
<path d="M71.2366 109.138C71.2366 110.448 70.59 111.104 69.2428 111.104H63.2076C61.8605 111.104 61.2139 110.448 61.2139 109.138V105.699H64.6625V108.428H67.8418V105.862L62.3455 102.587C61.645 102.15 61.2678 101.549 61.2678 100.839V97.0723C61.2678 95.762 61.9683 95.1069 63.3154 95.1069H69.2967C70.6438 95.1069 71.2905 95.762 71.2905 97.0723V100.294H67.8957V97.7821H64.6625V100.13L70.1589 103.406C70.9133 103.842 71.2366 104.443 71.2366 105.207V109.138Z" fill="white"/>
<path d="M84.0614 109.138C84.0614 110.448 83.3609 111.104 82.0138 111.104H75.8169C74.4698 111.104 73.7693 110.448 73.7693 109.138V97.0177C73.7693 95.7074 74.4698 95.0523 75.8169 95.0523H82.0138C83.3609 95.0523 84.0614 95.7074 84.0614 97.0177V102.914L83.0915 103.897H77.2719V108.428H80.6666V105.753H84.1153V109.138H84.0614ZM80.6128 101.604V97.7275H77.218V101.604H80.6128Z" fill="white"/>
<path d="M96.9401 109.138C96.9401 110.448 96.2396 111.104 94.8924 111.104H88.6956C87.3485 111.104 86.6479 110.448 86.6479 109.138V97.0177C86.6479 95.7074 87.3485 95.0523 88.6956 95.0523H94.8924C96.2396 95.0523 96.9401 95.7074 96.9401 97.0177V102.914L95.9701 103.897H90.1505V108.428H93.5453V105.753H96.994V109.138H96.9401ZM93.4914 101.604V97.7275H90.0966V101.604H93.4914Z" fill="white"/>
<path d="M110.088 111.158H106.478V110.612C104.053 111.049 102.706 111.267 102.383 111.267C101.466 111.267 100.766 110.994 100.281 110.448C99.7422 109.902 99.5266 109.193 99.5266 108.265V98.2734C99.5266 96.9631 100.012 96.035 100.928 95.5436C101.574 95.1615 102.598 94.9431 103.999 94.9431C104.322 94.9431 104.754 94.9431 105.346 94.9977C105.939 94.9977 106.316 95.0523 106.586 95.0523V86.2077H110.196V111.158H110.088ZM106.532 107.992V98.0551H104.322C103.514 98.0551 103.137 98.4372 103.137 99.2562V106.954C103.137 107.719 103.514 108.155 104.269 108.155C104.43 108.155 105.185 108.101 106.532 107.992Z" fill="white"/>
<path d="M129.595 89.4834H123.236V96.8539H128.679V100.075H123.236V111.104H119.572V86.1531H129.649V89.4834H129.595Z" fill="white"/>
<path d="M135.145 111.158H131.588V86.2077H135.145V111.158Z" fill="white"/>
<path d="M148.293 109.138C148.293 110.448 147.646 111.104 146.299 111.104H139.833C138.486 111.104 137.785 110.448 137.785 109.138V97.0177C137.785 95.7074 138.486 95.0523 139.833 95.0523H146.299C147.646 95.0523 148.293 95.7074 148.293 97.0177V109.138ZM144.737 108.101V98.0551H141.342V108.101H144.737Z" fill="white"/>
<path d="M161.441 111.158H157.885V110.612C157.076 110.776 156.214 110.885 155.406 111.049C154.382 111.213 153.574 111.267 152.873 111.267C151.58 111.267 150.88 110.612 150.88 109.302V95.1069H154.436V108.155L157.831 108.101V95.1069H161.441V111.158Z" fill="white"/>
<path d="M174.104 101.768H170.548V98.1097L167.692 98.1643V111.158H164.082V95.0523H167.692V95.6528C168.446 95.489 169.201 95.3798 169.901 95.2161C170.817 95.0523 171.518 94.9977 172.11 94.9977C173.404 94.9977 174.104 95.6528 174.104 96.9631V101.768Z" fill="white"/>
<path d="M194.85 99.8021C194.85 101.331 194.096 102.15 192.587 102.15H186.606V111.213H182.941V86.2622H192.587C194.096 86.2622 194.85 87.0266 194.85 88.5553V99.8021ZM191.132 98.874V89.3742H186.606V98.874H191.132Z" fill="white"/>
<path d="M207.513 111.158H204.065V110.612C203.256 110.721 202.448 110.885 201.586 110.994C200.508 111.158 199.7 111.213 199.161 111.213C197.868 111.213 197.221 110.558 197.221 109.247V103.46C197.221 102.15 197.922 101.44 199.269 101.44H204.119V97.7275H200.67V100.021H197.437V97.0177C197.437 95.7074 198.137 95.0523 199.484 95.0523H205.573C206.921 95.0523 207.567 95.7074 207.567 97.0177V111.158H207.513ZM204.119 108.265V103.951H200.67V108.374L204.119 108.265Z" fill="white"/>
<path d="M220.069 109.138C220.069 110.448 219.422 111.104 218.075 111.104H212.04C210.693 111.104 210.046 110.448 210.046 109.138V105.699H213.495V108.428H216.674V105.862L211.177 102.587C210.477 102.15 210.1 101.549 210.1 100.839V97.0723C210.1 95.762 210.8 95.1069 212.147 95.1069H218.129C219.476 95.1069 220.122 95.762 220.122 97.0723V100.294H216.62V97.7821H213.441V100.13L218.937 103.406C219.691 103.842 220.015 104.443 220.015 105.207V109.138H220.069Z" fill="white"/>
<path d="M229.445 111.158H225.457C224.11 111.158 223.463 110.503 223.463 109.193V98.2189H221.739V95.1069H223.463V90.7392H227.074V95.1069H229.391V98.2189H227.074V108.101H229.499V111.158H229.445Z" fill="white"/>
<path d="M241.677 111.158H238.228V110.612C237.42 110.721 236.611 110.885 235.749 110.994C234.672 111.158 233.863 111.213 233.324 111.213C232.031 111.213 231.385 110.558 231.385 109.247V103.46C231.385 102.15 232.085 101.44 233.432 101.44H238.282V97.7275H234.833V100.021H231.6V97.0177C231.6 95.7074 232.301 95.0523 233.648 95.0523H239.737C241.084 95.0523 241.731 95.7074 241.731 97.0177V111.158H241.677ZM238.282 108.265V103.951H234.833V108.374L238.282 108.265Z" fill="white"/>
<path d="M62.5072 71.685C62.4533 71.958 62.2378 72.2856 61.8606 72.6678L55.3943 81.1848C54.8555 81.8945 54.2627 82.2221 53.6161 82.2221C52.9156 82.2221 52.3767 81.9491 51.9457 81.4578C50.6524 80.0383 48.982 78.2366 46.9343 75.9435C44.9405 73.6505 42.7851 71.1937 40.4142 68.573C38.0971 65.9524 35.7261 63.2226 33.3551 60.4928C30.9842 57.7084 28.7749 55.1423 26.7811 52.7401C26.7272 52.6309 26.6195 52.5217 26.5117 52.4125C26.4039 52.3033 26.2961 52.2487 26.1345 52.2487C25.9728 52.2487 25.6495 52.2487 25.0568 52.3033C24.464 52.3579 23.7635 52.3579 23.0091 52.3579C21.5542 52.3579 20.0993 52.2487 18.5366 52.0303C17.0278 51.8665 15.7346 51.3752 14.603 50.6654C14.2797 50.3924 13.9025 50.2832 13.4714 50.2832C12.9325 50.2832 12.6631 50.72 12.6631 51.539C12.6631 52.0303 12.8248 53.7228 13.202 56.5618C13.5253 59.4008 14.603 63.3318 16.3273 68.4092C16.489 68.9006 16.5967 69.2828 16.7584 69.6104C16.9201 69.9379 16.9739 70.2655 16.9739 70.5931C16.9739 71.412 16.3273 71.8488 14.9802 71.8488H3.12536C2.47873 71.8488 1.99376 71.6304 1.67045 71.1936C1.34713 70.7569 1.13159 70.2655 1.13159 69.7196V2.67522C1.13159 1.03733 1.99376 0.27298 3.7181 0.27298H25.0029C30.3914 0.27298 35.1873 1.03733 39.2826 2.56603C43.4317 4.09473 46.8804 6.16939 49.7364 8.68082C52.5923 11.1923 54.7477 14.0859 56.2026 17.307C57.6575 20.5282 58.358 23.8586 58.358 27.189C58.358 32.867 56.7415 37.7261 53.4545 41.7116C50.2213 45.6972 45.1561 48.5362 38.2587 50.1195C37.7199 50.3924 37.4504 50.5562 37.4504 50.7746C37.4504 50.993 37.666 51.2114 38.0971 51.539C40.1986 53.1769 42.1385 54.7056 44.0245 56.1251C45.9105 57.5446 47.7426 58.9641 49.6286 60.3836C51.5146 61.8031 53.4006 63.2226 55.3943 64.6967C57.3881 66.1708 59.4896 67.6995 61.6989 69.3374C62.3456 69.8287 62.615 70.3747 62.615 71.0299C62.615 71.1937 62.5611 71.4666 62.5072 71.685ZM12.0704 40.5105C12.3937 40.8927 12.8248 41.2748 13.3636 41.6024C14.603 42.3668 16.0579 42.9673 17.7822 43.4041C19.4527 43.8409 21.177 44.0593 22.9014 44.0593C26.7272 44.0593 29.7987 42.9673 32.2236 40.7835C34.5945 38.5996 35.8339 35.5968 35.8339 31.7205C35.8339 27.9533 34.0557 24.7867 30.607 22.2207C27.0505 19.7093 21.4464 18.4536 13.7947 18.4536C13.1481 18.4536 12.6631 18.672 12.232 19.0541C11.8009 19.4363 11.5854 19.9823 11.5854 20.692V39.0364C11.5854 39.637 11.747 40.1283 12.0704 40.5105Z" fill="#EE0000"/>
<path d="M183.696 21.0196C186.498 22.1115 188.977 23.7494 191.132 25.9879C193.288 28.1717 194.958 30.9561 196.251 34.2319C197.491 37.5623 198.137 41.4386 198.137 45.9155C198.137 49.0821 197.706 52.1941 196.844 55.3607C195.982 58.5273 194.527 61.3663 192.425 63.8777C190.324 66.3892 187.576 68.4092 184.073 69.9925C180.571 71.5758 176.206 72.3402 170.925 72.3402H147.485C146.515 72.3402 145.976 71.958 145.976 71.2482C145.976 70.8661 146.084 70.3201 146.353 69.7196C146.623 68.7914 146.838 67.1535 146.946 64.7513C147.054 62.4036 147.162 59.6738 147.162 56.5618C147.162 53.6682 147.108 50.6654 146.946 47.4442C146.838 44.223 146.623 41.0565 146.353 37.8353C146.084 34.6141 145.814 31.5021 145.437 28.4447C145.114 25.3873 144.737 22.6575 144.413 20.2007C144.036 17.7438 143.659 15.6146 143.282 13.8129C142.905 12.0112 142.527 10.7009 142.204 9.88194C142.096 9.60896 141.988 9.39057 141.881 9.17219C141.827 8.9538 141.773 8.79001 141.773 8.57163C141.773 7.97107 142.096 7.58889 142.689 7.37051C144.521 6.76995 146.461 5.84181 148.401 4.64069C150.395 3.43957 152.011 2.18385 153.358 0.818945C154.005 0.327578 154.49 0 154.867 0C155.568 0 155.945 0.709753 155.945 2.12926V24.1862C155.945 25.0051 156.053 25.3873 156.322 25.3873C156.538 25.3873 156.807 25.2781 157.13 25.0597C159.555 22.9851 162.357 21.511 165.536 20.6374C168.716 19.7639 171.787 19.3271 174.805 19.3271C177.984 19.3271 180.894 19.8731 183.696 21.0196ZM163.974 51.1022C165.968 51.4298 168.069 51.5936 170.386 51.5936C172.973 51.5936 175.398 51.3206 177.769 50.8292C180.086 50.3378 182.187 49.5189 184.019 48.4816C185.851 47.3896 187.306 46.0247 188.384 44.3322C189.462 42.6398 190.001 40.6197 190.001 38.272C190.001 36.252 189.516 34.5049 188.599 32.9762C187.683 31.4475 186.444 30.1372 184.881 29.0453C183.319 27.9533 181.594 27.1344 179.708 26.5338C177.822 25.9333 175.883 25.6603 173.889 25.6603C171.787 25.6603 169.686 25.9879 167.584 26.5884C165.483 27.2436 163.65 28.2263 162.142 29.6458C160.094 31.4475 158.747 33.5222 158.1 35.8698C157.4 38.2175 157.076 40.6197 157.076 43.0765V48.0994C157.076 48.9183 157.508 49.4097 158.37 49.6827C160.148 50.2832 162.034 50.7746 163.974 51.1022Z" fill="#EE0000"/>
<path d="M91.8209 39.1456C92.4136 41.93 92.9525 44.6598 93.4375 47.1167C92.0903 44.9328 91.6054 42.1484 91.8209 39.1456Z" fill="white"/>
<path d="M97.3712 49.3551C97.2095 48.6454 97.0479 47.9356 96.8862 47.2258C97.0479 47.1713 97.2634 47.1167 97.4251 47.1167C97.5867 47.8264 97.7484 48.5362 97.9639 49.1913C97.7484 49.3005 97.5867 49.3551 97.3712 49.3551Z" fill="white"/>
<path d="M106.37 44.3868C105.831 45.7517 105.077 47.0075 104.107 48.2086C104.215 47.8264 104.376 47.4442 104.484 47.0621C105.131 46.1885 105.777 45.315 106.37 44.3868Z" fill="white"/>
<path d="M101.682 54.651C102.598 53.286 103.568 51.9757 104.376 50.5562C105.239 49.0821 105.993 47.4988 106.693 45.9701C107.394 44.4414 108.041 42.9127 108.687 41.3294C108.095 46.7891 105.939 51.3206 101.682 54.651Z" fill="white"/>
<path d="M108.956 27.5712C108.956 27.6258 108.956 27.6804 109.01 27.6804C108.956 27.6258 108.849 27.5166 108.795 27.462C108.849 27.5166 108.902 27.5166 108.956 27.5712Z" fill="white"/>
<path d="M110.519 41.1111C110.843 38.818 111.22 36.525 111.543 34.2865C111.974 36.6888 111.92 38.9818 110.519 41.1111Z" fill="white"/>
<path d="M128.032 41.8208C126.469 45.9701 124.26 49.7373 121.296 52.9585C117.955 56.6164 114.453 60.056 110.95 63.5502C107.933 66.553 104.915 69.5012 101.52 72.8315C95.2158 66.2254 88.2107 60.8749 82.6604 53.8866C79.5351 50.0103 76.5714 46.0793 75.0087 41.2748C73.1227 35.5422 74.0926 30.1918 77.5413 25.4419C80.6128 21.2926 84.5464 18.126 89.8272 17.1433C91.2821 16.8703 92.7909 16.8703 94.8386 16.7065C91.821 18.672 89.3422 20.2006 86.9713 21.8385C84.0615 23.804 81.8522 26.4246 80.6128 29.7004C79.0501 33.6859 79.2118 37.9445 80.99 41.8208C82.4449 44.9874 84.1692 48.2632 86.4324 50.8838C91.1205 56.1796 96.2396 61.0387 101.251 66.1162C107.232 61.3663 112.297 55.9613 117.363 50.5016C119.841 47.8264 121.674 44.6052 123.128 41.2202C127.278 31.5021 119.087 22.7667 111.866 21.8385C109.549 21.5656 107.34 21.5656 105.238 22.1115C102.49 21.0742 100.928 21.6748 99.5805 24.4592C99.365 24.8413 99.2033 25.2781 98.9878 25.6603C98.1256 26.4246 97.3712 27.2436 96.7246 28.1171C97.4251 26.4246 98.4489 24.4592 99.8499 22.0023C98.2873 22.3845 97.1557 23.0397 96.1857 23.9132C92.8448 26.9706 90.9049 30.7923 90.42 35.3238C90.0966 38.4358 90.42 41.3294 91.2282 44.1139C90.9049 43.4041 90.5816 42.6943 90.3122 41.93C88.049 35.8698 89.0189 30.3556 92.8987 25.3327C94.8386 22.8213 96.994 20.692 99.7422 19.2179C111.381 12.8301 125.068 19.3817 128.625 31.7205C129.649 35.1055 129.271 38.4904 128.032 41.8208Z" fill="white"/>
<path d="M108.741 41.384C108.094 46.7891 105.939 51.3206 101.682 54.651C102.598 53.286 103.568 51.9757 104.376 50.5562C105.238 49.0821 105.993 47.4988 106.693 45.9701C107.448 44.496 108.04 42.9127 108.741 41.384Z" fill="white"/>
<path d="M108.148 35.4876C107.933 40.2375 106.963 44.6052 104.107 48.2086C105.4 44.0593 106.747 39.8553 108.148 35.4876Z" fill="white"/>
<path d="M92.252 33.2492C92.252 30.5194 93.1141 28.1171 95.1618 25.9879C94.1379 28.5539 93.2219 30.9015 92.252 33.2492Z" fill="white"/>
<path d="M106.693 34.7233C106.478 37.3985 105.831 39.9099 104.592 42.2576C104.484 42.203 104.376 42.203 104.269 42.1484C104.969 39.637 105.723 37.1801 106.424 34.6687C106.478 34.7233 106.586 34.7233 106.693 34.7233Z" fill="white"/>
<path d="M91.8209 39.1456C92.3598 41.93 92.9525 44.6598 93.4375 47.0621C92.0903 44.9328 91.6054 42.1484 91.8209 39.1456Z" fill="white"/>
<path d="M109.01 27.6804C107.232 25.8241 105.885 23.8586 103.46 22.9851C105.616 22.7121 108.148 24.8413 109.01 27.6804Z" fill="white"/>
<path d="M110.519 41.1111C110.843 38.818 111.22 36.525 111.543 34.2865C111.974 36.6888 111.92 38.9818 110.519 41.1111Z" fill="white"/>
<path d="M109.549 32.4302C110.519 34.0135 110.411 35.5968 109.657 37.1801C109.603 35.5422 109.549 34.0135 109.549 32.4302Z" fill="white"/>
<path d="M105.67 26.4246C105.023 25.8241 104.376 25.2235 103.676 24.623C103.73 24.5138 103.837 24.4592 103.891 24.35C104.592 24.9505 105.238 25.4965 105.939 26.0971C105.831 26.2063 105.723 26.3154 105.67 26.4246Z" fill="white"/>
<path d="M96.0239 42.3668C96.0239 41.4932 96.0778 40.6197 96.0778 39.7462C96.1856 39.7462 96.3472 39.7462 96.455 39.7462C96.455 40.6197 96.455 41.4932 96.455 42.3668C96.3472 42.3668 96.1856 42.3668 96.0239 42.3668Z" fill="white"/>
<path d="M103.137 38.8726C103.299 38.1083 103.46 37.3439 103.676 36.6342C103.784 36.6888 103.891 36.6888 104.053 36.7433C103.891 37.5077 103.73 38.272 103.514 38.9818C103.406 38.9272 103.299 38.9272 103.137 38.8726Z" fill="white"/>
<path d="M97.3712 49.3551C97.2095 48.6454 97.0479 47.9356 96.8862 47.2258C97.0479 47.1712 97.2634 47.1167 97.4251 47.1167C97.5867 47.8264 97.7484 48.5362 97.9639 49.1913C97.7484 49.3005 97.5867 49.3551 97.3712 49.3551Z" fill="white"/>
<path d="M108.472 51.4298C106.963 53.7228 105.077 56.671 101.844 58.3635C100.173 59.237 99.3649 59.1825 98.1255 57.8721C92.5214 51.9211 88.8572 45.0966 89.0727 36.5796C89.2344 31.3929 91.2821 27.0798 94.8924 23.4218C100.82 17.4162 109.01 20.6374 111.812 25.8787C113.698 29.3728 114.183 33.14 113.752 37.0709C113.106 41.9846 111.435 46.5161 108.472 51.4298ZM99.9037 21.9477C98.3411 22.3299 97.2095 22.9851 96.2395 23.8586C92.8986 26.916 90.9587 30.7377 90.4738 35.2692C89.7733 41.8208 91.9826 47.4988 95.6468 52.7401C95.7545 52.8493 95.9162 52.9585 96.2395 53.2314C94.7307 48.8637 93.7608 44.769 94.6768 40.4013C94.7846 40.6197 94.8924 40.8381 94.8924 41.0565C95.0002 45.1512 96.0779 49.0821 97.3711 52.9585C97.7483 54.1596 98.3411 55.3061 98.9338 56.398C99.5265 57.49 100.173 57.6538 101.251 56.9986C102.382 56.2888 103.568 55.4699 104.43 54.4872C107.124 51.3752 109.28 47.8264 110.681 43.8955C112.136 39.7461 113.052 35.433 112.244 31.0107C111.489 27.0252 109.603 23.6948 105.669 22.0569C102.706 20.8558 101.035 21.3472 99.6343 24.2408C98.2333 27.0252 97.1556 29.9734 95.9162 32.8124C95.8084 33.0854 95.6468 33.3584 95.4312 33.9043C95.2696 31.0653 96.509 27.7895 99.9037 21.9477Z" fill="white"/>
<g opacity="0.8">
<path d="M135.738 33.5222C132.72 24.7321 126.469 17.1433 118.225 12.8847C114.13 10.7555 109.603 9.44517 104.969 9.06299C100.335 8.68082 95.539 9.28138 91.0127 10.8101C91.0127 10.8647 91.0127 10.8647 90.9588 10.9193C90.851 11.0285 90.5816 11.1922 90.2583 11.356C89.9349 11.5198 89.5577 11.629 89.2344 11.7928C88.2645 12.2296 87.2407 12.5572 86.2707 12.9939C85.3547 13.4853 84.3847 13.9221 83.4687 14.468C80.1278 16.6519 77.2718 19.4909 74.9548 22.7121L76.4097 20.8012L78.0262 19.0541C78.2957 18.7811 78.5651 18.4536 78.8345 18.2352L79.7506 17.4708L80.6127 16.7065C80.8822 16.4335 81.2055 16.2151 81.5288 15.9967C82.2832 15.4508 82.9837 15.1232 82.9837 15.3416C83.0376 15.56 82.4449 16.1605 81.6905 16.7065C78.4573 19.2725 75.5475 22.7121 73.446 26.4792C71.2905 30.2464 69.8895 34.2319 68.9735 37.9445C68.3807 42.7489 68.8118 47.6626 70.2667 52.1941C71.6677 56.7256 74.0387 60.8203 77.1102 64.2053C80.1817 67.5903 83.8998 70.2109 87.8334 71.9034C91.8209 73.6505 96.024 74.4148 100.119 74.4148C100.443 74.3602 100.82 74.4148 100.981 74.4694C101.197 74.524 101.143 74.6332 100.82 74.6332C96.5629 74.9608 91.9826 74.2511 87.564 72.4494C86.9712 72.2856 86.4863 72.0126 85.9474 71.7396C85.4086 71.4666 84.8697 71.1936 84.3308 70.9207C83.2531 70.3201 82.2832 69.6104 81.2055 68.9552L79.7506 67.8087C79.2656 67.4265 78.7268 67.0443 78.2957 66.6076C77.4335 65.734 76.4097 64.8605 75.6553 63.8231C72.3144 59.8922 69.7279 55.0331 68.4885 49.7373C67.303 44.3868 67.3569 38.6542 68.7579 33.1946L69.0274 32.2118L69.3507 31.2291L70.0512 29.3182C68.3268 32.867 67.2491 36.8525 66.8719 41.0565C66.9797 41.4932 66.9797 42.203 67.0336 43.0219L67.2491 45.9701C67.2491 46.4615 67.3569 46.9529 67.4647 47.4442L67.7341 48.9183C67.7341 48.8091 67.788 48.7545 67.8419 48.7545C68.0035 48.7545 68.2191 49.4097 68.3807 50.2832C69.4046 55.0877 71.4522 59.6192 74.3081 63.6048C74.362 63.7139 74.4698 63.7685 74.5237 63.8777C76.3019 66.3346 78.5651 68.3546 80.8283 70.2655C82.0677 71.1391 83.1993 72.0672 84.5464 72.7769C85.193 73.1591 85.8396 73.5413 86.4863 73.8689L88.5339 74.797C89.1806 75.1246 89.8811 75.343 90.5816 75.616C91.2821 75.8343 91.9826 76.1073 92.6831 76.3257L94.8385 76.8171C95.2157 76.8717 95.539 76.9809 95.9162 77.0355L96.994 77.1992L99.2033 77.4722L101.413 77.5268L102.49 77.5814C102.867 77.5814 103.245 77.5268 103.568 77.5268L105.777 77.363C106.532 77.3084 107.232 77.1447 107.933 77.0355L109.01 76.8717L109.549 76.7625L110.088 76.5987C111.489 76.2165 112.89 75.8343 114.237 75.2338C116.986 74.251 119.518 72.7224 121.889 71.0299C123.021 70.1017 124.206 69.2828 125.23 68.1908L126.038 67.4265C126.308 67.2081 126.577 66.9351 126.793 66.6622L128.248 65.0243L128.625 64.5875L128.948 64.1507L129.595 63.2772L130.241 62.4036L130.565 61.9669L130.834 61.4755L131.912 59.5646L132.181 59.0733L132.397 58.5819L132.828 57.5992C132.936 57.2716 133.151 56.8348 133.313 56.671C133.474 56.4526 133.528 56.5072 133.474 56.8348C133.528 56.8348 133.636 56.8348 133.636 56.8894C132.181 61.0387 130.026 64.8605 127.062 68.2454C124.098 71.5758 120.326 74.4694 115.854 76.3803L113.483 77.3084C112.675 77.5814 111.866 77.7998 111.058 78.0182L109.819 78.3458L108.579 78.5642C107.771 78.6734 106.909 78.8917 106.101 79.0009C106.963 78.9463 107.825 78.8371 108.687 78.7825C109.118 78.728 109.549 78.728 109.98 78.6734C110.411 78.6188 110.789 78.5096 111.22 78.455C112.028 78.2912 112.836 78.182 113.645 78.0182C114.399 77.7998 115.207 77.636 115.908 77.4176C120.057 75.7252 123.883 73.1591 127.116 70.1563C130.403 67.0989 133.097 63.5502 135.253 59.7284L134.983 60.0014C135.307 59.2916 135.738 58.6911 135.845 58.7457C136.007 58.7457 135.845 59.3462 135.522 60.1106C133.798 63.8777 131.427 67.4265 128.517 70.4839C127.763 71.1936 127.062 72.0126 126.254 72.6678L123.775 74.6878L121.081 76.4349C120.165 76.9809 119.195 77.4722 118.279 77.9636C114.453 79.8199 110.25 81.021 105.939 81.5124L102.706 81.7308L99.4727 81.6216C98.9338 81.6216 98.395 81.567 97.8561 81.4578L96.2396 81.2394C95.7007 81.1302 95.1618 81.1302 94.623 80.9664L93.0064 80.5842C88.7495 79.5469 84.708 77.7452 80.9899 75.2884C77.3257 72.8315 74.0926 69.665 71.4522 66.0616C68.8118 62.4582 66.7642 58.3635 65.4709 54.0504C64.1238 49.7373 63.6388 45.1512 63.8543 40.6197C63.8543 38.818 64.1777 37.0163 64.4471 35.2692C64.6087 34.3957 64.8782 33.5222 65.0398 32.6486L65.3631 31.3383C65.4709 30.9015 65.6326 30.4648 65.7942 30.0826L66.6025 27.2982L67.7341 24.8413C67.9496 24.4592 68.1113 24.0224 68.3268 23.6402L69.0274 22.4937C69.5123 21.7293 69.8895 20.9104 70.4284 20.2007L71.9911 18.0714L72.3683 17.5254L72.7993 17.0341L73.7154 16.0513C74.847 14.6864 76.248 13.5399 77.5413 12.3388C78.2418 11.7928 78.9423 11.2468 79.6428 10.7009L80.7205 9.88194L81.8521 9.17218C82.6065 8.73541 83.3609 8.24405 84.1153 7.80727L86.5402 6.66075C87.4562 6.16938 88.4262 5.951 89.1267 5.84181C89.8272 5.73261 90.2583 5.73261 90.3121 5.8964C90.366 6.06019 89.9888 6.38777 89.3961 6.71535C88.8034 7.09752 87.9412 7.4251 87.0251 7.91647L84.7619 9.00839L82.6065 10.3187C82.2293 10.5371 81.906 10.7555 81.5288 10.9739L80.505 11.7382C79.8583 12.2296 79.1578 12.7209 78.5112 13.2669C77.2718 14.4134 75.9786 15.5054 74.9009 16.8157C74.362 17.4708 73.7693 18.0714 73.2843 18.7265L71.7755 20.8012C69.9434 23.6402 68.3268 26.643 67.303 29.8642C66.6564 31.4475 66.387 33.14 65.9559 34.7779C65.7942 35.5968 65.6865 36.4704 65.5787 37.2893L65.417 38.545C65.3631 38.9818 65.3631 39.4186 65.3631 39.8007C65.0398 45.7517 66.0098 51.7573 68.3268 57.1624C66.6025 52.9039 65.7942 48.2632 65.8481 43.7317C65.8481 43.2949 65.7942 42.8581 65.7942 42.4214L65.8481 41.1111C65.902 40.2375 65.902 39.364 65.9559 38.4904C66.2253 36.7433 66.387 34.9963 66.8719 33.3038C67.2491 31.5567 67.8958 29.9188 68.4885 28.2263C68.8118 27.4074 69.2429 26.643 69.6201 25.8241C69.8356 25.4419 69.9973 25.0051 70.2128 24.623L70.9133 23.4764C73.1227 19.8185 75.9247 16.5973 79.104 14.0313C82.3371 11.4652 85.9474 9.44517 89.7733 8.02566C93.5992 6.60616 97.6406 5.78721 101.79 5.67802C105.939 5.56882 110.088 6.06019 114.237 7.26131C118.279 8.40784 121.835 10.1549 125.014 12.2296C125.823 12.7755 126.631 13.2669 127.332 13.8675C128.086 14.468 128.84 15.014 129.541 15.6146C130.241 16.2697 130.888 16.8703 131.588 17.5254L132.073 18.0168L132.558 18.5628L133.474 19.6001L134.391 20.6374C134.714 20.965 134.929 21.4018 135.253 21.7293C135.792 22.4937 136.384 23.258 136.869 24.0224C137.354 24.8413 137.839 25.6603 138.324 26.4792L138.755 27.2982L139.079 27.9533L139.671 29.2636C140.102 30.1372 140.48 31.0107 140.803 31.9935C141.126 32.9216 141.45 33.8497 141.719 34.8325C141.935 35.8152 142.15 36.7979 142.366 37.8353L142.527 38.5996C142.581 38.8726 142.581 39.091 142.635 39.364C142.689 39.9099 142.743 40.4013 142.797 40.9473C142.904 41.7116 142.851 42.5306 142.743 42.8035C142.635 43.0765 142.473 42.8035 142.419 42.0392C142.312 41.0565 142.15 40.0191 142.042 39.0364C141.881 38.0537 141.611 37.0709 141.396 36.1428C141.288 35.6514 141.18 35.1601 141.018 34.7233L140.587 33.3038L140.102 31.8843C139.941 31.4475 139.779 30.9561 139.564 30.5194L138.378 27.8987C137.947 27.0252 137.408 26.2608 136.977 25.3873C136.708 25.0051 136.492 24.5684 136.223 24.1862L135.414 23.0397L134.606 21.8931L134.175 21.3472C134.013 21.1834 133.852 20.965 133.69 20.8012C133.043 20.0915 132.451 19.3817 131.804 18.672C131.157 18.0168 130.457 17.3616 129.756 16.7065C129.11 16.0513 128.301 15.5054 127.601 14.9048C126.847 14.3042 126.146 13.7037 125.284 13.2123C124.476 12.7209 123.721 12.1204 122.859 11.6836C121.997 11.2468 121.135 10.8101 120.273 10.3733C118.494 9.60896 116.716 8.84461 114.776 8.29864C110.735 7.09752 106.586 6.60616 102.49 6.66075C98.395 6.76994 94.3536 7.53429 90.5277 8.9538C86.7018 10.3187 83.0915 12.3388 79.8583 14.9048C76.6252 17.5254 73.8771 20.692 71.6677 24.35C71.0211 25.3327 70.59 26.37 70.0512 27.4074L70.7517 26.1517C70.9672 25.7149 71.1828 25.3327 71.5061 24.9505C72.0449 24.1862 72.5838 23.4218 73.0688 22.6575C74.2543 21.238 75.3858 19.8185 76.733 18.6174L77.649 17.6346C77.9724 17.307 78.2957 17.0341 78.619 16.7611C79.2656 16.2151 79.9122 15.56 80.6127 15.0686L82.7143 13.5399C83.4148 13.0485 84.1692 12.6664 84.9236 12.175C87.9412 10.4825 91.1204 9.17218 94.5152 8.46243C94.9463 8.35324 95.3235 8.24405 95.7546 8.18945L96.994 8.08026C97.8561 7.97106 98.6644 7.80728 99.5266 7.75268L102.113 7.64349C102.544 7.58889 102.975 7.64349 103.406 7.69808L104.7 7.80727L105.993 7.86187C106.424 7.86187 106.855 7.97106 107.286 8.02566C108.148 8.18945 109.01 8.29864 109.819 8.46243C110.627 8.68082 111.489 8.8992 112.297 9.11759L112.944 9.28138C113.16 9.33597 113.375 9.44517 113.537 9.49976L114.776 9.93653C117.309 10.8101 119.68 12.1204 121.943 13.4853C122.482 13.8675 123.021 14.2496 123.56 14.6318C124.098 15.014 124.691 15.3962 125.176 15.8329L126.685 17.1433C126.954 17.3616 127.224 17.58 127.439 17.7984L128.14 18.5082C131.858 22.3299 134.822 27.0252 136.438 32.321C136.815 33.6314 136.977 34.9963 136.815 35.2692C136.6 35.6514 136.115 34.8325 135.738 33.5222ZM87.9412 76.7079L86.2168 75.9981C85.6241 75.7797 85.0314 75.5068 84.4925 75.1792L82.8221 74.251L82.0138 73.7597L81.2055 73.2137C85.2469 76.1073 89.8811 78.1274 94.7308 79.1647C99.5805 80.202 104.646 80.202 109.495 79.2193C108.579 79.3285 107.717 79.4377 106.801 79.5469C105.885 79.6561 104.969 79.6015 104.053 79.6561L102.652 79.7107L101.251 79.6015C100.335 79.5469 99.4188 79.5469 98.5028 79.3831C94.8924 79.0555 91.2821 78.0728 87.9412 76.7079Z" fill="white"/>
<path d="M98.9878 82.8227C93.0065 82.1129 87.0791 79.9837 82.0138 77.4176C81.7983 77.3085 81.5828 77.2539 81.6905 77.363C81.7983 77.4722 82.0677 77.6906 82.3372 77.7998C87.2407 80.2021 93.0065 82.2767 98.7722 82.9865C99.0956 82.9865 99.4189 82.9865 99.4189 82.9319C99.5267 82.8773 99.2572 82.8227 98.9878 82.8227Z" fill="white"/>
<path d="M78.4574 75.4522C74.5237 72.8315 70.9673 69.4466 68.1113 65.3518C65.2554 61.2571 63.1539 56.5618 62.0223 51.4844C60.8907 46.4615 60.7829 41.1657 61.5912 35.979C62.4534 30.7923 64.2855 25.7695 67.0336 21.238C68.1113 19.3817 69.4585 17.7438 70.7517 16.0513C71.4523 15.287 72.2066 14.5226 72.9072 13.7583L73.446 13.2123L74.0388 12.6664L75.2242 11.629C78.3496 8.8992 81.8522 6.60616 85.6242 5.02286C93.1142 1.69248 101.52 0.600557 109.765 1.96547C115.207 2.83901 120.38 4.80448 124.853 7.26131C125.23 7.4797 125.499 7.53429 125.392 7.37051C125.284 7.20672 124.907 6.93373 124.476 6.71535C115.046 1.4741 103.73 -0.327582 93.0604 2.12925C87.7257 3.33037 82.6066 5.67802 78.0802 8.8992C73.6077 12.1204 69.7279 16.2697 66.872 21.0742C64.1238 25.6057 62.2378 30.7377 61.4295 35.979C60.5674 41.2203 60.729 46.6253 61.9145 51.7573C63.0461 56.8894 65.2554 61.6939 68.1652 65.8432C71.0751 69.9925 74.7393 73.4321 78.7807 75.9981C78.9962 76.1619 79.1579 76.1619 79.104 76.0527C78.9423 75.8343 78.6729 75.616 78.4574 75.4522Z" fill="white"/>
<path d="M93.1681 2.62062C87.4562 4.09472 82.1215 6.76995 77.5413 10.4825C76.8946 10.9193 76.3558 11.4106 75.8169 11.902L74.2003 13.3761C73.1765 14.4134 72.1527 15.56 71.1828 16.6519L69.8356 18.4536C69.4045 19.0541 68.9196 19.6001 68.5424 20.2552L67.303 22.1661C67.0874 22.4937 66.8719 22.8213 66.7103 23.1489L66.1714 24.1316C63.0999 29.9188 61.4295 36.4158 61.7528 43.1857C61.8605 44.3322 61.9683 45.4242 62.0761 46.5161C62.1839 47.608 62.4533 48.6454 62.6688 49.7373C62.7766 50.2832 62.8305 50.7746 62.9921 51.3206C63.1538 51.8119 63.3155 52.3579 63.4232 52.8493C63.7465 53.832 63.9621 54.8693 64.3932 55.8521C64.7704 56.8348 65.1476 57.8175 65.5787 58.7457C66.0636 59.6738 66.4947 60.602 66.9797 61.5847C67.1952 62.0761 67.4646 62.5128 67.7341 62.9496C68.0035 63.3864 68.2729 63.8777 68.5424 64.3145C68.8118 64.7513 69.0812 65.2426 69.4045 65.6794C69.7278 66.1162 70.0512 66.553 70.3745 66.9897C70.5361 67.2081 70.7517 67.4265 70.8056 67.4811C70.8594 67.4811 70.7517 67.2627 70.59 67.0443C67.8418 63.168 65.7403 59.0187 64.2315 54.651C62.7766 50.2287 62.0761 45.588 62.13 40.7835C62.13 38.545 62.5072 36.3066 62.8305 34.1227C63.0999 33.0308 63.3693 31.9389 63.6388 30.9015C63.9621 29.8096 64.3393 28.8269 64.7165 27.7895C66.3331 23.6948 68.6501 19.8731 71.3983 16.5427C74.2003 13.2123 77.5412 10.3733 81.2055 8.08026L82.6065 7.20672L83.307 6.76995L84.0614 6.38777C85.0313 5.8964 86.0013 5.40504 86.9712 4.96827C87.995 4.58609 89.0189 4.20392 89.9888 3.76715C90.4738 3.54876 91.0126 3.43957 91.5515 3.27578L93.1142 2.83901C93.4914 2.72981 93.7069 2.62062 93.7069 2.56603C93.8147 2.51143 93.4914 2.56603 93.1681 2.62062Z" fill="white"/>
<path d="M69.8358 39.5824C69.243 44.9874 70.0513 50.8292 72.3145 55.9067C74.6316 60.9295 78.2419 65.0789 82.1756 67.6449C82.3911 67.7541 82.445 67.7541 82.3372 67.5903C82.2294 67.4265 82.0139 67.2081 81.7984 67.0443C78.0264 64.4783 74.5777 60.3836 72.4762 55.4699C70.4285 50.5562 69.6741 44.9874 70.1591 39.7461C70.1591 39.2548 70.213 38.818 70.1052 38.7634C70.0513 38.7088 69.8897 39.0364 69.8358 39.5824Z" fill="white"/>
<path d="M102.005 81.8399C96.0241 81.7307 90.0967 80.202 84.762 77.4722L84.2771 77.2538L83.7921 76.9809L82.8222 76.3803C82.1755 75.9981 81.5289 75.616 80.9362 75.2338L79.1579 73.9235C78.5652 73.4867 77.9725 73.0499 77.4336 72.5586C76.302 71.5758 75.1704 70.5931 74.2005 69.5012C73.7155 68.9552 73.1766 68.4092 72.6917 67.8633L71.2907 66.1162C68.0036 61.4755 65.6866 56.1251 64.555 50.5562C64.4472 49.7373 64.2317 49.1367 64.07 49.1367C63.9083 49.1367 63.9083 49.8465 64.07 50.6654C64.3933 52.0849 64.7705 53.5044 65.0938 54.9239L65.7943 56.9986C66.0638 57.6538 66.2254 58.3635 66.6026 59.0187C66.5487 58.9641 66.4948 58.9641 66.441 58.9641C62.2379 49.6281 61.8607 38.545 65.3632 28.8269C65.5788 28.2809 65.6327 27.8441 65.5788 27.8441C65.471 27.7895 65.2555 28.2263 65.0938 28.7723C61.3218 38.9272 61.9685 50.5562 66.7104 60.1106C66.872 60.4928 67.0337 60.8749 67.2492 61.3117C71.5062 69.2282 78.0802 75.5068 86.2708 79.0555L87.3485 79.5469C87.7257 79.7107 88.1029 79.8199 88.4801 79.9837C89.2345 80.2566 89.9351 80.5296 90.6895 80.8026C91.4439 81.0756 92.1982 81.2394 92.9526 81.4032C93.707 81.567 94.4614 81.8399 95.2158 81.9491C98.2873 82.4951 101.359 82.8227 104.43 82.7135C110.573 82.4951 116.716 80.9664 122.159 77.7998C126.469 75.343 130.08 71.9034 133.151 68.0271C135.792 64.7513 138.001 60.9841 139.133 57.3262C140.641 52.2487 140.857 47.4988 140.318 43.0765C140.318 42.8035 140.21 42.8035 140.21 42.9673C140.156 43.1311 140.156 43.5133 140.156 43.7317C140.21 44.8236 140.318 45.9701 140.372 47.1167C140.156 48.0994 140.103 49.3005 140.049 50.447C139.887 51.6482 139.725 52.7947 139.51 53.9958C139.294 55.1423 138.971 56.2888 138.701 57.4354C135.361 65.8432 129.272 72.9407 121.674 77.5814C118.548 79.1101 115.369 80.3112 112.082 80.8572C110.465 81.294 108.795 81.3486 107.125 81.567C106.693 81.6216 106.262 81.6216 105.885 81.6762C105.454 81.6762 105.023 81.7308 104.592 81.7308C104.161 81.7308 103.73 81.7853 103.299 81.7853L102.652 81.8399H102.005Z" fill="white"/>
</g>
<path d="M207.351 10.3187C206.705 9.11759 205.897 8.13486 205.034 7.31591C204.927 7.20672 204.819 7.09752 204.819 6.98833C204.819 6.93373 205.034 6.82454 205.412 6.66075C206.274 6.38777 207.459 6.06019 208.914 5.62342C210.369 5.24125 211.878 4.80448 213.441 4.4223C215.003 4.04013 216.458 3.65795 217.859 3.33038C219.26 3.0028 220.338 2.72982 221.146 2.51143C221.362 2.45683 221.577 2.40224 221.847 2.40224C222.17 2.40224 222.332 2.62062 222.332 3.0028V4.04013C222.332 6.38777 221.793 8.68082 220.715 10.9193C219.637 13.1577 218.29 15.2324 216.62 17.1433C214.949 19.0541 213.117 20.8012 211.016 22.3299C208.968 23.8586 206.92 25.1143 204.927 25.9879C204.927 26.0971 204.765 26.0971 204.549 26.0971C204.226 26.0971 204.064 25.9333 204.064 25.6057C204.064 25.5511 204.064 25.4419 204.118 25.3327C204.172 25.2235 204.28 25.0051 204.442 24.6776C205.843 22.8213 206.813 20.965 207.459 19.2725C208.052 17.58 208.375 15.9967 208.375 14.5772C208.375 12.8847 208.052 11.4652 207.351 10.3187Z" fill="#EE0000"/>
<path d="M240.114 51.266C240.006 51.1022 239.899 50.8838 239.737 50.72C238.444 49.0275 236.558 47.608 234.025 46.5707C233.971 46.5707 233.971 46.5161 233.917 46.5161C233.217 46.2431 232.624 45.8609 232.247 45.315C231.816 44.769 231.6 44.1685 231.6 43.5133C231.6 42.8035 231.87 42.1484 232.462 41.4932C233.055 40.8381 233.971 40.5651 235.318 40.5651C236.396 40.5651 237.528 40.7289 238.605 41.0565C238.713 41.1111 238.875 41.1657 238.983 41.1657C239.144 41.2203 239.252 41.2203 239.414 41.2203C239.683 41.2203 239.845 41.0565 239.845 40.6743C239.845 40.6197 239.845 40.4013 239.737 39.9099C239.683 39.4732 239.575 38.9272 239.521 38.2175C239.414 37.5623 239.36 36.7979 239.252 36.0336C239.144 35.2692 239.09 34.5595 238.983 33.8497C238.875 33.1946 238.821 32.594 238.767 32.1027C238.767 32.0481 238.767 31.9935 238.767 31.9389C238.713 31.5567 238.713 31.3383 238.713 31.2291C238.659 30.6832 238.39 30.3556 237.851 30.1918C237.043 29.9188 236.18 29.6458 235.211 29.3728C234.294 29.0999 233.163 28.9907 231.816 28.9907C230.361 28.9907 229.014 29.2637 227.828 29.755C226.643 30.2464 225.619 31.0107 224.757 31.8843C223.895 32.8124 223.248 33.8497 222.763 35.1601C222.278 36.4704 222.062 37.8353 222.062 39.3094C222.062 41.8754 222.817 44.0047 224.326 45.6426C225.511 46.8983 227.182 48.154 229.283 49.3551C229.876 49.6827 230.469 50.0103 231.115 50.3378C231.87 50.6654 232.516 51.2114 233.055 52.0303C233.54 52.7947 233.809 53.6682 233.809 54.5964C233.809 55.1969 233.648 55.7975 233.378 56.398C233.109 56.9986 232.624 57.5446 231.924 58.0359C231.277 58.5273 230.361 58.9095 229.283 59.2371C228.583 59.4554 227.774 59.5646 226.804 59.6192C225.511 59.7284 224.218 60.1652 223.086 60.8749C222.925 60.9841 222.817 61.0387 222.709 61.1479C221.093 62.2398 220.123 64.0415 220.123 66.007V68.6276C220.123 68.9552 220.23 69.2282 220.446 69.392C220.661 69.5558 220.931 69.665 221.2 69.7196C222.009 69.8287 222.925 69.8833 223.895 69.9379C224.918 69.9925 225.942 70.0471 226.966 70.0471C229.66 70.0471 231.924 69.7196 233.863 69.0098C235.749 68.3 237.312 67.3719 238.551 66.28C239.737 65.1335 240.599 63.8231 241.192 62.349C241.731 60.8749 242 59.3462 242 57.7084C242 55.4153 241.353 53.2861 240.114 51.266Z" fill="#EE0000"/>
</g>
<defs>
<clipPath id="clip0_1_44">
<rect width="242" height="117" fill="white"/>
</clipPath>
</defs>
</svg>
