<svg width="20" height="24" viewBox="0 0 20 24" fill="none" xmlns="http://www.w3.org/2000/svg">
<path d="M18.299 20.7799C17.2759 22.2523 16.1912 23.6891 14.5395 23.7128C12.8878 23.7484 12.3578 22.7747 10.4842 22.7747C8.59826 22.7747 8.01893 23.689 6.4535 23.7484C4.83876 23.8078 3.61847 22.181 2.58307 20.7442C0.475286 17.8113 -1.13945 12.4086 1.02997 8.77504C2.10235 6.97016 4.02523 5.83024 6.10836 5.79461C7.68612 5.77087 9.18992 6.82767 10.1637 6.82767C11.1251 6.82767 12.9494 5.55713 14.86 5.74712C15.6612 5.78274 17.9045 6.05585 19.3467 8.09821C19.2358 8.16946 16.6719 9.61811 16.6966 12.6223C16.7336 16.2083 19.963 17.4076 20 17.4195C19.963 17.5026 19.4823 19.1294 18.299 20.7799ZM11.2607 1.78113C12.1605 0.795572 13.652 0.0474968 14.8846 0C15.0449 1.38928 14.4655 2.79044 13.6027 3.78787C12.7522 4.79718 11.347 5.58088 9.96647 5.47401C9.78157 4.10848 10.4718 2.68357 11.2607 1.78113Z" fill="black"/>
</svg>
