<svg width="23" height="25" viewBox="0 0 23 25" fill="none" xmlns="http://www.w3.org/2000/svg">
<path d="M1.44556 5.92126H3.73955H22.0915" stroke="white" stroke-width="1.61577" stroke-linecap="round" stroke-linejoin="round"/>
<path d="M20.6053 5.92123C20.6053 5.47504 20.2436 5.11334 19.7974 5.11334C19.3513 5.11334 18.9896 5.47504 18.9896 5.92123H20.6053ZM4.54739 5.92123C4.54739 5.47504 4.18568 5.11334 3.7395 5.11334C3.29332 5.11334 2.93162 5.47504 2.93162 5.92123H4.54739ZM6.37253 5.92123C6.37253 6.36741 6.73423 6.72911 7.18042 6.72911C7.6266 6.72911 7.9883 6.36741 7.9883 5.92123H6.37253ZM15.5485 5.92123C15.5485 6.36741 15.9102 6.72911 16.3564 6.72911C16.8026 6.72911 17.1643 6.36741 17.1643 5.92123H15.5485ZM18.9896 5.92123V21.6301H20.6053V5.92123H18.9896ZM18.9896 21.6301C18.9896 22.4066 18.341 23.0663 17.5034 23.0663V24.6821C19.1997 24.6821 20.6053 23.3323 20.6053 21.6301H18.9896ZM17.5034 23.0663H6.03349V24.6821H17.5034V23.0663ZM6.03349 23.0663C5.19591 23.0663 4.54739 22.4066 4.54739 21.6301H2.93162C2.93162 23.3323 4.33721 24.6821 6.03349 24.6821V23.0663ZM4.54739 21.6301V5.92123H2.93162V21.6301H4.54739ZM7.9883 5.92123V3.67711H6.37253V5.92123H7.9883ZM7.9883 3.67711C7.9883 2.90054 8.63682 2.24087 9.47441 2.24087V0.6251C7.77812 0.6251 6.37253 1.97488 6.37253 3.67711H7.9883ZM9.47441 2.24087H14.0624V0.6251H9.47441V2.24087ZM14.0624 2.24087C14.9 2.24087 15.5485 2.90054 15.5485 3.67711H17.1643C17.1643 1.97488 15.7587 0.6251 14.0624 0.6251V2.24087ZM15.5485 3.67711V5.92123H17.1643V3.67711H15.5485Z" fill="white"/>
<path d="M9.47462 11.5315V18.2639" stroke="white" stroke-width="1.61577" stroke-linecap="round" stroke-linejoin="round"/>
<path d="M14.0625 11.5315V18.2639" stroke="white" stroke-width="1.61577" stroke-linecap="round" stroke-linejoin="round"/>
</svg>
