<svg width="208" height="234" viewBox="0 0 208 234" fill="none" xmlns="http://www.w3.org/2000/svg">
<g opacity="0.15">
<path d="M104.331 132.125C107.813 148.44 110.979 164.435 113.828 178.83C105.914 166.034 103.065 149.719 104.331 132.125Z" fill="white"/>
<path d="M136.935 191.946C135.985 187.787 135.036 183.628 134.086 179.47C135.036 179.15 136.302 178.83 137.252 178.83C138.201 182.989 139.151 187.147 140.417 190.986C139.151 191.626 138.201 191.946 136.935 191.946Z" fill="white"/>
<path d="M189.798 162.835C186.632 170.832 182.201 178.19 176.503 185.228C177.136 182.989 178.086 180.749 178.719 178.51C182.517 173.392 186.316 168.273 189.798 162.835Z" fill="white"/>
<path d="M162.259 222.976C167.64 214.979 173.338 207.301 178.086 198.984C183.151 190.346 187.582 181.069 191.697 172.112C195.812 163.155 199.611 154.198 203.409 144.921C199.927 176.911 187.266 203.462 162.259 222.976Z" fill="white"/>
<path d="M204.992 64.3066C204.992 64.6265 204.992 64.9464 205.309 64.9464C204.992 64.6265 204.359 63.9867 204.042 63.6668C204.359 63.9867 204.676 63.9867 204.992 64.3066Z" fill="white"/>
<path d="M317.048 147.8C307.868 172.112 294.89 194.185 277.48 213.059C257.855 234.492 237.279 254.646 216.704 275.119C198.978 292.714 181.251 309.988 161.309 329.502C124.273 290.794 83.1228 259.444 50.5189 218.497C32.1594 195.785 14.7495 172.752 5.56974 144.601C-5.50927 111.012 0.188514 79.6617 20.4473 51.8306C38.4902 27.5183 61.5979 8.96426 92.6191 3.2061C101.166 1.60661 110.029 1.6066 122.058 0.646912C104.331 12.1632 89.7702 21.1204 75.8423 30.7173C58.749 42.2336 45.7707 57.5887 38.4902 76.7826C29.3105 100.135 30.2601 125.087 40.706 147.8C49.2527 166.354 59.3821 185.548 72.6769 200.903C100.216 231.933 130.288 260.404 159.726 290.154C194.863 262.323 224.618 230.653 254.373 198.664C268.934 182.989 279.696 164.115 288.243 144.281C312.617 87.3392 264.502 36.1556 222.085 30.7173C208.474 29.1178 195.496 29.1178 183.151 32.3168C167.007 26.2387 157.827 29.7576 149.913 46.0724C148.647 48.3117 147.698 50.8709 146.432 53.1101C141.367 57.5887 136.935 62.3872 133.137 67.5056C137.252 57.5887 143.266 46.0724 151.496 31.677C142.316 33.9163 135.669 37.7551 129.971 42.8734C110.346 60.7877 98.95 83.1805 96.1011 109.732C94.2019 127.966 96.1011 144.921 100.849 161.236C98.95 157.077 97.0507 152.918 95.468 148.44C82.1732 112.931 87.871 80.6214 110.662 51.1908C122.058 36.4755 134.719 23.9995 150.863 15.3622C219.236 -22.0658 299.638 16.3219 320.53 88.6188C326.545 108.452 324.329 128.286 317.048 147.8Z" fill="white"/>
<path d="M203.726 145.241C199.927 176.911 187.266 203.462 162.259 222.976C167.64 214.978 173.338 207.301 178.086 198.983C183.151 190.346 187.582 181.069 191.697 172.112C196.129 163.475 199.611 154.198 203.726 145.241Z" fill="white"/>
<path d="M200.244 110.692C198.978 138.523 193.28 164.115 176.503 185.228C184.1 160.916 192.014 136.283 200.244 110.692Z" fill="white"/>
<path d="M106.864 97.5758C106.864 81.5809 111.928 67.5054 123.957 55.0294C117.943 70.0646 112.561 83.8202 106.864 97.5758Z" fill="white"/>
<path d="M191.697 106.213C190.431 121.888 186.633 136.603 179.352 150.359C178.719 150.039 178.086 150.039 177.453 149.719C181.568 135.004 186 120.608 190.115 105.893C190.431 106.213 191.064 106.213 191.697 106.213Z" fill="white"/>
<path d="M104.331 132.125C107.497 148.439 110.979 164.434 113.828 178.51C105.914 166.034 103.065 149.719 104.331 132.125Z" fill="white"/>
<path d="M205.309 64.9462C194.863 54.0697 186.949 42.5533 172.705 37.435C185.366 35.8355 200.244 48.3115 205.309 64.9462Z" fill="white"/>
<path d="M185.683 57.5886C181.884 54.0697 178.086 50.5509 173.971 47.032C174.287 46.3922 174.92 46.0723 175.237 45.4325C179.352 48.9514 183.15 52.1503 187.266 55.6692C186.632 56.309 185.999 56.9488 185.683 57.5886Z" fill="white"/>
<path d="M129.022 150.999C129.022 145.88 129.338 140.762 129.338 135.644C129.971 135.644 130.921 135.644 131.554 135.644C131.554 140.762 131.554 145.88 131.554 150.999C130.921 150.999 129.971 150.999 129.022 150.999Z" fill="white"/>
<path d="M170.805 130.525C171.755 126.047 172.704 121.568 173.971 117.409C174.604 117.729 175.237 117.729 176.186 118.049C175.237 122.528 174.287 127.006 173.021 131.165C172.388 130.845 171.755 130.845 170.805 130.525Z" fill="white"/>
<path d="M136.935 191.946C135.986 187.787 135.036 183.628 134.086 179.47C135.036 179.15 136.302 178.83 137.252 178.83C138.202 182.989 139.151 187.147 140.417 190.986C139.151 191.626 138.201 191.946 136.935 191.946Z" fill="white"/>
<path d="M202.143 204.102C193.28 217.538 182.201 234.812 163.208 244.729C153.395 249.847 148.647 249.527 141.367 241.85C108.446 206.981 86.9214 166.994 88.1875 117.09C89.1372 86.6994 101.166 61.4275 122.374 39.9943C157.194 4.80555 205.309 23.6795 221.769 54.3897C232.848 74.8632 235.697 96.9361 233.164 119.969C229.366 148.76 219.553 175.311 202.143 204.102ZM151.813 31.3571C142.633 33.5964 135.986 37.4351 130.288 42.5535C110.662 60.4678 99.2665 82.8606 96.4177 109.412C92.3026 147.8 105.281 181.069 126.806 211.779C127.439 212.419 128.389 213.059 130.288 214.659C121.425 189.067 115.727 165.074 121.108 139.483C121.741 140.762 122.374 142.042 122.374 143.321C123.007 167.314 129.338 190.346 136.935 213.059C139.151 220.097 142.633 226.815 146.115 233.213C149.597 239.611 153.395 240.57 159.726 236.731C166.374 232.573 173.338 227.774 178.402 222.016C194.229 203.782 206.891 182.989 215.121 159.956C223.668 135.644 229.049 110.372 224.301 84.4601C219.87 61.1076 208.791 41.5938 185.683 31.9969C168.273 24.9591 158.46 27.8382 150.23 44.7928C142 61.1076 135.669 78.3821 128.388 95.0167C127.755 96.6162 126.806 98.2157 125.54 101.415C124.59 84.78 131.871 65.5861 151.813 31.3571Z" fill="white"/>
</g>
</svg>
