<svg width="15" height="15" viewBox="0 0 15 15" fill="none" xmlns="http://www.w3.org/2000/svg">
<path d="M13.0842 7.35985C13.0842 5.76521 12.5286 4.41237 11.4176 3.3013C10.3065 2.19024 8.95394 1.63498 7.35985 1.63552V0C8.38205 0 9.33965 0.194355 10.2326 0.583064C11.1256 0.971773 11.9025 1.49623 12.5633 2.15644C13.224 2.81773 13.7487 3.5946 14.1375 4.48705C14.5262 5.3795 14.7202 6.3371 14.7197 7.35985H13.0842ZM9.81313 7.35985C9.81313 6.67838 9.57462 6.09913 9.09759 5.62211C8.62056 5.14508 8.04132 4.90657 7.35985 4.90657V3.27104C8.49109 3.27104 9.4555 3.66984 10.2531 4.46743C11.0507 5.26502 11.4492 6.22916 11.4487 7.35985H9.81313ZM13.861 14.7197C12.1029 14.7197 10.3888 14.3277 8.71897 13.5438C7.0491 12.7598 5.57032 11.724 4.28262 10.4363C2.99491 9.14856 1.95908 7.66978 1.17512 5.99991C0.391163 4.33004 -0.000544606 2.61629 5.68284e-07 0.858649C5.68284e-07 0.613321 0.0817766 0.40888 0.245329 0.245328C0.408881 0.0817761 0.613321 0 0.85865 0H4.17058C4.36139 0 4.53176 0.061332 4.68168 0.183996C4.83161 0.30666 4.9202 0.463398 4.94745 0.654209L5.479 3.51637C5.50626 3.70718 5.50271 3.88109 5.46837 4.0381C5.43402 4.19511 5.35579 4.33468 5.23367 4.4568L3.2506 6.46031C3.82303 7.44162 4.54212 8.36161 5.40785 9.22025C6.27359 10.0789 7.2241 10.8217 8.25939 11.4487L10.1811 9.52691C10.3038 9.40425 10.4641 9.31212 10.662 9.25051C10.8599 9.18891 11.0539 9.17201 11.2442 9.19981L14.0655 9.77224C14.2563 9.81313 14.413 9.90527 14.5357 10.0486C14.6584 10.192 14.7197 10.3589 14.7197 10.5491V13.861C14.7197 14.1064 14.6379 14.3108 14.4744 14.4744C14.3108 14.6379 14.1064 14.7197 13.861 14.7197ZM2.47373 4.90657L3.82303 3.55726L3.47548 1.63552H1.65597C1.72411 2.19433 1.81952 2.74631 1.94218 3.29149C2.06485 3.83666 2.24203 4.37502 2.47373 4.90657ZM9.79269 12.2255C10.3242 12.4572 10.8661 12.6412 11.4184 12.7775C11.9707 12.9138 12.5259 13.0024 13.0842 13.0433V11.2442L11.1624 10.8558L9.79269 12.2255Z" fill="#1B381C"/>
</svg>
