<svg width="390" height="174" fill="none" xmlns="http://www.w3.org/2000/svg">
    <g opacity=".5" clip-path="url(#a)">
        <rect x="358" y="16" width="240" height="142" rx="10" fill="url(#b)"/>
        <mask id="d" style="mask-type:alpha" maskUnits="userSpaceOnUse" x="358" y="16" width="240" height="142">
            <rect x="358" y="16" width="240" height="142" rx="4.932" fill="url(#c)"/>
        </mask>
        <g mask="url(#d)">
            <path d="M472.247 115.863c-69.679-42.264-112.192-17.534-129.041 6.164v54.247h272.876v-48.082c-21.781 17.534-93.698 18.082-143.835-12.329Z" fill="url(#e)"/>
        </g>
        <path d="m375.408 82.68 1.472-1.904-2.352.144V79.8l2.352.16-1.472-1.92 1.104-.624 1.072 2.112 1.072-2.112 1.104.624-1.472 1.92 2.352-.16v1.12l-2.352-.144 1.472 1.904-1.104.64-1.072-2.112-1.072 2.112-1.104-.64Zm11.172 0 1.472-1.904-2.352.144V79.8l2.352.16-1.472-1.92 1.104-.624 1.072 2.112 1.072-2.112 1.104.624-1.472 1.92 2.352-.16v1.12l-2.352-.144 1.472 1.904-1.104.64-1.072-2.112-1.072 2.112-1.104-.64Zm11.172 0 1.472-1.904-2.352.144V79.8l2.352.16-1.472-1.92 1.104-.624 1.072 2.112L401 77.416l1.104.624-1.472 1.92 2.352-.16v1.12l-2.352-.144 1.472 1.904-1.104.64-1.072-2.112-1.072 2.112-1.104-.64Zm11.172 0 1.472-1.904-2.352.144V79.8l2.352.16-1.472-1.92 1.104-.624 1.072 2.112 1.072-2.112 1.104.624-1.472 1.92 2.352-.16v1.12l-2.352-.144 1.472 1.904-1.104.64-1.072-2.112-1.072 2.112-1.104-.64ZM386.813 31.238l-1.626 9.544h2.601l1.627-9.544h-2.602ZM383.006 31.249l-2.548 6.509-.271-.983c-.503-1.184-1.929-2.885-3.604-3.957l2.33 7.96 2.752-.005 4.096-9.526-2.755.002Z" fill="#fff"/>
        <path d="M379.199 31.932c-.151-.581-.589-.755-1.133-.775h-4.033l-.033.19c3.138.76 5.215 2.595 6.076 4.8l-.877-4.215ZM394.687 33.068a4.802 4.802 0 0 1 1.947.365l.235.11.352-2.068a6.72 6.72 0 0 0-2.331-.4c-2.57 0-4.381 1.294-4.395 3.149-.017 1.37 1.29 2.136 2.277 2.593 1.014.468 1.354.766 1.349 1.184-.008.639-.808.932-1.555.932-1.042 0-1.595-.144-2.449-.5l-.336-.152-.365 2.136c.608.267 1.732.496 2.898.508 2.734 0 4.51-1.279 4.529-3.261.012-1.085-.682-1.912-2.185-2.591-.91-.443-1.467-.737-1.461-1.184 0-.397.472-.821 1.49-.821Z" fill="#fff"/>
        <path opacity=".8" d="M377.32 124.1c-.6 0-1.123-.143-1.57-.43-.44-.293-.78-.71-1.02-1.25s-.36-1.18-.36-1.92c0-.733.12-1.37.36-1.91.247-.54.597-.957 1.05-1.25.453-.293.983-.44 1.59-.44.46 0 .877.093 1.25.28.373.18.657.433.85.76l-.41.44c-.373-.573-.93-.86-1.67-.86-.72 0-1.28.26-1.68.78-.393.52-.59 1.253-.59 2.2 0 .933.193 1.663.58 2.19.393.527.937.79 1.63.79.8 0 1.377-.287 1.73-.86l.41.44c-.187.327-.47.583-.85.77a3 3 0 0 1-1.3.27Zm7.152-1.74h-2.81l-.52 1.64h-.8l2.37-7h.71l2.37 7h-.8l-.52-1.64Zm-.19-.61-1.21-3.85-1.22 3.85h2.43Zm2.95-4.75h2.06c.74 0 1.29.153 1.65.46.367.3.55.76.55 1.38 0 .467-.123.863-.37 1.19-.246.32-.586.533-1.02.64v.02a1.35 1.35 0 0 1 .6.71l1.05 2.6h-.8l-.9-2.3c-.126-.313-.28-.527-.46-.64-.173-.12-.433-.18-.78-.18h-.84V124h-.74v-7Zm2.03 3.27c.514 0 .894-.117 1.14-.35.254-.233.38-.587.38-1.06 0-.42-.13-.73-.39-.93-.253-.207-.643-.31-1.17-.31h-1.25v2.65h1.29Zm4.142-3.27h2.15c.913 0 1.59.277 2.03.83.44.547.66 1.39.66 2.53 0 .86-.104 1.557-.31 2.09-.2.533-.517.927-.95 1.18-.434.247-1.004.37-1.71.37h-1.87v-7Zm2.03 6.38c.72 0 1.246-.24 1.58-.72.333-.487.5-1.253.5-2.3 0-.953-.157-1.647-.47-2.08-.314-.44-.817-.66-1.51-.66h-1.39v5.76h1.29Zm7.412-6.38h.74v3.16h3.56V117h.74v7h-.74v-3.22h-3.56V124h-.74v-7Zm9.568 7.1c-.586 0-1.1-.147-1.54-.44-.44-.293-.78-.71-1.02-1.25-.233-.54-.35-1.177-.35-1.91 0-.733.117-1.37.35-1.91.24-.54.58-.957 1.02-1.25.44-.293.954-.44 1.54-.44.587 0 1.097.147 1.53.44.44.293.777.71 1.01 1.25.24.54.36 1.177.36 1.91 0 .733-.12 1.37-.36 1.91-.233.54-.57.957-1.01 1.25-.433.293-.943.44-1.53.44Zm0-.61c.44 0 .824-.12 1.15-.36.327-.247.577-.593.75-1.04.174-.453.26-.983.26-1.59 0-.607-.086-1.133-.26-1.58-.173-.453-.423-.8-.75-1.04a1.851 1.851 0 0 0-1.15-.37c-.44 0-.823.123-1.15.37-.326.24-.58.587-.76 1.04-.173.447-.26.973-.26 1.58 0 .607.087 1.137.26 1.59.18.447.434.793.76 1.04.327.24.71.36 1.15.36Zm4.523-6.49h.74v6.38h3.41v.62h-4.15v-7Zm5.781 0h2.15c.914 0 1.59.277 2.03.83.44.547.66 1.39.66 2.53 0 .86-.103 1.557-.31 2.09-.2.533-.516.927-.95 1.18-.433.247-1.003.37-1.71.37h-1.87v-7Zm2.03 6.38c.72 0 1.247-.24 1.58-.72.334-.487.5-1.253.5-2.3 0-.953-.156-1.647-.47-2.08-.313-.44-.816-.66-1.51-.66h-1.39v5.76h1.29ZM429.3 117h4.04v.62h-3.3V120h2.95v.63h-2.95v2.75h3.3v.62h-4.04v-7Zm5.859 0h2.06c.74 0 1.29.153 1.65.46.366.3.55.76.55 1.38 0 .467-.124.863-.37 1.19-.247.32-.587.533-1.02.64v.02c.146.087.266.187.36.3.093.107.173.243.24.41l1.05 2.6h-.8l-.9-2.3c-.127-.313-.28-.527-.46-.64-.174-.12-.434-.18-.78-.18h-.84V124h-.74v-7Zm2.03 3.27c.513 0 .893-.117 1.14-.35.253-.233.38-.587.38-1.06 0-.42-.13-.73-.39-.93-.254-.207-.644-.31-1.17-.31h-1.25v2.65h1.29Z" fill="#fff"/>
        <path d="M376.236 142.13c-.407 0-.806-.069-1.196-.208a2.737 2.737 0 0 1-.962-.559l.559-.988a2.32 2.32 0 0 0 1.534.598c.485 0 .832-.16 1.04-.481.217-.329.325-.867.325-1.612v-5.98h1.43v6.188c0 1.049-.221 1.82-.663 2.314-.442.485-1.131.728-2.067.728Zm7.471 0c-.996 0-1.781-.299-2.353-.897-.572-.607-.858-1.434-.858-2.483 0-1.049.286-1.872.858-2.47.572-.607 1.357-.91 2.353-.91.997 0 1.781.303 2.353.91.581.598.871 1.421.871 2.47 0 1.049-.29 1.876-.871 2.483-.572.598-1.356.897-2.353.897Zm0-.975c.598 0 1.071-.212 1.417-.637.347-.433.52-1.023.52-1.768 0-.745-.173-1.33-.52-1.755-.346-.433-.819-.65-1.417-.65-.606 0-1.079.217-1.417.65-.338.425-.507 1.01-.507 1.755 0 .745.169 1.335.507 1.768.338.425.811.637 1.417.637Zm4.513-8.801h1.287v4.082a1.99 1.99 0 0 1 .858-.78 2.778 2.778 0 0 1 1.261-.286c.754 0 1.344.251 1.768.754.425.503.637 1.2.637 2.093V142h-1.287v-3.744c0-.615-.121-1.088-.364-1.417-.234-.329-.576-.494-1.027-.494-.537 0-.979.195-1.326.585-.346.39-.52.897-.52 1.521V142h-1.287v-9.646Zm7.374 4.81c0-.806-.017-1.361-.052-1.664h1.196c.044.321.065.702.065 1.144h.039c.174-.39.455-.698.845-.923a2.573 2.573 0 0 1 1.326-.351c1.526 0 2.288.988 2.288 2.964V142h-1.287v-3.679c0-.65-.108-1.131-.325-1.443-.216-.312-.55-.468-1.001-.468-.528 0-.962.191-1.3.572-.338.381-.507.867-.507 1.456V142h-1.287v-4.836Zm10.795-4.264h3.003c1.204 0 2.11.368 2.717 1.105.615.728.923 1.816.923 3.263 0 1.127-.139 2.037-.416 2.73-.269.685-.698 1.192-1.287 1.521-.581.321-1.348.481-2.301.481h-2.639v-9.1Zm2.847 7.943c.832 0 1.434-.282 1.807-.845.381-.563.572-1.473.572-2.73 0-1.109-.182-1.92-.546-2.431-.364-.52-.941-.78-1.729-.78h-1.534v6.786h1.43Zm8.093 1.287c-.996 0-1.781-.299-2.353-.897-.572-.607-.858-1.434-.858-2.483 0-1.049.286-1.872.858-2.47.572-.607 1.357-.91 2.353-.91.997 0 1.781.303 2.353.91.581.598.871 1.421.871 2.47 0 1.049-.29 1.876-.871 2.483-.572.598-1.356.897-2.353.897Zm0-.975c.598 0 1.071-.212 1.417-.637.347-.433.52-1.023.52-1.768 0-.745-.173-1.33-.52-1.755-.346-.433-.819-.65-1.417-.65-.606 0-1.079.217-1.417.65-.338.425-.507 1.01-.507 1.755 0 .745.169 1.335.507 1.768.338.425.811.637 1.417.637Zm10.168-1.911h-4.628c.07.589.256 1.036.559 1.339.312.303.737.455 1.274.455.763 0 1.378-.299 1.846-.897l.715.689a2.596 2.596 0 0 1-1.079.962 3.522 3.522 0 0 1-1.547.338c-.97 0-1.729-.295-2.275-.884-.537-.598-.806-1.426-.806-2.483 0-1.057.273-1.885.819-2.483.546-.607 1.296-.91 2.249-.91.902 0 1.604.299 2.106.897.512.589.767 1.417.767 2.483v.494Zm-1.222-1.014c0-.563-.151-1.005-.455-1.326-.303-.321-.719-.481-1.248-.481-.494 0-.888.165-1.183.494-.294.329-.472.797-.533 1.404h3.419v-.091Z" fill="#fff"/>
    </g>
    <g opacity=".4" clip-path="url(#f)">
        <rect x="-209" y="16" width="240" height="142" rx="10" fill="url(#g)"/>
        <mask id="i" style="mask-type:alpha" maskUnits="userSpaceOnUse" x="-209" y="16" width="240" height="142">
            <rect x="-209" y="16" width="240" height="142" rx="4.932" fill="url(#h)"/>
        </mask>
        <g mask="url(#i)">
            <path d="M-94.753 115.863c-69.679-42.264-112.192-17.534-129.041 6.164v54.247H49.082v-48.082c-21.78 17.534-93.698 18.082-143.835-12.329Z" fill="url(#j)"/>
        </g>
        <g clip-path="url(#k)">
            <path d="M0 34.333c-.917 0-1.667.75-1.667 1.667s.75 1.667 1.667 1.667 1.667-.75 1.667-1.667S.917 34.333 0 34.333Zm10 0c-.916 0-1.666.75-1.666 1.667s.75 1.667 1.666 1.667c.917 0 1.667-.75 1.667-1.667s-.75-1.667-1.667-1.667Zm-5 0c-.917 0-1.667.75-1.667 1.667s.75 1.667 1.667 1.667 1.667-.75 1.667-1.667-.75-1.667-1.667-1.667Z" fill="#fff"/>
        </g>
        <path d="M-18.816 86.148c-.75 0-1.42-.138-2.012-.414-.582-.276-1.016-.656-1.302-1.14l.799-.917c.266.345.621.627 1.065.843.454.208.917.311 1.39.311.593 0 1.066-.163 1.421-.488.365-.335.547-.77.547-1.302 0-.582-.221-1.035-.665-1.361-.444-.326-1.056-.488-1.835-.488h-.65v-1.228h.635c.651 0 1.174-.163 1.569-.488.394-.336.591-.77.591-1.302 0-.434-.143-.77-.429-1.006-.286-.237-.685-.355-1.198-.355-.483 0-.937.103-1.361.31-.414.197-.76.479-1.036.844l-.769-.918c.326-.473.784-.848 1.376-1.124a4.49 4.49 0 0 1 1.953-.43c.611 0 1.149.105 1.612.312.464.207.824.503 1.08.887.257.375.385.809.385 1.302a2.51 2.51 0 0 1-.488 1.524c-.326.444-.784.774-1.376.991.73.198 1.282.518 1.657.962.384.444.577.996.577 1.657 0 .592-.148 1.12-.444 1.583-.286.454-.7.809-1.243 1.065-.532.247-1.149.37-1.849.37Zm10.103 0c-.7 0-1.347-.138-1.938-.414-.582-.286-1.031-.666-1.347-1.14l.74-1.035c.306.404.676.72 1.11.947.434.217.892.325 1.376.325.64 0 1.149-.202 1.523-.606.375-.415.563-.977.563-1.687 0-.67-.168-1.203-.503-1.598-.336-.394-.794-.591-1.376-.591-.355 0-.69.088-1.006.266a1.83 1.83 0 0 0-.725.725h-1.347l.489-5.696h5.77v1.316h-4.32l-.252 2.752c.187-.177.449-.32.784-.429a3.297 3.297 0 0 1 1.02-.162c.622 0 1.17.138 1.643.414.474.276.838.67 1.095 1.183.256.513.385 1.11.385 1.79 0 .73-.153 1.371-.46 1.924a3.137 3.137 0 0 1-1.286 1.272c-.552.296-1.199.444-1.938.444Zm11.375-1.864h-4.69V83.01l4.438-7.367h1.864v7.323h1.14v1.317h-1.14V86H2.662v-1.716Zm0-1.317v-5.311l-3.196 5.311h3.196Zm9.319 3.18c-.72 0-1.352-.162-1.894-.487a3.402 3.402 0 0 1-1.243-1.391c-.286-.602-.429-1.292-.429-2.071 0-1.095.266-2.13.799-3.107a7.21 7.21 0 0 1 2.204-2.456 6.782 6.782 0 0 1 3.078-1.184l.147 1.229a5.94 5.94 0 0 0-2.426 1.124c-.73.552-1.257 1.223-1.583 2.012.138-.148.336-.271.592-.37.266-.108.552-.163.858-.163.69 0 1.282.148 1.775.444.503.286.883.69 1.14 1.213.266.523.399 1.12.399 1.79 0 .661-.143 1.253-.429 1.776-.276.513-.67.917-1.184 1.213-.512.286-1.114.429-1.805.429Zm-.015-1.316c.562 0 1.01-.192 1.346-.577.335-.384.503-.897.503-1.538s-.168-1.154-.503-1.539c-.335-.385-.784-.577-1.346-.577-.563 0-1.016.192-1.361.577-.336.385-.503.897-.503 1.539 0 .64.167 1.154.503 1.538.345.385.798.577 1.36.577Z" fill="#fff"/>
        <path opacity=".8" d="M-23.297 117h4.04v.62h-3.3V120h2.95v.63h-2.95v2.75h3.3v.62h-4.04v-7Zm7.499 3.41-2.02-3.41h.86l1.61 2.88 1.6-2.88h.87l-2.03 3.41 2.13 3.59h-.85l-1.72-3-1.72 3h-.86l2.13-3.59Zm4.648-3.41h1.97c.747 0 1.314.177 1.7.53.394.353.59.87.59 1.55 0 .72-.203 1.273-.61 1.66-.4.387-.976.58-1.73.58h-1.18V124h-.74v-7Zm2.04 3.69c.48 0 .85-.137 1.11-.41.26-.273.39-.663.39-1.17 0-.493-.133-.863-.4-1.11-.266-.253-.66-.38-1.18-.38h-1.22v3.07h1.3Zm4.234-3.69h.74v7h-.74v-7Zm3.052 0h2.06c.74 0 1.29.153 1.65.46.366.3.55.76.55 1.38 0 .467-.124.863-.37 1.19-.247.32-.587.533-1.02.64v.02a1.361 1.361 0 0 1 .6.71l1.05 2.6h-.8l-.9-2.3c-.127-.313-.28-.527-.46-.64-.174-.12-.434-.18-.78-.18h-.84V124h-.74v-7Zm2.03 3.27c.513 0 .893-.117 1.14-.35.253-.233.38-.587.38-1.06 0-.42-.13-.73-.39-.93-.254-.207-.644-.31-1.17-.31h-1.25v2.65h1.29ZM4.347 117h4.04v.62h-3.3V120h2.95v.63h-2.95v2.75h3.3v.62h-4.04v-7Zm7.59 7.1a2.79 2.79 0 0 1-1.23-.28 2.458 2.458 0 0 1-.92-.76l.46-.46c.206.26.466.473.78.64.32.16.632.24.94.24.426 0 .77-.11 1.03-.33.266-.22.4-.51.4-.87 0-.34-.108-.63-.32-.87-.214-.24-.6-.497-1.16-.77-.488-.24-.87-.46-1.15-.66-.274-.207-.47-.417-.59-.63a1.532 1.532 0 0 1-.17-.73c0-.527.182-.943.55-1.25.372-.313.87-.47 1.49-.47.426 0 .82.097 1.18.29.36.193.626.45.8.77l-.5.35a1.63 1.63 0 0 0-.63-.57 1.734 1.734 0 0 0-.85-.22c-.394 0-.71.1-.95.3-.234.193-.35.453-.35.78 0 .193.042.36.13.5.086.133.242.277.47.43.232.147.586.34 1.06.58.62.307 1.062.623 1.33.95.266.327.4.713.4 1.16 0 .373-.094.703-.28.99-.18.287-.438.507-.77.66a2.73 2.73 0 0 1-1.15.23Z" fill="#fff"/>
        <path d="M-16.354 142.13c-1.022 0-1.807-.394-2.353-1.183-.546-.797-.819-1.963-.819-3.497 0-1.534.273-2.695.82-3.484.545-.797 1.33-1.196 2.352-1.196 1.023 0 1.803.399 2.34 1.196.546.789.82 1.95.82 3.484s-.274 2.7-.82 3.497c-.537.789-1.317 1.183-2.34 1.183Zm0-1.053c.572 0 1.006-.303 1.3-.91.295-.607.442-1.512.442-2.717 0-1.213-.147-2.119-.442-2.717-.294-.607-.728-.91-1.3-.91-1.17 0-1.755 1.209-1.755 3.627 0 1.205.148 2.11.442 2.717.304.607.741.91 1.313.91Zm4.49-.208a16.278 16.278 0 0 0 1.833-1.573 10.296 10.296 0 0 0 1.56-1.95c.434-.693.65-1.352.65-1.976 0-.442-.126-.793-.377-1.053-.251-.26-.598-.39-1.04-.39-.416 0-.815.104-1.196.312a2.476 2.476 0 0 0-.91.832l-.754-.819a2.97 2.97 0 0 1 1.183-1.079 3.573 3.573 0 0 1 1.69-.403c.884 0 1.577.23 2.08.689.511.451.767 1.075.767 1.872 0 .867-.342 1.781-1.027 2.743-.676.953-1.534 1.898-2.574 2.834H-6V142h-5.863v-1.131Zm11.16-8.294H.581l-4.94 9.984h-1.287l4.94-9.984Zm1.875 8.294a16.268 16.268 0 0 0 1.833-1.573 10.295 10.295 0 0 0 1.56-1.95c.433-.693.65-1.352.65-1.976 0-.442-.126-.793-.377-1.053-.251-.26-.598-.39-1.04-.39-.416 0-.815.104-1.196.312a2.477 2.477 0 0 0-.91.832l-.754-.819a2.97 2.97 0 0 1 1.183-1.079 3.573 3.573 0 0 1 1.69-.403c.884 0 1.577.23 2.08.689.511.451.767 1.075.767 1.872 0 .867-.342 1.781-1.027 2.743-.676.953-1.534 1.898-2.574 2.834h3.978V142H1.171v-1.131Zm10.132 1.261c-1.023 0-1.807-.394-2.353-1.183-.546-.797-.819-1.963-.819-3.497 0-1.534.273-2.695.82-3.484.545-.797 1.33-1.196 2.352-1.196 1.023 0 1.803.399 2.34 1.196.546.789.82 1.95.82 3.484s-.274 2.7-.82 3.497c-.537.789-1.317 1.183-2.34 1.183Zm0-1.053c.572 0 1.005-.303 1.3-.91.295-.607.442-1.512.442-2.717 0-1.213-.147-2.119-.442-2.717-.295-.607-.728-.91-1.3-.91-1.17 0-1.755 1.209-1.755 3.627 0 1.205.147 2.11.442 2.717.303.607.741.91 1.313.91Z" fill="#fff"/>
    </g>
    <rect x="47" width="295" height="174" rx="15" fill="url(#l)"/>
    <mask id="n" style="mask-type:alpha" maskUnits="userSpaceOnUse" x="47" y="0" width="295" height="174">
        <rect x="47" width="295" height="174" rx="14" fill="url(#m)"/>
    </mask>
    <g mask="url(#n)">
        <path d="M186 121.5C101.224 70.078 49.5 100.167 29 129v66h332v-58.5c-26.5 21.333-114 22-175-15Z" fill="url(#o)"/>
    </g>
    <path d="m83.016 20.048-2.033 11.93h3.252l2.034-11.93h-3.253ZM78.257 20.061l-3.184 8.136-.34-1.229c-.628-1.48-2.41-3.605-4.504-4.945l2.912 9.948 3.44-.005 5.12-11.907-3.444.002Z" fill="#fff"/>
    <path d="M73.5 20.915c-.19-.727-.738-.943-1.417-.97h-5.041l-.042.238c3.923.952 6.518 3.245 7.595 6.002l-1.096-5.27ZM92.859 22.335a6.003 6.003 0 0 1 2.433.456l.293.138.44-2.585a8.392 8.392 0 0 0-2.912-.501c-3.213 0-5.478 1.618-5.495 3.937-.021 1.713 1.613 2.67 2.847 3.241 1.267.585 1.692.957 1.686 1.48-.01.799-1.01 1.165-1.944 1.165-1.302 0-1.994-.18-3.062-.625l-.418-.19-.458 2.67c.761.333 2.165.62 3.623.635 3.417 0 5.638-1.599 5.662-4.076.014-1.356-.853-2.39-2.732-3.239-1.138-.554-1.833-.922-1.827-1.48 0-.496.59-1.026 1.864-1.026ZM104.369 20.061h-2.512c-.78 0-1.36.213-1.703.99l-4.828 10.933h3.415s.556-1.47.683-1.792l4.163.005c.097.416.397 1.787.397 1.787H107l-2.631-11.923Zm-4.01 7.69c.268-.686 1.296-3.335 1.296-3.335-.018.033.265-.69.433-1.139l.219 1.029.753 3.444h-2.701Z" fill="#fff"/>
    <path opacity=".8" d="M71.038 123.501c-.784 0-1.404.262-1.86.786-.453.521-.679 1.235-.679 2.144 0 .934.218 1.657.654 2.168.44.507 1.065.761 1.875.761.498 0 1.066-.089 1.704-.268v.727c-.494.186-1.105.279-1.83.279-1.052 0-1.864-.319-2.437-.957-.57-.638-.855-1.545-.855-2.72 0-.736.137-1.38.41-1.934a2.98 2.98 0 0 1 1.192-1.279c.52-.299 1.133-.449 1.836-.449.748 0 1.403.137 1.963.41l-.352.713a3.782 3.782 0 0 0-1.62-.381Zm7.74 6.499-.89-2.271h-2.86l-.88 2.271h-.84l2.823-7.168h.698L79.637 130h-.86Zm-1.148-3.018-.83-2.211c-.108-.28-.218-.624-.332-1.031a9.28 9.28 0 0 1-.308 1.031l-.84 2.211h2.31Zm3.818.049V130h-.83v-7.139h1.958c.876 0 1.522.168 1.939.503.42.336.63.84.63 1.514 0 .944-.479 1.582-1.436 1.914L85.647 130h-.981l-1.728-2.969h-1.49Zm0-.713h1.138c.586 0 1.016-.115 1.289-.346.273-.235.41-.585.41-1.05 0-.472-.14-.812-.42-1.021-.276-.208-.722-.312-1.338-.312h-1.079v2.729Zm11.05.044c0 1.179-.32 2.08-.962 2.705-.638.622-1.558.933-2.759.933H86.8v-7.139h2.187c1.11 0 1.973.308 2.588.923s.923 1.475.923 2.578Zm-.879.03c0-.931-.234-1.633-.703-2.105-.465-.472-1.159-.708-2.08-.708H87.63v5.703h1.01c.99 0 1.734-.242 2.232-.727.498-.489.747-1.21.747-2.163ZM102.112 130h-.83v-3.359h-3.76V130h-.83v-7.139h.83v3.037h3.76v-3.037h.83V130Zm8.159-3.579c0 1.142-.289 2.041-.869 2.695-.576.655-1.378.982-2.407.982-1.051 0-1.863-.321-2.436-.962-.57-.645-.855-1.553-.855-2.725 0-1.162.287-2.062.859-2.7.573-.641 1.387-.962 2.442-.962 1.025 0 1.826.326 2.402.977.576.651.864 1.549.864 2.695Zm-5.688 0c0 .967.205 1.701.615 2.202.414.498 1.013.747 1.797.747.791 0 1.388-.249 1.792-.747.404-.498.606-1.232.606-2.202 0-.96-.202-1.688-.606-2.183-.4-.498-.994-.747-1.782-.747-.791 0-1.393.251-1.807.752-.41.498-.615 1.224-.615 2.178Zm7.285 3.579v-7.139h.83v6.387h3.15V130h-3.98Zm10.894-3.638c0 1.179-.321 2.08-.962 2.705-.638.622-1.558.933-2.759.933h-1.978v-7.139h2.188c1.11 0 1.973.308 2.588.923s.923 1.475.923 2.578Zm-.879.03c0-.931-.235-1.633-.703-2.105-.466-.472-1.159-.708-2.08-.708h-1.206v5.703h1.01c.99 0 1.734-.242 2.232-.727.498-.489.747-1.21.747-2.163Zm6.455 3.608h-3.98v-7.139h3.98v.738h-3.15v2.299h2.959v.733h-2.959v2.627h3.15V130Zm2.417-2.969V130h-.83v-7.139h1.958c.875 0 1.522.168 1.938.503.42.336.63.84.63 1.514 0 .944-.478 1.582-1.435 1.914l1.938 3.208h-.981l-1.729-2.969h-1.489Zm0-.713h1.138c.586 0 1.015-.115 1.289-.346.273-.235.41-.585.41-1.05 0-.472-.14-.812-.42-1.021-.277-.208-.723-.312-1.338-.312h-1.079v2.729ZM289.568 130h-3.979v-7.139h3.979v.738h-3.149v2.299h2.959v.733h-2.959v2.627h3.149V130Zm6.338 0h-.942l-1.919-3.14-1.953 3.14h-.879l2.373-3.73-2.212-3.409h.918l1.772 2.827 1.788-2.827h.883l-2.212 3.379 2.383 3.76Zm5.547-5.059c0 .723-.247 1.28-.742 1.67-.492.388-1.196.581-2.114.581h-.84V130h-.83v-7.139h1.85c1.784 0 2.676.694 2.676 2.08Zm-3.696 1.538h.747c.736 0 1.268-.118 1.597-.356.328-.238.493-.618.493-1.143 0-.472-.155-.823-.464-1.054-.309-.231-.791-.347-1.445-.347h-.928v2.9Zm5.195 3.521v-7.139h.83V130h-.83Zm3.623-2.969V130h-.83v-7.139h1.958c.876 0 1.522.168 1.939.503.42.336.629.84.629 1.514 0 .944-.478 1.582-1.435 1.914l1.938 3.208h-.981l-1.729-2.969h-1.489Zm0-.713h1.138c.586 0 1.016-.115 1.289-.346.273-.235.41-.585.41-1.05 0-.472-.14-.812-.42-1.021-.277-.208-.722-.312-1.338-.312h-1.079v2.729Zm9.331 3.682h-3.979v-7.139h3.979v.738h-3.149v2.299h2.959v.733h-2.959v2.627h3.149V130Zm5.615-1.899c0 .628-.227 1.118-.683 1.469-.456.352-1.074.528-1.856.528-.846 0-1.497-.109-1.953-.327v-.801a5.227 5.227 0 0 0 1.983.4c.553 0 .97-.104 1.25-.312.28-.212.42-.505.42-.879 0-.248-.051-.45-.152-.606-.097-.159-.263-.306-.498-.439-.231-.134-.584-.285-1.059-.454-.664-.238-1.14-.52-1.426-.845-.283-.326-.425-.75-.425-1.274 0-.551.207-.988.62-1.314.414-.325.96-.488 1.641-.488.709 0 1.362.13 1.958.39l-.259.723c-.589-.247-1.162-.371-1.719-.371-.439 0-.783.094-1.03.283-.247.189-.371.451-.371.786 0 .248.045.451.137.611.091.156.244.301.459.434.218.13.55.275.996.435.748.267 1.263.553 1.543.859.283.306.424.703.424 1.192Z" fill="#fff"/>
    <circle cx="71.5" cy="79.5" r="4.5" fill="#fff"/>
    <circle cx="85.5" cy="79.5" r="4.5" fill="#fff"/>
    <circle cx="99.5" cy="79.5" r="4.5" fill="#fff"/>
    <circle cx="113.5" cy="79.5" r="4.5" fill="#fff"/>
    <circle cx="138.5" cy="79.5" r="4.5" fill="#fff"/>
    <circle cx="152.5" cy="79.5" r="4.5" fill="#fff"/>
    <circle cx="166.5" cy="79.5" r="4.5" fill="#fff"/>
    <circle cx="180.5" cy="79.5" r="4.5" fill="#fff"/>
    <circle cx="205.5" cy="79.5" r="4.5" fill="#fff"/>
    <circle cx="219.5" cy="79.5" r="4.5" fill="#fff"/>
    <circle cx="233.5" cy="79.5" r="4.5" fill="#fff"/>
    <circle cx="247.5" cy="79.5" r="4.5" fill="#fff"/>
    <defs>
        <linearGradient id="b" x1="358" y1="16" x2="597.102" y2="159.496" gradientUnits="userSpaceOnUse">
            <stop stop-color="#FF7200"/>
            <stop offset="1" stop-color="#FF7300"/>
        </linearGradient>
        <linearGradient id="c" x1="358" y1="16" x2="597.102" y2="159.496" gradientUnits="userSpaceOnUse">
            <stop stop-color="#F09D5A"/>
            <stop offset="1" stop-color="#FFAD6A"/>
        </linearGradient>
        <linearGradient id="e" x1="343.206" y1="92.946" x2="500.413" y2="275.748" gradientUnits="userSpaceOnUse">
            <stop stop-color="#F5A25F"/>
            <stop offset="1" stop-color="#FAA865"/>
        </linearGradient>
        <linearGradient id="g" x1="-209" y1="16" x2="30.102" y2="159.496" gradientUnits="userSpaceOnUse">
            <stop stop-color="#54D3AD"/>
            <stop offset="1" stop-color="#63E2BC"/>
        </linearGradient>
        <linearGradient id="h" x1="-209" y1="16" x2="30.102" y2="159.496" gradientUnits="userSpaceOnUse">
            <stop stop-color="#54D3AD"/>
            <stop offset="1" stop-color="#63E2BC"/>
        </linearGradient>
        <linearGradient id="j" x1="-223.794" y1="92.946" x2="-66.587" y2="275.748" gradientUnits="userSpaceOnUse">
            <stop stop-color="#5AD9B3"/>
            <stop offset="1" stop-color="#5EDDB7"/>
        </linearGradient>
        <linearGradient id="l" x1="47" y1="0" x2="340.412" y2="176.638" gradientUnits="userSpaceOnUse">
            <stop stop-color="#1B381C"/>
            <stop offset="1" stop-color="#1B381C"/>
        </linearGradient>
        <linearGradient id="m" x1="47" y1="0" x2="340.412" y2="176.638" gradientUnits="userSpaceOnUse">
            <stop stop-color="#E00"/>
            <stop offset="1" stop-color="#E00"/>
        </linearGradient>
        <linearGradient id="o" x1="29" y1="88.484" x2="231.202" y2="312.276" gradientUnits="userSpaceOnUse">
            <stop stop-color="#005403"/>
            <stop offset=".991" stop-color="#146B17"/>
        </linearGradient>
        <clipPath id="a">
            <path fill="#fff" transform="translate(358 16)" d="M0 0h240v142H0z"/>
        </clipPath>
        <clipPath id="f">
            <path fill="#fff" transform="translate(-209 16)" d="M0 0h240v142H0z"/>
        </clipPath>
        <clipPath id="k">
            <path fill="#fff" transform="translate(-5 26)" d="M0 0h20v20H0z"/>
        </clipPath>
    </defs>
</svg>
