<svg width="15" height="16" viewBox="0 0 15 16" fill="none" xmlns="http://www.w3.org/2000/svg">
<g clip-path="url(#clip0_73_2389)">
<path d="M14.5469 13.5801H1.81836V12.6709H13.6377V6.30664H14.5469V13.5801Z" fill="#707070"/>
<path d="M11.8193 4.48828V10.8525H0.90918V4.48828H11.8193ZM12.7285 3.5791H0V11.7617H12.7285V3.5791Z" fill="#707070"/>
<path d="M2.72754 6.30664H1.81836V9.03418H2.72754V9.94336H6.36426C5.76143 9.94336 5.1833 9.70389 4.75704 9.27763C4.33078 8.85137 4.09131 8.27323 4.09131 7.67041C4.09131 7.06759 4.33078 6.48945 4.75704 6.06319C5.1833 5.63693 5.76143 5.39746 6.36426 5.39746H2.72754V6.30664ZM10.001 6.30664V5.39746H6.36426C6.96708 5.39746 7.54522 5.63693 7.97148 6.06319C8.39774 6.48945 8.63721 7.06759 8.63721 7.67041C8.63721 8.27323 8.39774 8.85137 7.97148 9.27763C7.54522 9.70389 6.96708 9.94336 6.36426 9.94336H10.001V9.03418H10.9102V6.30664H10.001Z" fill="#707070"/>
</g>
<defs>
<clipPath id="clip0_73_2389">
<rect width="14.5469" height="14.5469" fill="white" transform="translate(0 0.851562)"/>
</clipPath>
</defs>
</svg>
