<svg width="249" height="189" viewBox="0 0 249 189" fill="none" xmlns="http://www.w3.org/2000/svg">
<path d="M153.892 53.1071H92.7489C90.7019 53.1071 88.9053 51.7646 88.343 49.8119L77.9717 13.887C77.4533 12.0956 78.8107 10.3085 80.6908 10.3085H159.075" fill="#EE0000"/>
<path d="M109.613 83.1102C110.652 76.827 106.361 70.8978 100.029 69.867C93.6968 68.8361 87.7213 73.094 86.6824 79.3772C85.6435 85.6604 89.9346 91.5896 96.2668 92.6204C102.599 93.6513 108.575 89.3934 109.613 83.1102Z" fill="#EE0000"/>
<path d="M151.86 83.0819C152.88 76.7955 148.571 70.8792 142.235 69.8675C135.9 68.8557 129.937 73.1317 128.918 79.418C127.898 85.7044 132.207 91.6207 138.543 92.6325C144.878 93.6442 150.841 89.3683 151.86 83.0819Z" fill="#EE0000"/>
<path d="M140.384 82.9124C141.311 82.9124 142.062 82.1669 142.062 81.2473C142.062 80.3277 141.311 79.5823 140.384 79.5823C139.457 79.5823 138.706 80.3277 138.706 81.2473C138.706 82.1669 139.457 82.9124 140.384 82.9124Z" fill="#EE0000"/>
<path d="M103.608 97.5926C95.8852 97.5926 89.6035 91.3596 89.6035 83.6969C89.6035 76.0342 95.8852 69.8011 103.608 69.8011C111.33 69.8011 117.612 76.0342 117.612 83.6969C117.612 91.3596 111.33 97.5926 103.608 97.5926ZM103.608 74.5348C98.5121 74.5348 94.3697 78.6451 94.3697 83.7012C94.3697 88.7574 98.5121 92.8677 103.608 92.8677C108.703 92.8677 112.846 88.7574 112.846 83.7012C112.846 78.6451 108.703 74.5348 103.608 74.5348Z" fill="#1B381C"/>
<path d="M147.118 74.5348H101.596C100.282 74.5348 99.2148 73.4756 99.2148 72.1723C99.2148 70.8691 100.282 69.8099 101.596 69.8099H147.118C151.089 69.8099 154.621 67.308 155.912 63.5812L174.674 9.41928C176.624 3.7834 181.97 0 187.971 0H201.619C202.933 0 204 1.05918 204 2.36245C204 3.66572 202.933 4.7249 201.619 4.7249H187.971C184 4.7249 180.468 7.22682 179.176 10.9536L160.415 65.1155C158.465 70.747 153.123 74.5348 147.118 74.5348Z" fill="#1B381C"/>
<path d="M103.607 86.1553C102.241 86.1553 101.134 85.0525 101.134 83.7013C101.134 82.3501 102.246 81.2473 103.607 81.2473C104.969 81.2473 106.081 82.3501 106.081 83.7013C106.081 85.0525 104.974 86.1553 103.607 86.1553ZM103.607 82.8208C103.12 82.8208 102.72 83.2131 102.72 83.7013C102.72 84.1895 103.115 84.5818 103.607 84.5818C104.095 84.5818 104.495 84.1895 104.495 83.7013C104.495 83.2131 104.095 82.8208 103.607 82.8208Z" fill="#1B381C"/>
<path d="M145.848 97.5926C138.126 97.5926 131.844 91.3596 131.844 83.6969C131.844 76.0342 138.126 69.8011 145.848 69.8011C153.571 69.8011 159.853 76.0342 159.853 83.6969C159.853 91.3596 153.567 97.5926 145.848 97.5926ZM145.848 74.5348C140.753 74.5348 136.61 78.6451 136.61 83.7012C136.61 88.7574 140.753 92.8677 145.848 92.8677C150.944 92.8677 155.086 88.7574 155.086 83.7012C155.086 78.6451 150.94 74.5348 145.848 74.5348Z" fill="#1B381C"/>
<path d="M145.849 86.1553C144.487 86.1553 143.375 85.0525 143.375 83.7013C143.375 82.3501 144.487 81.2473 145.849 81.2473C147.215 81.2473 148.322 82.3501 148.322 83.7013C148.322 85.0525 147.21 86.1553 145.849 86.1553ZM145.849 82.8208C145.361 82.8208 144.961 83.2131 144.961 83.7013C144.961 84.1895 145.357 84.5818 145.849 84.5818C146.336 84.5818 146.736 84.1895 146.736 83.7013C146.736 83.2131 146.336 82.8208 145.849 82.8208Z" fill="#1B381C"/>
<path d="M160.507 59.9547H99.3598C96.2673 59.9547 93.5174 57.8974 92.6652 54.9465L82.2939 19.0216C81.8414 17.4481 82.1489 15.7961 83.1417 14.4885C84.1345 13.1809 85.65 12.4312 87.3017 12.4312H165.686C167 12.4312 168.067 13.4903 168.067 14.7936C168.067 16.0969 167 17.156 165.686 17.156H87.3017C87.1172 17.156 87.0073 17.2519 86.9458 17.3304C86.8843 17.4089 86.8228 17.544 86.8712 17.7183L97.2425 53.6432C97.5105 54.576 98.3802 55.2254 99.3598 55.2254H160.503C161.816 55.2254 162.884 56.2846 162.884 57.5879C162.884 58.8912 161.821 59.9547 160.507 59.9547Z" fill="#1B381C"/>
<path d="M171.731 26.7585H98.8197C97.9411 26.7585 97.2339 26.0524 97.2339 25.185C97.2339 24.3176 97.9455 23.6115 98.8197 23.6115H171.731C172.609 23.6115 173.317 24.3176 173.317 25.185C173.317 26.0524 172.609 26.7585 171.731 26.7585Z" fill="#1B381C"/>
<path d="M166.407 42.1318H105.04C104.161 42.1318 103.454 41.4256 103.454 40.5583C103.454 39.6909 104.166 38.9847 105.04 38.9847H166.407C167.285 38.9847 167.993 39.6909 167.993 40.5583C167.993 41.4256 167.285 42.1318 166.407 42.1318Z" fill="#1B381C"/>
<path d="M177.573 104C177.446 104 177.314 103.983 177.187 103.952C146.31 96.2719 119.659 96.6685 102.738 98.3554C84.3892 100.186 73.2052 103.878 73.0954 103.917C72.2651 104.196 71.3646 103.752 71.0835 102.928C70.8023 102.104 71.2504 101.21 72.0806 100.931C72.5419 100.774 83.638 97.1044 102.307 95.2301C119.501 93.5084 146.586 93.09 177.96 100.897C178.812 101.11 179.326 101.964 179.115 102.806C178.93 103.525 178.285 104 177.573 104Z" fill="#1B381C"/>
<path d="M51.2467 141.971V149H47.4235V141.971L41.8295 129.468H46.0284L49.4089 137.879L52.7626 129.468H56.9347L51.2467 141.971ZM59.8671 141.528C59.8671 142.896 60.2428 143.983 60.994 144.788C61.7452 145.584 62.7648 145.982 64.0526 145.982C65.3225 145.982 66.3331 145.575 67.0843 144.761C67.8445 143.938 68.2246 142.834 68.2246 141.447C68.2246 140.204 67.8266 139.185 67.0307 138.389C66.2437 137.584 65.251 137.181 64.0526 137.181C62.8184 137.181 61.8123 137.588 61.0342 138.402C60.2562 139.207 59.8671 140.249 59.8671 141.528ZM56.3256 141.555C56.3256 140.517 56.5134 139.534 56.889 138.603C57.2736 137.664 57.8281 136.833 58.5525 136.108C59.2948 135.366 60.131 134.798 61.0611 134.405C61.9912 134.002 62.957 133.801 63.9587 133.801C65.0229 133.801 66.0022 133.98 66.8965 134.338C67.7998 134.686 68.6271 135.214 69.3783 135.92C70.1474 136.663 70.7421 137.521 71.1625 138.496C71.5828 139.462 71.793 140.455 71.793 141.474C71.793 142.601 71.6096 143.63 71.243 144.56C70.8763 145.49 70.3263 146.33 69.5929 147.082C68.8596 147.842 68.0234 148.419 67.0843 148.812C66.1453 149.197 65.1258 149.389 64.0258 149.389C62.9168 149.389 61.9062 149.192 60.994 148.799C60.0818 148.405 59.2501 147.815 58.4988 147.028C57.7834 146.259 57.2423 145.414 56.8756 144.493C56.5089 143.562 56.3256 142.583 56.3256 141.555ZM84.5854 149V147.404C84.0846 148.074 83.5077 148.575 82.8549 148.906C82.211 149.228 81.4731 149.389 80.6414 149.389C78.7902 149.389 77.3682 148.821 76.3755 147.685C75.3828 146.55 74.8864 144.917 74.8864 142.789V134.244H78.3609V140.871C78.3609 142.865 78.5889 144.229 79.045 144.962C79.5012 145.695 80.2882 146.062 81.4061 146.062C82.5508 146.062 83.3691 145.651 83.861 144.828C84.3618 144.005 84.6122 142.61 84.6122 140.643V134.244H87.9928V149H84.5854ZM98.9205 137.235C97.588 137.342 96.6579 137.691 96.1302 138.282C95.6026 138.872 95.3388 139.936 95.3388 141.474V149H91.9045V134.244H95.1241V135.947C95.6428 135.286 96.2107 134.803 96.8278 134.499C97.4449 134.185 98.1425 134.029 98.9205 134.029V137.235ZM128.798 135.263H124.13C123.575 134.512 122.913 133.948 122.144 133.573C121.384 133.197 120.517 133.009 119.542 133.009C118.755 133.009 118.008 133.157 117.302 133.452C116.595 133.747 115.969 134.177 115.423 134.74C114.842 135.33 114.391 136.014 114.069 136.792C113.756 137.562 113.599 138.353 113.599 139.167C113.599 140.956 114.171 142.458 115.316 143.674C116.47 144.882 117.878 145.485 119.542 145.485C120.499 145.485 121.357 145.306 122.118 144.949C122.887 144.591 123.508 144.072 123.982 143.393H128.664C127.752 145.387 126.535 146.885 125.015 147.887C123.495 148.888 121.679 149.389 119.569 149.389C118.102 149.389 116.747 149.107 115.504 148.544C114.27 147.98 113.161 147.144 112.177 146.035C111.345 145.114 110.715 144.068 110.286 142.896C109.856 141.716 109.642 140.455 109.642 139.113C109.642 137.754 109.901 136.466 110.42 135.25C110.938 134.025 111.699 132.911 112.7 131.909C113.648 130.979 114.699 130.277 115.853 129.803C117.015 129.32 118.263 129.079 119.596 129.079C121.733 129.079 123.557 129.589 125.069 130.608C126.589 131.628 127.832 133.179 128.798 135.263ZM134.655 141.501C134.655 142.744 135.066 143.786 135.889 144.627C136.721 145.458 137.732 145.874 138.921 145.874C140.003 145.874 140.956 145.454 141.778 144.613C142.601 143.773 143.013 142.789 143.013 141.662C143.013 140.464 142.597 139.435 141.765 138.577C140.942 137.709 139.976 137.275 138.867 137.275C137.705 137.275 136.712 137.687 135.889 138.51C135.066 139.323 134.655 140.321 134.655 141.501ZM143.402 149V147.189C142.99 147.922 142.409 148.463 141.658 148.812C140.915 149.161 139.963 149.335 138.8 149.335C136.618 149.335 134.794 148.593 133.327 147.108C131.869 145.615 131.14 143.764 131.14 141.555C131.14 140.517 131.324 139.534 131.69 138.603C132.057 137.673 132.58 136.855 133.26 136.149C133.993 135.37 134.807 134.798 135.701 134.431C136.596 134.056 137.602 133.868 138.72 133.868C139.793 133.868 140.714 134.047 141.483 134.405C142.261 134.762 142.887 135.303 143.361 136.028V134.244H146.715V149H143.402ZM157.656 137.235C156.324 137.342 155.394 137.691 154.866 138.282C154.338 138.872 154.074 139.936 154.074 141.474V149H150.64V134.244H153.86V135.947C154.379 135.286 154.946 134.803 155.564 134.499C156.181 134.185 156.878 134.029 157.656 134.029V137.235ZM162.145 149V137.302H159.891V134.244H162.145V129.468H165.579V134.244H167.846V137.302H165.579V149H162.145ZM179.681 149V129.468H183.504V149H179.681ZM189.938 144.104V144.305C189.938 144.958 190.103 145.49 190.434 145.901C190.765 146.304 191.194 146.505 191.722 146.505C192.223 146.505 192.63 146.353 192.943 146.049C193.265 145.745 193.426 145.356 193.426 144.882C193.426 144.443 193.309 144.086 193.077 143.808C192.844 143.522 192.428 143.236 191.829 142.95C191.489 142.798 190.989 142.588 190.327 142.319C189.665 142.051 189.24 141.841 189.052 141.689C188.507 141.242 188.104 140.745 187.845 140.2C187.586 139.645 187.456 139.015 187.456 138.308C187.456 137.065 187.89 136.014 188.757 135.156C189.634 134.297 190.693 133.868 191.937 133.868C193.251 133.868 194.289 134.248 195.049 135.008C195.818 135.768 196.238 136.833 196.31 138.201H193.224V138.121C193.224 137.647 193.099 137.275 192.849 137.007C192.607 136.739 192.267 136.605 191.829 136.605C191.445 136.605 191.123 136.739 190.863 137.007C190.613 137.266 190.488 137.593 190.488 137.986C190.488 138.63 191.15 139.229 192.473 139.784C192.822 139.927 193.09 140.039 193.278 140.119C194.548 140.692 195.416 141.309 195.881 141.971C196.346 142.623 196.578 143.509 196.578 144.627C196.578 146.004 196.113 147.144 195.183 148.048C194.253 148.942 193.081 149.389 191.668 149.389C190.246 149.389 189.097 148.915 188.221 147.967C187.353 147.019 186.879 145.736 186.799 144.117L189.938 144.104ZM94.8773 182H84.3332V162.468H94.8773V165.902H88.1162V170.356H94.8773V173.736H88.1162V178.566H94.8773V182ZM102.371 167.244V168.92C102.872 168.25 103.444 167.753 104.088 167.431C104.741 167.109 105.483 166.948 106.315 166.948C107.504 166.948 108.519 167.159 109.36 167.579C110.21 167.999 110.938 168.657 111.547 169.551C112.128 168.675 112.781 168.022 113.505 167.592C114.23 167.163 115.03 166.948 115.906 166.948C117.713 166.948 119.099 167.516 120.065 168.652C121.031 169.788 121.514 171.416 121.514 173.535V182H118.133V175.467C118.133 173.464 117.91 172.104 117.463 171.389C117.024 170.664 116.26 170.302 115.169 170.302C114.033 170.302 113.219 170.709 112.727 171.523C112.244 172.328 112.003 173.714 112.003 175.682V182H108.595V175.467C108.595 173.473 108.367 172.113 107.911 171.389C107.464 170.664 106.677 170.302 105.55 170.302C104.405 170.302 103.583 170.709 103.082 171.523C102.581 172.328 102.331 173.714 102.331 175.682V182H99.0171V167.244H102.371ZM128.82 174.555C128.82 175.816 129.227 176.871 130.04 177.721C130.854 178.561 131.86 178.982 133.059 178.982C134.239 178.982 135.245 178.552 136.077 177.694C136.918 176.835 137.338 175.807 137.338 174.608C137.338 173.365 136.918 172.332 136.077 171.51C135.236 170.687 134.177 170.275 132.898 170.275C131.771 170.275 130.809 170.691 130.014 171.523C129.218 172.346 128.82 173.356 128.82 174.555ZM128.685 180.819V186.776H125.305V167.244H128.685V168.478C129.374 167.932 130.094 167.53 130.845 167.27C131.596 167.002 132.406 166.868 133.273 166.868C134.203 166.868 135.08 167.016 135.903 167.311C136.725 167.597 137.463 168.026 138.116 168.599C139.001 169.368 139.681 170.275 140.155 171.322C140.638 172.368 140.88 173.482 140.88 174.662C140.88 175.762 140.66 176.813 140.222 177.815C139.793 178.816 139.18 179.679 138.384 180.404C137.705 181.048 136.927 181.539 136.05 181.879C135.183 182.219 134.266 182.389 133.3 182.389C132.361 182.389 131.516 182.259 130.765 182C130.022 181.75 129.329 181.356 128.685 180.819ZM145.341 182V170.302H143.088V167.244H145.341V162.468H148.776V167.244H151.043V170.302H148.776V182H145.341ZM151.896 167.244H155.531L159.126 177.546L163.084 167.244H166.679L158.711 186.776H155.169L157.235 181.584L151.896 167.244Z" fill="#1B381C"/>
</svg>
