<svg width="249" height="241" viewBox="0 0 249 241" fill="none" xmlns="http://www.w3.org/2000/svg">
<g clip-path="url(#clip0_220_128)">
<path d="M153.892 53.1071H92.7489C90.7019 53.1071 88.9053 51.7646 88.343 49.8119L77.9717 13.887C77.4533 12.0956 78.8107 10.3085 80.6908 10.3085H159.075" fill="#EE0000"/>
<path d="M109.613 83.1102C110.652 76.827 106.361 70.8978 100.029 69.867C93.6968 68.8361 87.7213 73.094 86.6824 79.3772C85.6435 85.6604 89.9346 91.5896 96.2668 92.6204C102.599 93.6513 108.575 89.3934 109.613 83.1102Z" fill="#EE0000"/>
<path d="M151.86 83.0819C152.88 76.7955 148.571 70.8792 142.235 69.8675C135.9 68.8557 129.937 73.1317 128.918 79.418C127.898 85.7044 132.207 91.6207 138.543 92.6325C144.878 93.6442 150.841 89.3683 151.86 83.0819Z" fill="#EE0000"/>
<path d="M140.384 82.9124C141.311 82.9124 142.062 82.1669 142.062 81.2473C142.062 80.3277 141.311 79.5823 140.384 79.5823C139.457 79.5823 138.706 80.3277 138.706 81.2473C138.706 82.1669 139.457 82.9124 140.384 82.9124Z" fill="#EE0000"/>
<path d="M103.608 97.5926C95.8852 97.5926 89.6035 91.3596 89.6035 83.6969C89.6035 76.0342 95.8852 69.8011 103.608 69.8011C111.33 69.8011 117.612 76.0342 117.612 83.6969C117.612 91.3596 111.33 97.5926 103.608 97.5926ZM103.608 74.5348C98.5121 74.5348 94.3697 78.6451 94.3697 83.7012C94.3697 88.7574 98.5121 92.8677 103.608 92.8677C108.703 92.8677 112.846 88.7574 112.846 83.7012C112.846 78.6451 108.703 74.5348 103.608 74.5348Z" fill="#1B381C"/>
<path d="M147.118 74.5348H101.596C100.282 74.5348 99.2148 73.4756 99.2148 72.1723C99.2148 70.8691 100.282 69.8099 101.596 69.8099H147.118C151.089 69.8099 154.621 67.308 155.912 63.5812L174.674 9.41928C176.624 3.7834 181.97 0 187.971 0H201.619C202.933 0 204 1.05918 204 2.36245C204 3.66572 202.933 4.7249 201.619 4.7249H187.971C184 4.7249 180.468 7.22682 179.176 10.9536L160.415 65.1155C158.465 70.747 153.123 74.5348 147.118 74.5348Z" fill="#1B381C"/>
<path d="M103.607 86.1553C102.241 86.1553 101.134 85.0525 101.134 83.7013C101.134 82.3501 102.246 81.2473 103.607 81.2473C104.969 81.2473 106.081 82.3501 106.081 83.7013C106.081 85.0525 104.974 86.1553 103.607 86.1553ZM103.607 82.8208C103.12 82.8208 102.72 83.2131 102.72 83.7013C102.72 84.1895 103.115 84.5818 103.607 84.5818C104.095 84.5818 104.495 84.1895 104.495 83.7013C104.495 83.2131 104.095 82.8208 103.607 82.8208Z" fill="#1B381C"/>
<path d="M145.848 97.5926C138.126 97.5926 131.844 91.3596 131.844 83.6969C131.844 76.0342 138.126 69.8011 145.848 69.8011C153.571 69.8011 159.853 76.0342 159.853 83.6969C159.853 91.3596 153.567 97.5926 145.848 97.5926ZM145.848 74.5348C140.753 74.5348 136.61 78.6451 136.61 83.7012C136.61 88.7574 140.753 92.8677 145.848 92.8677C150.944 92.8677 155.086 88.7574 155.086 83.7012C155.086 78.6451 150.94 74.5348 145.848 74.5348Z" fill="#1B381C"/>
<path d="M145.849 86.1553C144.487 86.1553 143.375 85.0525 143.375 83.7013C143.375 82.3501 144.487 81.2473 145.849 81.2473C147.215 81.2473 148.322 82.3501 148.322 83.7013C148.322 85.0525 147.21 86.1553 145.849 86.1553ZM145.849 82.8208C145.361 82.8208 144.961 83.2131 144.961 83.7013C144.961 84.1895 145.357 84.5818 145.849 84.5818C146.336 84.5818 146.736 84.1895 146.736 83.7013C146.736 83.2131 146.336 82.8208 145.849 82.8208Z" fill="#1B381C"/>
<path d="M160.507 59.9547H99.3598C96.2673 59.9547 93.5174 57.8974 92.6652 54.9465L82.2939 19.0216C81.8414 17.4481 82.1489 15.7961 83.1417 14.4885C84.1345 13.1809 85.65 12.4312 87.3017 12.4312H165.686C167 12.4312 168.067 13.4903 168.067 14.7936C168.067 16.0969 167 17.156 165.686 17.156H87.3017C87.1172 17.156 87.0073 17.2519 86.9458 17.3304C86.8843 17.4089 86.8228 17.544 86.8712 17.7183L97.2425 53.6432C97.5105 54.576 98.3802 55.2254 99.3598 55.2254H160.503C161.816 55.2254 162.884 56.2846 162.884 57.5879C162.884 58.8912 161.821 59.9547 160.507 59.9547Z" fill="#1B381C"/>
<path d="M171.731 26.7585H98.8197C97.9411 26.7585 97.2339 26.0524 97.2339 25.185C97.2339 24.3176 97.9455 23.6115 98.8197 23.6115H171.731C172.609 23.6115 173.317 24.3176 173.317 25.185C173.317 26.0524 172.609 26.7585 171.731 26.7585Z" fill="#1B381C"/>
<path d="M166.407 42.1318H105.04C104.161 42.1318 103.454 41.4256 103.454 40.5583C103.454 39.6909 104.166 38.9847 105.04 38.9847H166.407C167.285 38.9847 167.993 39.6909 167.993 40.5583C167.993 41.4256 167.285 42.1318 166.407 42.1318Z" fill="#1B381C"/>
<path d="M177.573 104C177.446 104 177.314 103.983 177.187 103.952C146.31 96.2719 119.659 96.6685 102.738 98.3554C84.3892 100.186 73.2052 103.878 73.0954 103.917C72.2651 104.196 71.3646 103.752 71.0835 102.928C70.8023 102.104 71.2504 101.21 72.0806 100.931C72.5419 100.774 83.638 97.1044 102.307 95.2301C119.501 93.5084 146.586 93.09 177.96 100.897C178.812 101.11 179.326 101.964 179.115 102.806C178.93 103.525 178.285 104 177.573 104Z" fill="#1B381C"/>
</g>
<path d="M51.2467 141.971V149H47.4235V141.971L41.8295 129.468H46.0284L49.4089 137.879L52.7626 129.468H56.9347L51.2467 141.971ZM59.8671 141.528C59.8671 142.896 60.2428 143.983 60.994 144.788C61.7452 145.584 62.7648 145.982 64.0526 145.982C65.3225 145.982 66.3331 145.575 67.0843 144.761C67.8445 143.938 68.2246 142.834 68.2246 141.447C68.2246 140.204 67.8266 139.185 67.0307 138.389C66.2437 137.584 65.251 137.181 64.0526 137.181C62.8184 137.181 61.8123 137.588 61.0342 138.402C60.2562 139.207 59.8671 140.249 59.8671 141.528ZM56.3256 141.555C56.3256 140.517 56.5134 139.534 56.889 138.603C57.2736 137.664 57.8281 136.833 58.5525 136.108C59.2948 135.366 60.131 134.798 61.0611 134.405C61.9912 134.002 62.957 133.801 63.9587 133.801C65.0229 133.801 66.0022 133.98 66.8965 134.338C67.7998 134.686 68.6271 135.214 69.3783 135.92C70.1474 136.663 70.7421 137.521 71.1625 138.496C71.5828 139.462 71.793 140.455 71.793 141.474C71.793 142.601 71.6096 143.63 71.243 144.56C70.8763 145.49 70.3263 146.33 69.5929 147.082C68.8596 147.842 68.0234 148.419 67.0843 148.812C66.1453 149.197 65.1258 149.389 64.0258 149.389C62.9168 149.389 61.9062 149.192 60.994 148.799C60.0818 148.405 59.2501 147.815 58.4988 147.028C57.7834 146.259 57.2423 145.414 56.8756 144.493C56.5089 143.562 56.3256 142.583 56.3256 141.555ZM84.5854 149V147.404C84.0846 148.074 83.5077 148.575 82.8549 148.906C82.211 149.228 81.4731 149.389 80.6414 149.389C78.7902 149.389 77.3682 148.821 76.3755 147.685C75.3828 146.55 74.8864 144.917 74.8864 142.789V134.244H78.3609V140.871C78.3609 142.865 78.5889 144.229 79.045 144.962C79.5012 145.695 80.2882 146.062 81.4061 146.062C82.5508 146.062 83.3691 145.651 83.861 144.828C84.3618 144.005 84.6122 142.61 84.6122 140.643V134.244H87.9928V149H84.5854ZM98.9205 137.235C97.588 137.342 96.6579 137.691 96.1302 138.282C95.6026 138.872 95.3388 139.936 95.3388 141.474V149H91.9045V134.244H95.1241V135.947C95.6428 135.286 96.2107 134.803 96.8278 134.499C97.4449 134.185 98.1425 134.029 98.9205 134.029V137.235ZM128.798 135.263H124.13C123.575 134.512 122.913 133.948 122.144 133.573C121.384 133.197 120.517 133.009 119.542 133.009C118.755 133.009 118.008 133.157 117.302 133.452C116.595 133.747 115.969 134.177 115.423 134.74C114.842 135.33 114.391 136.014 114.069 136.792C113.756 137.562 113.599 138.353 113.599 139.167C113.599 140.956 114.171 142.458 115.316 143.674C116.47 144.882 117.878 145.485 119.542 145.485C120.499 145.485 121.357 145.306 122.118 144.949C122.887 144.591 123.508 144.072 123.982 143.393H128.664C127.752 145.387 126.535 146.885 125.015 147.887C123.495 148.888 121.679 149.389 119.569 149.389C118.102 149.389 116.747 149.107 115.504 148.544C114.27 147.98 113.161 147.144 112.177 146.035C111.345 145.114 110.715 144.068 110.286 142.896C109.856 141.716 109.642 140.455 109.642 139.113C109.642 137.754 109.901 136.466 110.42 135.25C110.938 134.025 111.699 132.911 112.7 131.909C113.648 130.979 114.699 130.277 115.853 129.803C117.015 129.32 118.263 129.079 119.596 129.079C121.733 129.079 123.557 129.589 125.069 130.608C126.589 131.628 127.832 133.179 128.798 135.263ZM134.655 141.501C134.655 142.744 135.066 143.786 135.889 144.627C136.721 145.458 137.732 145.874 138.921 145.874C140.003 145.874 140.956 145.454 141.778 144.613C142.601 143.773 143.013 142.789 143.013 141.662C143.013 140.464 142.597 139.435 141.765 138.577C140.942 137.709 139.976 137.275 138.867 137.275C137.705 137.275 136.712 137.687 135.889 138.51C135.066 139.323 134.655 140.321 134.655 141.501ZM143.402 149V147.189C142.99 147.922 142.409 148.463 141.658 148.812C140.915 149.161 139.963 149.335 138.8 149.335C136.618 149.335 134.794 148.593 133.327 147.108C131.869 145.615 131.14 143.764 131.14 141.555C131.14 140.517 131.324 139.534 131.69 138.603C132.057 137.673 132.58 136.855 133.26 136.149C133.993 135.37 134.807 134.798 135.701 134.431C136.596 134.056 137.602 133.868 138.72 133.868C139.793 133.868 140.714 134.047 141.483 134.405C142.261 134.762 142.887 135.303 143.361 136.028V134.244H146.715V149H143.402ZM157.656 137.235C156.324 137.342 155.394 137.691 154.866 138.282C154.338 138.872 154.074 139.936 154.074 141.474V149H150.64V134.244H153.86V135.947C154.379 135.286 154.946 134.803 155.564 134.499C156.181 134.185 156.878 134.029 157.656 134.029V137.235ZM162.145 149V137.302H159.891V134.244H162.145V129.468H165.579V134.244H167.846V137.302H165.579V149H162.145ZM179.681 149V129.468H183.504V149H179.681ZM189.938 144.104V144.305C189.938 144.958 190.103 145.49 190.434 145.901C190.765 146.304 191.194 146.505 191.722 146.505C192.223 146.505 192.63 146.353 192.943 146.049C193.265 145.745 193.426 145.356 193.426 144.882C193.426 144.443 193.309 144.086 193.077 143.808C192.844 143.522 192.428 143.236 191.829 142.95C191.489 142.798 190.989 142.588 190.327 142.319C189.665 142.051 189.24 141.841 189.052 141.689C188.507 141.242 188.104 140.745 187.845 140.2C187.586 139.645 187.456 139.015 187.456 138.308C187.456 137.065 187.89 136.014 188.757 135.156C189.634 134.297 190.693 133.868 191.937 133.868C193.251 133.868 194.289 134.248 195.049 135.008C195.818 135.768 196.238 136.833 196.31 138.201H193.224V138.121C193.224 137.647 193.099 137.275 192.849 137.007C192.607 136.739 192.267 136.605 191.829 136.605C191.445 136.605 191.123 136.739 190.863 137.007C190.613 137.266 190.488 137.593 190.488 137.986C190.488 138.63 191.15 139.229 192.473 139.784C192.822 139.927 193.09 140.039 193.278 140.119C194.548 140.692 195.416 141.309 195.881 141.971C196.346 142.623 196.578 143.509 196.578 144.627C196.578 146.004 196.113 147.144 195.183 148.048C194.253 148.942 193.081 149.389 191.668 149.389C190.246 149.389 189.097 148.915 188.221 147.967C187.353 147.019 186.879 145.736 186.799 144.117L189.938 144.104ZM94.8773 182H84.3332V162.468H94.8773V165.902H88.1162V170.356H94.8773V173.736H88.1162V178.566H94.8773V182ZM102.371 167.244V168.92C102.872 168.25 103.444 167.753 104.088 167.431C104.741 167.109 105.483 166.948 106.315 166.948C107.504 166.948 108.519 167.159 109.36 167.579C110.21 167.999 110.938 168.657 111.547 169.551C112.128 168.675 112.781 168.022 113.505 167.592C114.23 167.163 115.03 166.948 115.906 166.948C117.713 166.948 119.099 167.516 120.065 168.652C121.031 169.788 121.514 171.416 121.514 173.535V182H118.133V175.467C118.133 173.464 117.91 172.104 117.463 171.389C117.024 170.664 116.26 170.302 115.169 170.302C114.033 170.302 113.219 170.709 112.727 171.523C112.244 172.328 112.003 173.714 112.003 175.682V182H108.595V175.467C108.595 173.473 108.367 172.113 107.911 171.389C107.464 170.664 106.677 170.302 105.55 170.302C104.405 170.302 103.583 170.709 103.082 171.523C102.581 172.328 102.331 173.714 102.331 175.682V182H99.0171V167.244H102.371ZM128.82 174.555C128.82 175.816 129.227 176.871 130.04 177.721C130.854 178.561 131.86 178.982 133.059 178.982C134.239 178.982 135.245 178.552 136.077 177.694C136.918 176.835 137.338 175.807 137.338 174.608C137.338 173.365 136.918 172.332 136.077 171.51C135.236 170.687 134.177 170.275 132.898 170.275C131.771 170.275 130.809 170.691 130.014 171.523C129.218 172.346 128.82 173.356 128.82 174.555ZM128.685 180.819V186.776H125.305V167.244H128.685V168.478C129.374 167.932 130.094 167.53 130.845 167.27C131.596 167.002 132.406 166.868 133.273 166.868C134.203 166.868 135.08 167.016 135.903 167.311C136.725 167.597 137.463 168.026 138.116 168.599C139.001 169.368 139.681 170.275 140.155 171.322C140.638 172.368 140.88 173.482 140.88 174.662C140.88 175.762 140.66 176.813 140.222 177.815C139.793 178.816 139.18 179.679 138.384 180.404C137.705 181.048 136.927 181.539 136.05 181.879C135.183 182.219 134.266 182.389 133.3 182.389C132.361 182.389 131.516 182.259 130.765 182C130.022 181.75 129.329 181.356 128.685 180.819ZM145.341 182V170.302H143.088V167.244H145.341V162.468H148.776V167.244H151.043V170.302H148.776V182H145.341ZM151.896 167.244H155.531L159.126 177.546L163.084 167.244H166.679L158.711 186.776H155.169L157.235 181.584L151.896 167.244Z" fill="#1B381C"/>
<path opacity="0.8" d="M25.0791 212H24.1016V203.024H22.1123V202.047H27.0684V203.024H25.0791V212ZM27.766 202.047H28.7162V205.362C28.9942 205.021 29.3269 204.763 29.7143 204.59C30.1062 204.417 30.5437 204.33 31.0268 204.33C32.084 204.33 32.8542 204.633 33.3373 205.239C33.8204 205.841 34.0619 206.821 34.0619 208.179V212H33.1117V208.165C33.1117 207.076 32.9477 206.319 32.6195 205.896C32.2914 205.467 31.7423 205.253 30.9721 205.253C30.5346 205.253 30.1495 205.342 29.8168 205.52C29.4887 205.693 29.2289 205.943 29.0375 206.271C28.919 206.477 28.8347 206.711 28.7846 206.976C28.739 207.235 28.7162 207.691 28.7162 208.343V212H27.766V202.047ZM42.826 208.541H36.0379C36.0971 209.361 36.3934 210.024 36.9266 210.53C37.4598 211.036 38.1251 211.289 38.9227 211.289C39.4878 211.289 39.9959 211.143 40.4471 210.852C40.8982 210.555 41.2469 210.145 41.493 209.621H42.5867C42.2404 210.455 41.7527 211.095 41.1238 211.542C40.4995 211.989 39.7749 212.212 38.95 212.212C37.8563 212.212 36.9311 211.822 36.1746 211.043C35.4181 210.264 35.0398 209.327 35.0398 208.233C35.0398 207.09 35.409 206.144 36.1473 205.396C36.8901 204.649 37.838 204.275 38.991 204.275C40.1212 204.275 41.0418 204.665 41.7527 205.444C42.4682 206.219 42.826 207.229 42.826 208.473V208.541ZM41.7596 207.728C41.5773 206.884 41.2423 206.251 40.7547 205.827C40.2671 205.399 39.6313 205.185 38.8475 205.185C38.1183 205.185 37.5008 205.415 36.9949 205.875C36.4891 206.331 36.1792 206.948 36.0652 207.728H41.7596ZM53.942 208.315C53.942 207.459 53.6572 206.727 53.0875 206.121C52.5224 205.515 51.857 205.212 51.0914 205.212C50.2984 205.212 49.6194 205.501 49.0543 206.08C48.4892 206.654 48.2066 207.358 48.2066 208.192C48.2066 209.072 48.4892 209.81 49.0543 210.407C49.624 211.004 50.3121 211.303 51.1188 211.303C51.8616 211.303 52.5178 211.004 53.0875 210.407C53.6572 209.81 53.942 209.113 53.942 208.315ZM53.9146 205.67V203.995V202.047H54.8854V212H53.9146V210.865C53.5774 211.285 53.1581 211.613 52.6568 211.85C52.1555 212.082 51.6246 212.198 51.0641 212.198C49.9794 212.198 49.0657 211.815 48.3229 211.05C47.58 210.284 47.2086 209.345 47.2086 208.233C47.2086 207.131 47.5755 206.203 48.3092 205.451C49.0429 204.695 49.9612 204.316 51.0641 204.316C51.6565 204.316 52.1943 204.433 52.6773 204.665C53.165 204.893 53.5774 205.228 53.9146 205.67ZM57.2236 212H56.2461V204.48H57.1553V205.349C57.3923 205.016 57.6497 204.772 57.9277 204.617C58.2103 204.462 58.5384 204.38 58.9121 204.371L58.9189 205.417C58.3128 205.472 57.8776 205.654 57.6133 205.964C57.3535 206.269 57.2236 206.768 57.2236 207.461V212ZM66.9857 208.541H60.1977C60.2569 209.361 60.5531 210.024 61.0863 210.53C61.6195 211.036 62.2849 211.289 63.0824 211.289C63.6475 211.289 64.1557 211.143 64.6068 210.852C65.058 210.555 65.4066 210.145 65.6527 209.621H66.7465C66.4001 210.455 65.9125 211.095 65.2836 211.542C64.6592 211.989 63.9346 212.212 63.1098 212.212C62.016 212.212 61.0909 211.822 60.3344 211.043C59.5779 210.264 59.1996 209.327 59.1996 208.233C59.1996 207.09 59.5687 206.144 60.307 205.396C61.0499 204.649 61.9978 204.275 63.1508 204.275C64.281 204.275 65.2016 204.665 65.9125 205.444C66.628 206.219 66.9857 207.229 66.9857 208.473V208.541ZM65.9193 207.728C65.737 206.884 65.4021 206.251 64.9145 205.827C64.4268 205.399 63.7911 205.185 63.0072 205.185C62.2781 205.185 61.6605 205.415 61.1547 205.875C60.6488 206.331 60.3389 206.948 60.225 207.728H65.9193ZM67.4715 209.635H68.4627V209.662C68.4627 210.132 68.5971 210.521 68.866 210.831C69.1349 211.136 69.4676 211.289 69.8641 211.289C70.2423 211.289 70.5568 211.171 70.8074 210.934C71.0581 210.697 71.1834 210.398 71.1834 210.038C71.1834 209.678 71.0831 209.389 70.8826 209.17C70.6867 208.951 70.3289 208.746 69.8094 208.555C68.9754 208.258 68.4308 207.955 68.1756 207.646C67.9204 207.336 67.7928 206.921 67.7928 206.401C67.7928 205.813 68.0047 205.314 68.4285 204.904C68.8569 204.494 69.3742 204.289 69.9803 204.289C70.6228 204.289 71.1333 204.471 71.5115 204.836C71.8898 205.201 72.0926 205.709 72.1199 206.36H71.0877C71.0649 206.005 70.951 205.729 70.7459 205.533C70.5454 205.337 70.2697 205.239 69.9187 205.239C69.6043 205.239 69.3422 205.346 69.1326 205.561C68.923 205.77 68.8182 206.032 68.8182 206.347C68.8182 206.57 68.8615 206.759 68.948 206.914C69.0346 207.064 69.1782 207.201 69.3787 207.324C69.561 207.438 69.8253 207.548 70.1717 207.652C70.5226 207.757 70.7573 207.835 70.8758 207.885C71.3452 208.085 71.6893 208.352 71.908 208.685C72.1313 209.017 72.243 209.441 72.243 209.956C72.243 210.603 72.0174 211.139 71.5662 211.562C71.115 211.986 70.5431 212.198 69.8504 212.198C69.144 212.198 68.5766 211.968 68.1482 211.508C67.7199 211.043 67.4943 210.419 67.4715 209.635ZM72.7766 209.635H73.7678V209.662C73.7678 210.132 73.9022 210.521 74.1711 210.831C74.44 211.136 74.7727 211.289 75.1691 211.289C75.5474 211.289 75.8619 211.171 76.1125 210.934C76.3632 210.697 76.4885 210.398 76.4885 210.038C76.4885 209.678 76.3882 209.389 76.1877 209.17C75.9917 208.951 75.634 208.746 75.1145 208.555C74.2805 208.258 73.7359 207.955 73.4807 207.646C73.2255 207.336 73.0979 206.921 73.0979 206.401C73.0979 205.813 73.3098 205.314 73.7336 204.904C74.162 204.494 74.6792 204.289 75.2854 204.289C75.9279 204.289 76.4383 204.471 76.8166 204.836C77.1949 205.201 77.3977 205.709 77.425 206.36H76.3928C76.37 206.005 76.2561 205.729 76.051 205.533C75.8505 205.337 75.5747 205.239 75.2238 205.239C74.9094 205.239 74.6473 205.346 74.4377 205.561C74.2281 205.77 74.1232 206.032 74.1232 206.347C74.1232 206.57 74.1665 206.759 74.2531 206.914C74.3397 207.064 74.4833 207.201 74.6838 207.324C74.8661 207.438 75.1304 207.548 75.4768 207.652C75.8277 207.757 76.0624 207.835 76.1809 207.885C76.6503 208.085 76.9943 208.352 77.2131 208.685C77.4364 209.017 77.548 209.441 77.548 209.956C77.548 210.603 77.3225 211.139 76.8713 211.562C76.4201 211.986 75.8482 212.198 75.1555 212.198C74.4491 212.198 73.8817 211.968 73.4533 211.508C73.0249 211.043 72.7994 210.419 72.7766 209.635ZM83.3389 203.599H82.375V202.047H83.3389V203.599ZM82.375 212V204.48H83.3389V212H82.375ZM84.2758 209.635H85.267V209.662C85.267 210.132 85.4014 210.521 85.6703 210.831C85.9392 211.136 86.2719 211.289 86.6684 211.289C87.0466 211.289 87.3611 211.171 87.6117 210.934C87.8624 210.697 87.9877 210.398 87.9877 210.038C87.9877 209.678 87.8874 209.389 87.6869 209.17C87.4909 208.951 87.1332 208.746 86.6137 208.555C85.7797 208.258 85.2351 207.955 84.9799 207.646C84.7247 207.336 84.5971 206.921 84.5971 206.401C84.5971 205.813 84.809 205.314 85.2328 204.904C85.6612 204.494 86.1784 204.289 86.7846 204.289C87.4271 204.289 87.9376 204.471 88.3158 204.836C88.6941 205.201 88.8969 205.709 88.9242 206.36H87.892C87.8692 206.005 87.7553 205.729 87.5502 205.533C87.3497 205.337 87.074 205.239 86.723 205.239C86.4086 205.239 86.1465 205.346 85.9369 205.561C85.7273 205.77 85.6225 206.032 85.6225 206.347C85.6225 206.57 85.6658 206.759 85.7523 206.914C85.8389 207.064 85.9825 207.201 86.183 207.324C86.3653 207.438 86.6296 207.548 86.976 207.652C87.3269 207.757 87.5616 207.835 87.6801 207.885C88.1495 208.085 88.4936 208.352 88.7123 208.685C88.9356 209.017 89.0473 209.441 89.0473 209.956C89.0473 210.603 88.8217 211.139 88.3705 211.562C87.9193 211.986 87.3474 212.198 86.6547 212.198C85.9483 212.198 85.3809 211.968 84.9525 211.508C84.5242 211.043 84.2986 210.419 84.2758 209.635ZM95.1457 212.615C95.2915 213.053 95.5559 213.392 95.9387 213.634C96.3215 213.88 96.7863 214.003 97.3332 214.003C98.19 214.003 98.8758 213.718 99.3908 213.148C99.9104 212.579 100.17 211.818 100.17 210.865V210.667C99.8055 211.164 99.3908 211.54 98.926 211.795C98.4611 212.046 97.9484 212.171 97.3879 212.171C96.2577 212.171 95.3189 211.795 94.5715 211.043C93.8241 210.286 93.4504 209.345 93.4504 208.22C93.4504 207.112 93.8195 206.183 94.5578 205.431C95.2961 204.679 96.2098 204.303 97.299 204.303C97.9325 204.303 98.4794 204.417 98.9397 204.645C99.4045 204.872 99.8147 205.228 100.17 205.711V204.48H101.113V210.756C101.113 212.068 100.783 213.094 100.122 213.832C99.466 214.57 98.5591 214.939 97.4016 214.939C96.5494 214.939 95.8179 214.728 95.2072 214.304C94.5966 213.884 94.2023 213.322 94.0246 212.615H95.1457ZM94.4758 208.179C94.4758 209.058 94.7538 209.794 95.3098 210.387C95.8703 210.979 96.5448 211.275 97.3332 211.275C98.076 211.275 98.7323 210.979 99.302 210.387C99.8716 209.79 100.156 209.09 100.156 208.288C100.156 207.431 99.8762 206.7 99.3156 206.094C98.7551 205.488 98.0943 205.185 97.3332 205.185C96.5494 205.185 95.8772 205.474 95.3166 206.053C94.7561 206.627 94.4758 207.336 94.4758 208.179ZM103.424 212H102.447V204.48H103.356V205.349C103.593 205.016 103.851 204.772 104.129 204.617C104.411 204.462 104.739 204.38 105.113 204.371L105.12 205.417C104.514 205.472 104.078 205.654 103.814 205.964C103.554 206.269 103.424 206.768 103.424 207.461V212ZM113.187 208.541H106.398C106.458 209.361 106.754 210.024 107.287 210.53C107.82 211.036 108.486 211.289 109.283 211.289C109.848 211.289 110.356 211.143 110.808 210.852C111.259 210.555 111.607 210.145 111.854 209.621H112.947C112.601 210.455 112.113 211.095 111.484 211.542C110.86 211.989 110.135 212.212 109.311 212.212C108.217 212.212 107.292 211.822 106.535 211.043C105.779 210.264 105.4 209.327 105.4 208.233C105.4 207.09 105.77 206.144 106.508 205.396C107.251 204.649 108.199 204.275 109.352 204.275C110.482 204.275 111.402 204.665 112.113 205.444C112.829 206.219 113.187 207.229 113.187 208.473V208.541ZM112.12 207.728C111.938 206.884 111.603 206.251 111.115 205.827C110.628 205.399 109.992 205.185 109.208 205.185C108.479 205.185 107.861 205.415 107.355 205.875C106.85 206.331 106.54 206.948 106.426 207.728H112.12ZM120.501 208.192C120.501 207.395 120.217 206.7 119.647 206.107C119.077 205.51 118.421 205.212 117.678 205.212C116.871 205.212 116.183 205.51 115.614 206.107C115.049 206.7 114.766 207.436 114.766 208.315C114.766 209.154 115.049 209.863 115.614 210.441C116.179 211.016 116.858 211.303 117.651 211.303C118.416 211.303 119.082 211 119.647 210.394C120.217 209.783 120.501 209.049 120.501 208.192ZM120.501 210.811C120.201 211.243 119.793 211.583 119.278 211.829C118.767 212.075 118.216 212.198 117.623 212.198C116.521 212.198 115.602 211.822 114.869 211.07C114.135 210.314 113.768 209.382 113.768 208.274C113.768 207.149 114.142 206.208 114.889 205.451C115.641 204.695 116.58 204.316 117.705 204.316C118.284 204.316 118.815 204.435 119.298 204.672C119.781 204.904 120.182 205.242 120.501 205.684V204.48H121.445V212H120.501V210.811ZM123.475 212V205.451H122.047V204.48H123.475V202.047H124.439V204.48H125.868V205.451H124.439V212H123.475ZM128.22 209.409H127.249V202.047H128.22V209.409ZM128.22 212H127.249V210.182H128.22V212ZM133.115 202.047H134.093L137.244 210.53L140.409 202.047H141.387L137.641 212H136.868L133.115 202.047ZM148.421 208.541H141.633C141.692 209.361 141.989 210.024 142.522 210.53C143.055 211.036 143.72 211.289 144.518 211.289C145.083 211.289 145.591 211.143 146.042 210.852C146.494 210.555 146.842 210.145 147.088 209.621H148.182C147.836 210.455 147.348 211.095 146.719 211.542C146.095 211.989 145.37 212.212 144.545 212.212C143.452 212.212 142.526 211.822 141.77 211.043C141.013 210.264 140.635 209.327 140.635 208.233C140.635 207.09 141.004 206.144 141.743 205.396C142.485 204.649 143.433 204.275 144.586 204.275C145.717 204.275 146.637 204.665 147.348 205.444C148.064 206.219 148.421 207.229 148.421 208.473V208.541ZM147.355 207.728C147.173 206.884 146.838 206.251 146.35 205.827C145.862 205.399 145.227 205.185 144.443 205.185C143.714 205.185 143.096 205.415 142.59 205.875C142.084 206.331 141.774 206.948 141.661 207.728H147.355ZM150.349 212H149.372V204.48H150.281V205.349C150.518 205.016 150.776 204.772 151.054 204.617C151.336 204.462 151.664 204.38 152.038 204.371L152.045 205.417C151.439 205.472 151.003 205.654 150.739 205.964C150.479 206.269 150.349 206.768 150.349 207.461V212ZM152.517 204.48H153.624L155.948 210.585L158.382 204.48H159.503L155.443 214.434H154.41L155.415 211.986L152.517 204.48ZM169.635 206.791C169.339 206.244 168.976 205.841 168.548 205.581C168.124 205.317 167.618 205.185 167.03 205.185C166.256 205.185 165.597 205.479 165.055 206.066C164.517 206.654 164.248 207.381 164.248 208.247C164.248 209.113 164.519 209.838 165.062 210.421C165.604 211 166.274 211.289 167.071 211.289C167.655 211.289 168.17 211.146 168.616 210.858C169.063 210.571 169.402 210.168 169.635 209.648H170.701C170.41 210.464 169.951 211.095 169.327 211.542C168.703 211.989 167.967 212.212 167.119 212.212C166.03 212.212 165.109 211.827 164.357 211.057C163.61 210.282 163.236 209.35 163.236 208.261C163.236 207.149 163.615 206.208 164.371 205.438C165.132 204.663 166.057 204.275 167.146 204.275C167.962 204.275 168.68 204.496 169.3 204.938C169.924 205.376 170.391 205.993 170.701 206.791H169.635ZM171.973 212V202.047H172.937V212H171.973ZM180.703 208.192C180.703 207.395 180.418 206.7 179.848 206.107C179.279 205.51 178.623 205.212 177.88 205.212C177.073 205.212 176.385 205.51 175.815 206.107C175.25 206.7 174.968 207.436 174.968 208.315C174.968 209.154 175.25 209.863 175.815 210.441C176.38 211.016 177.059 211.303 177.852 211.303C178.618 211.303 179.283 211 179.848 210.394C180.418 209.783 180.703 209.049 180.703 208.192ZM180.703 210.811C180.402 211.243 179.994 211.583 179.479 211.829C178.969 212.075 178.417 212.198 177.825 212.198C176.722 212.198 175.804 211.822 175.07 211.07C174.336 210.314 173.97 209.382 173.97 208.274C173.97 207.149 174.343 206.208 175.091 205.451C175.843 204.695 176.781 204.316 177.907 204.316C178.486 204.316 179.017 204.435 179.5 204.672C179.983 204.904 180.384 205.242 180.703 205.684V204.48H181.646V212H180.703V210.811ZM182.542 209.635H183.533V209.662C183.533 210.132 183.668 210.521 183.937 210.831C184.206 211.136 184.538 211.289 184.935 211.289C185.313 211.289 185.627 211.171 185.878 210.934C186.129 210.697 186.254 210.398 186.254 210.038C186.254 209.678 186.154 209.389 185.953 209.17C185.757 208.951 185.4 208.746 184.88 208.555C184.046 208.258 183.502 207.955 183.246 207.646C182.991 207.336 182.863 206.921 182.863 206.401C182.863 205.813 183.075 205.314 183.499 204.904C183.928 204.494 184.445 204.289 185.051 204.289C185.694 204.289 186.204 204.471 186.582 204.836C186.96 205.201 187.163 205.709 187.191 206.36H186.158C186.136 206.005 186.022 205.729 185.817 205.533C185.616 205.337 185.34 205.239 184.989 205.239C184.675 205.239 184.413 205.346 184.203 205.561C183.994 205.77 183.889 206.032 183.889 206.347C183.889 206.57 183.932 206.759 184.019 206.914C184.105 207.064 184.249 207.201 184.449 207.324C184.632 207.438 184.896 207.548 185.242 207.652C185.593 207.757 185.828 207.835 185.946 207.885C186.416 208.085 186.76 208.352 186.979 208.685C187.202 209.017 187.314 209.441 187.314 209.956C187.314 210.603 187.088 211.139 186.637 211.562C186.186 211.986 185.614 212.198 184.921 212.198C184.215 212.198 183.647 211.968 183.219 211.508C182.791 211.043 182.565 210.419 182.542 209.635ZM187.847 209.635H188.838V209.662C188.838 210.132 188.973 210.521 189.242 210.831C189.511 211.136 189.843 211.289 190.24 211.289C190.618 211.289 190.933 211.171 191.183 210.934C191.434 210.697 191.559 210.398 191.559 210.038C191.559 209.678 191.459 209.389 191.258 209.17C191.062 208.951 190.705 208.746 190.185 208.555C189.351 208.258 188.807 207.955 188.551 207.646C188.296 207.336 188.169 206.921 188.169 206.401C188.169 205.813 188.38 205.314 188.804 204.904C189.233 204.494 189.75 204.289 190.356 204.289C190.999 204.289 191.509 204.471 191.887 204.836C192.266 205.201 192.468 205.709 192.496 206.36H191.463C191.441 206.005 191.327 205.729 191.122 205.533C190.921 205.337 190.645 205.239 190.295 205.239C189.98 205.239 189.718 205.346 189.508 205.561C189.299 205.77 189.194 206.032 189.194 206.347C189.194 206.57 189.237 206.759 189.324 206.914C189.41 207.064 189.554 207.201 189.754 207.324C189.937 207.438 190.201 207.548 190.547 207.652C190.898 207.757 191.133 207.835 191.252 207.885C191.721 208.085 192.065 208.352 192.284 208.685C192.507 209.017 192.619 209.441 192.619 209.956C192.619 210.603 192.393 211.139 191.942 211.562C191.491 211.986 190.919 212.198 190.226 212.198C189.52 212.198 188.952 211.968 188.524 211.508C188.096 211.043 187.87 210.419 187.847 209.635ZM192.633 204.48H193.74L196.064 210.585L198.498 204.48H199.619L195.559 214.434H194.526L195.531 211.986L192.633 204.48ZM210.086 208.192C210.086 207.395 209.801 206.7 209.231 206.107C208.662 205.51 208.005 205.212 207.262 205.212C206.456 205.212 205.768 205.51 205.198 206.107C204.633 206.7 204.35 207.436 204.35 208.315C204.35 209.154 204.633 209.863 205.198 210.441C205.763 211.016 206.442 211.303 207.235 211.303C208.001 211.303 208.666 211 209.231 210.394C209.801 209.783 210.086 209.049 210.086 208.192ZM210.086 210.811C209.785 211.243 209.377 211.583 208.862 211.829C208.352 212.075 207.8 212.198 207.208 212.198C206.105 212.198 205.187 211.822 204.453 211.07C203.719 210.314 203.352 209.382 203.352 208.274C203.352 207.149 203.726 206.208 204.473 205.451C205.225 204.695 206.164 204.316 207.29 204.316C207.869 204.316 208.4 204.435 208.883 204.672C209.366 204.904 209.767 205.242 210.086 205.684V204.48H211.029V212H210.086V210.811ZM212.404 204.48H213.34V205.335C213.636 204.993 213.978 204.74 214.365 204.576C214.757 204.412 215.204 204.33 215.705 204.33C216.257 204.33 216.747 204.433 217.175 204.638C217.608 204.843 217.95 205.137 218.2 205.52C218.374 205.788 218.497 206.105 218.57 206.47C218.647 206.83 218.686 207.363 218.686 208.069V212H217.736V207.789C217.736 206.9 217.565 206.256 217.223 205.854C216.886 205.453 216.343 205.253 215.596 205.253C215.158 205.253 214.773 205.342 214.441 205.52C214.113 205.693 213.853 205.943 213.661 206.271C213.543 206.477 213.459 206.711 213.408 206.976C213.363 207.235 213.34 207.691 213.34 208.343V212H212.404V204.48ZM226.424 208.315C226.424 207.459 226.14 206.727 225.57 206.121C225.005 205.515 224.339 205.212 223.574 205.212C222.781 205.212 222.102 205.501 221.537 206.08C220.972 206.654 220.689 207.358 220.689 208.192C220.689 209.072 220.972 209.81 221.537 210.407C222.106 211.004 222.795 211.303 223.601 211.303C224.344 211.303 225 211.004 225.57 210.407C226.14 209.81 226.424 209.113 226.424 208.315ZM226.397 205.67V203.995V202.047H227.368V212H226.397V210.865C226.06 211.285 225.641 211.613 225.139 211.85C224.638 212.082 224.107 212.198 223.546 212.198C222.462 212.198 221.548 211.815 220.805 211.05C220.062 210.284 219.691 209.345 219.691 208.233C219.691 207.131 220.058 206.203 220.792 205.451C221.525 204.695 222.444 204.316 223.546 204.316C224.139 204.316 224.677 204.433 225.16 204.665C225.647 204.893 226.06 205.228 226.397 205.67ZM11.768 229.791C11.4717 229.244 11.1094 228.841 10.6811 228.581C10.2572 228.317 9.75137 228.185 9.16348 228.185C8.38874 228.185 7.73021 228.479 7.18789 229.066C6.65013 229.654 6.38125 230.381 6.38125 231.247C6.38125 232.113 6.65241 232.838 7.19473 233.421C7.73704 234 8.40696 234.289 9.20449 234.289C9.78782 234.289 10.3028 234.146 10.7494 233.858C11.196 233.571 11.5355 233.168 11.768 232.648H12.8344C12.5427 233.464 12.0847 234.095 11.4604 234.542C10.836 234.989 10.1 235.212 9.25234 235.212C8.16315 235.212 7.24258 234.827 6.49062 234.057C5.74323 233.282 5.36953 232.35 5.36953 231.261C5.36953 230.149 5.74778 229.208 6.5043 228.438C7.26536 227.663 8.19049 227.275 9.27969 227.275C10.0954 227.275 10.8132 227.496 11.433 227.938C12.0574 228.376 12.5245 228.993 12.8344 229.791H11.768ZM14.6941 231.233C14.6941 232.099 14.9699 232.826 15.5213 233.414C16.0727 233.997 16.7586 234.289 17.5789 234.289C18.3855 234.289 19.0623 233.997 19.6092 233.414C20.1561 232.826 20.4295 232.095 20.4295 231.22C20.4295 230.331 20.1515 229.602 19.5955 229.032C19.0441 228.458 18.3423 228.171 17.49 228.171C16.7244 228.171 16.0659 228.465 15.5145 229.053C14.9676 229.641 14.6941 230.368 14.6941 231.233ZM13.6824 231.247C13.6824 230.144 14.0607 229.201 14.8172 228.417C15.5737 227.633 16.4692 227.241 17.5037 227.241C18.5929 227.241 19.5203 227.626 20.2859 228.396C21.0561 229.167 21.4412 230.085 21.4412 231.151C21.4412 232.272 21.0652 233.229 20.3133 234.022C19.5613 234.815 18.6499 235.212 17.5789 235.212C16.4897 235.212 15.5669 234.825 14.8104 234.05C14.0584 233.271 13.6824 232.336 13.6824 231.247ZM28.3391 228.656C28.6444 228.223 29.0227 227.895 29.4738 227.672C29.9296 227.444 30.4377 227.33 30.9982 227.33C32.0191 227.33 32.7619 227.638 33.2268 228.253C33.6916 228.864 33.924 229.848 33.924 231.206V235H33.0012V231.008C33.0012 230.014 32.8371 229.308 32.509 228.889C32.1809 228.465 31.6454 228.253 30.9025 228.253C30.4742 228.253 30.0959 228.342 29.7678 228.52C29.4442 228.693 29.1867 228.943 28.9953 229.271C28.8814 229.477 28.7993 229.711 28.7492 229.976C28.6991 230.235 28.674 230.691 28.674 231.343V235H27.7648V230.789C27.7648 229.923 27.5894 229.285 27.2385 228.875C26.8876 228.46 26.3498 228.253 25.6252 228.253C25.1877 228.253 24.8026 228.342 24.4699 228.52C24.1418 228.693 23.882 228.943 23.6906 229.271C23.5721 229.477 23.4878 229.711 23.4377 229.976C23.3921 230.235 23.3693 230.691 23.3693 231.343V235H22.4191V227.48H23.3693V228.335C23.6564 228.002 23.9937 227.752 24.3811 227.583C24.773 227.414 25.215 227.33 25.7072 227.33C26.2769 227.33 26.7964 227.451 27.2658 227.692C27.7352 227.929 28.093 228.251 28.3391 228.656ZM36.6656 235H35.7291V228.321H34.7242V227.48H35.6881V227.275C35.6881 226.478 35.8886 225.888 36.2896 225.505C36.6952 225.122 37.315 224.931 38.149 224.931H38.2379V225.799C37.6591 225.808 37.249 225.924 37.0074 226.147C36.7704 226.366 36.652 226.742 36.652 227.275V227.48H38.2379V228.321H36.6656V235ZM39.6328 231.233C39.6328 232.099 39.9085 232.826 40.46 233.414C41.0114 233.997 41.6973 234.289 42.5176 234.289C43.3242 234.289 44.001 233.997 44.5479 233.414C45.0947 232.826 45.3682 232.095 45.3682 231.22C45.3682 230.331 45.0902 229.602 44.5342 229.032C43.9827 228.458 43.2809 228.171 42.4287 228.171C41.6631 228.171 41.0046 228.465 40.4531 229.053C39.9062 229.641 39.6328 230.368 39.6328 231.233ZM38.6211 231.247C38.6211 230.144 38.9993 229.201 39.7559 228.417C40.5124 227.633 41.4079 227.241 42.4424 227.241C43.5316 227.241 44.459 227.626 45.2246 228.396C45.9948 229.167 46.3799 230.085 46.3799 231.151C46.3799 232.272 46.0039 233.229 45.252 234.022C44.5 234.815 43.5885 235.212 42.5176 235.212C41.4284 235.212 40.5055 234.825 39.749 234.05C38.9971 233.271 38.6211 232.336 38.6211 231.247ZM48.3354 235H47.3578V227.48H48.267V228.349C48.504 228.016 48.7615 227.772 49.0395 227.617C49.322 227.462 49.6501 227.38 50.0238 227.371L50.0307 228.417C49.4245 228.472 48.9893 228.654 48.725 228.964C48.4652 229.269 48.3354 229.768 48.3354 230.461V235ZM51.3777 235V228.451H49.949V227.48H51.3777V225.047H52.3416V227.48H53.7703V228.451H52.3416V235H51.3777ZM60.7502 231.192C60.7502 230.395 60.4654 229.7 59.8957 229.107C59.326 228.51 58.6698 228.212 57.927 228.212C57.1203 228.212 56.4322 228.51 55.8625 229.107C55.2974 229.7 55.0148 230.436 55.0148 231.315C55.0148 232.154 55.2974 232.863 55.8625 233.441C56.4276 234.016 57.1066 234.303 57.8996 234.303C58.6652 234.303 59.3306 234 59.8957 233.394C60.4654 232.783 60.7502 232.049 60.7502 231.192ZM60.7502 233.811C60.4494 234.243 60.0415 234.583 59.5266 234.829C59.0161 235.075 58.4647 235.198 57.8723 235.198C56.7694 235.198 55.8511 234.822 55.1174 234.07C54.3837 233.314 54.0168 232.382 54.0168 231.274C54.0168 230.149 54.3905 229.208 55.1379 228.451C55.8898 227.695 56.8286 227.316 57.9543 227.316C58.5331 227.316 59.064 227.435 59.5471 227.672C60.0301 227.904 60.4312 228.242 60.7502 228.684V227.48H61.6936V235H60.7502V233.811ZM63.9908 225.047V228.185V228.745C64.3964 228.257 64.8408 227.897 65.3238 227.665C65.8069 227.433 66.3469 227.316 66.9439 227.316C68.0012 227.316 68.8945 227.697 69.6236 228.458C70.3574 229.219 70.7242 230.144 70.7242 231.233C70.7242 232.359 70.3505 233.302 69.6031 234.063C68.8557 234.82 67.9169 235.198 66.7867 235.198C66.2307 235.198 65.7203 235.089 65.2555 234.87C64.7952 234.647 64.3736 234.312 63.9908 233.865V235H63.0406V225.047H63.9908ZM63.9908 231.315C63.9908 232.118 64.2734 232.817 64.8385 233.414C65.4081 234.007 66.0621 234.303 66.8004 234.303C67.607 234.303 68.2929 234.004 68.858 233.407C69.4277 232.81 69.7125 232.072 69.7125 231.192C69.7125 230.358 69.4299 229.654 68.8648 229.08C68.2997 228.501 67.623 228.212 66.8346 228.212C66.0462 228.212 65.374 228.513 64.818 229.114C64.2665 229.716 63.9908 230.45 63.9908 231.315ZM71.75 235V225.047H72.7139V235H71.75ZM81.5053 231.541H74.7172C74.7764 232.361 75.0727 233.024 75.6059 233.53C76.1391 234.036 76.8044 234.289 77.602 234.289C78.1671 234.289 78.6752 234.143 79.1264 233.852C79.5775 233.555 79.9262 233.145 80.1723 232.621H81.266C80.9197 233.455 80.432 234.095 79.8031 234.542C79.1788 234.989 78.4542 235.212 77.6293 235.212C76.5355 235.212 75.6104 234.822 74.8539 234.043C74.0974 233.264 73.7191 232.327 73.7191 231.233C73.7191 230.09 74.0883 229.144 74.8266 228.396C75.5694 227.649 76.5173 227.275 77.6703 227.275C78.8005 227.275 79.7211 227.665 80.432 228.444C81.1475 229.219 81.5053 230.229 81.5053 231.473V231.541ZM80.4389 230.728C80.2566 229.884 79.9216 229.251 79.434 228.827C78.9464 228.399 78.3106 228.185 77.5268 228.185C76.7976 228.185 76.1801 228.415 75.6742 228.875C75.1684 229.331 74.8585 229.948 74.7445 230.728H80.4389ZM83.6521 235H82.6746V233.182H83.6521V235ZM90.6803 235H89.7027V225.047H90.6803V235ZM92.8887 235V228.451H91.46V227.48H92.8887V225.047H93.8525V227.48H95.2812V228.451H93.8525V235H92.8887ZM101.052 235H100.115V228.321H99.1102V227.48H100.074V227.275C100.074 226.478 100.275 225.888 100.676 225.505C101.081 225.122 101.701 224.931 102.535 224.931H102.624V225.799C102.045 225.808 101.635 225.924 101.393 226.147C101.156 226.366 101.038 226.742 101.038 227.275V227.48H102.624V228.321H101.052V235ZM104.395 226.599H103.431V225.047H104.395V226.599ZM103.431 235V227.48H104.395V235H103.431ZM106.466 235V228.451H105.038V227.48H106.466V225.047H107.43V227.48H108.859V228.451H107.43V235H106.466ZM113.262 227.48H114.212V228.711C114.486 228.287 114.875 227.95 115.381 227.699C115.892 227.444 116.434 227.316 117.008 227.316C118.143 227.316 119.082 227.695 119.825 228.451C120.572 229.203 120.946 230.144 120.946 231.274C120.946 232.377 120.577 233.307 119.838 234.063C119.105 234.82 118.186 235.198 117.083 235.198C116.473 235.198 115.921 235.08 115.429 234.843C114.941 234.606 114.536 234.262 114.212 233.811V234.33V235.451V237.434H113.262V227.48ZM114.212 231.192C114.212 232.049 114.495 232.783 115.06 233.394C115.625 234 116.29 234.303 117.056 234.303C117.844 234.303 118.521 234.016 119.086 233.441C119.651 232.863 119.934 232.154 119.934 231.315C119.934 230.436 119.649 229.7 119.079 229.107C118.514 228.51 117.829 228.212 117.022 228.212C116.279 228.212 115.625 228.51 115.06 229.107C114.495 229.704 114.212 230.399 114.212 231.192ZM129.334 231.541H122.546C122.605 232.361 122.901 233.024 123.434 233.53C123.968 234.036 124.633 234.289 125.43 234.289C125.996 234.289 126.504 234.143 126.955 233.852C127.406 233.555 127.755 233.145 128.001 232.621H129.095C128.748 233.455 128.261 234.095 127.632 234.542C127.007 234.989 126.283 235.212 125.458 235.212C124.364 235.212 123.439 234.822 122.682 234.043C121.926 233.264 121.548 232.327 121.548 231.233C121.548 230.09 121.917 229.144 122.655 228.396C123.398 227.649 124.346 227.275 125.499 227.275C126.629 227.275 127.55 227.665 128.261 228.444C128.976 229.219 129.334 230.229 129.334 231.473V231.541ZM128.267 230.728C128.085 229.884 127.75 229.251 127.262 228.827C126.775 228.399 126.139 228.185 125.355 228.185C124.626 228.185 124.009 228.415 123.503 228.875C122.997 229.331 122.687 229.948 122.573 230.728H128.267ZM131.262 235H130.284V227.48H131.194V228.349C131.431 228.016 131.688 227.772 131.966 227.617C132.249 227.462 132.577 227.38 132.95 227.371L132.957 228.417C132.351 228.472 131.916 228.654 131.652 228.964C131.392 229.269 131.262 229.768 131.262 230.461V235ZM135.507 235H134.571V228.321H133.566V227.48H134.53V227.275C134.53 226.478 134.73 225.888 135.131 225.505C135.537 225.122 136.157 224.931 136.991 224.931H137.08V225.799C136.501 225.808 136.091 225.924 135.849 226.147C135.612 226.366 135.494 226.742 135.494 227.275V227.48H137.08V228.321H135.507V235ZM145.249 231.541H138.461C138.52 232.361 138.816 233.024 139.35 233.53C139.883 234.036 140.548 234.289 141.346 234.289C141.911 234.289 142.419 234.143 142.87 233.852C143.321 233.555 143.67 233.145 143.916 232.621H145.01C144.663 233.455 144.176 234.095 143.547 234.542C142.923 234.989 142.198 235.212 141.373 235.212C140.279 235.212 139.354 234.822 138.598 234.043C137.841 233.264 137.463 232.327 137.463 231.233C137.463 230.09 137.832 229.144 138.57 228.396C139.313 227.649 140.261 227.275 141.414 227.275C142.544 227.275 143.465 227.665 144.176 228.444C144.891 229.219 145.249 230.229 145.249 231.473V231.541ZM144.183 230.728C144 229.884 143.665 229.251 143.178 228.827C142.69 228.399 142.054 228.185 141.271 228.185C140.541 228.185 139.924 228.415 139.418 228.875C138.912 229.331 138.602 229.948 138.488 230.728H144.183ZM152.229 229.791C151.933 229.244 151.57 228.841 151.142 228.581C150.718 228.317 150.212 228.185 149.624 228.185C148.85 228.185 148.191 228.479 147.649 229.066C147.111 229.654 146.842 230.381 146.842 231.247C146.842 232.113 147.113 232.838 147.656 233.421C148.198 234 148.868 234.289 149.665 234.289C150.249 234.289 150.764 234.146 151.21 233.858C151.657 233.571 151.996 233.168 152.229 232.648H153.295C153.004 233.464 152.546 234.095 151.921 234.542C151.297 234.989 150.561 235.212 149.713 235.212C148.624 235.212 147.704 234.827 146.952 234.057C146.204 233.282 145.83 232.35 145.83 231.261C145.83 230.149 146.209 229.208 146.965 228.438C147.726 227.663 148.651 227.275 149.741 227.275C150.556 227.275 151.274 227.496 151.894 227.938C152.518 228.376 152.985 228.993 153.295 229.791H152.229ZM155.21 235V228.451H153.781V227.48H155.21V225.047H156.174V227.48H157.602V228.451H156.174V235H155.21ZM158.245 235V225.047H159.209V235H158.245ZM159.627 227.48H160.734L163.058 233.585L165.492 227.48H166.613L162.552 237.434H161.52L162.525 234.986L159.627 227.48ZM168.65 232.409H167.68V225.047H168.65V232.409ZM168.65 235H167.68V233.182H168.65V235ZM175.713 235H174.735V225.047H175.713V235ZM177.853 225.197V228.978H177.162V225.197H177.853ZM185.045 228.656C185.35 228.223 185.728 227.895 186.179 227.672C186.635 227.444 187.143 227.33 187.704 227.33C188.725 227.33 189.467 227.638 189.932 228.253C190.397 228.864 190.629 229.848 190.629 231.206V235H189.707V231.008C189.707 230.014 189.543 229.308 189.214 228.889C188.886 228.465 188.351 228.253 187.608 228.253C187.18 228.253 186.801 228.342 186.473 228.52C186.15 228.693 185.892 228.943 185.701 229.271C185.587 229.477 185.505 229.711 185.455 229.976C185.405 230.235 185.379 230.691 185.379 231.343V235H184.47V230.789C184.47 229.923 184.295 229.285 183.944 228.875C183.593 228.46 183.055 228.253 182.331 228.253C181.893 228.253 181.508 228.342 181.175 228.52C180.847 228.693 180.587 228.943 180.396 229.271C180.278 229.477 180.193 229.711 180.143 229.976C180.098 230.235 180.075 230.691 180.075 231.343V235H179.125V227.48H180.075V228.335C180.362 228.002 180.699 227.752 181.087 227.583C181.478 227.414 181.921 227.33 182.413 227.33C182.982 227.33 183.502 227.451 183.971 227.692C184.441 227.929 184.798 228.251 185.045 228.656ZM195.634 231.979H196.625C196.662 232.626 196.915 233.175 197.384 233.626C197.854 234.077 198.4 234.303 199.025 234.303C199.695 234.303 200.26 234.052 200.72 233.551C201.185 233.045 201.417 232.423 201.417 231.685C201.417 230.937 201.185 230.333 200.72 229.873C200.26 229.408 199.656 229.176 198.909 229.176C198.485 229.176 198.102 229.271 197.76 229.463C197.418 229.65 197.115 229.937 196.851 230.324L196.099 229.976L196.981 225.047H201.472V226.024H197.815L197.316 228.8C197.603 228.595 197.885 228.447 198.163 228.355C198.446 228.26 198.751 228.212 199.079 228.212C200.05 228.212 200.845 228.54 201.465 229.196C202.085 229.853 202.395 230.691 202.395 231.712C202.395 232.678 202.062 233.501 201.397 234.18C200.736 234.859 199.934 235.198 198.991 235.198C198.093 235.198 197.327 234.897 196.694 234.296C196.06 233.69 195.707 232.917 195.634 231.979ZM204.186 225.197V228.978H203.496V225.197H204.186ZM207.612 235H206.518L210.455 226.024H206.101V225.047H211.59V225.942L207.612 235ZM215.699 225.197V228.978H215.002V225.197H215.699ZM213.826 225.197V228.978H213.135V225.197H213.826ZM227.136 231.192C227.136 230.395 226.851 229.7 226.282 229.107C225.712 228.51 225.056 228.212 224.313 228.212C223.506 228.212 222.818 228.51 222.248 229.107C221.683 229.7 221.401 230.436 221.401 231.315C221.401 232.154 221.683 232.863 222.248 233.441C222.814 234.016 223.493 234.303 224.286 234.303C225.051 234.303 225.717 234 226.282 233.394C226.851 232.783 227.136 232.049 227.136 231.192ZM227.136 233.811C226.835 234.243 226.427 234.583 225.913 234.829C225.402 235.075 224.851 235.198 224.258 235.198C223.155 235.198 222.237 234.822 221.503 234.07C220.77 233.314 220.403 232.382 220.403 231.274C220.403 230.149 220.776 229.208 221.524 228.451C222.276 227.695 223.215 227.316 224.34 227.316C224.919 227.316 225.45 227.435 225.933 227.672C226.416 227.904 226.817 228.242 227.136 228.684V227.48H228.079V235H227.136V233.811ZM229.454 227.48H230.39V228.335C230.687 227.993 231.028 227.74 231.416 227.576C231.808 227.412 232.254 227.33 232.756 227.33C233.307 227.33 233.797 227.433 234.225 227.638C234.658 227.843 235 228.137 235.251 228.52C235.424 228.788 235.547 229.105 235.62 229.47C235.697 229.83 235.736 230.363 235.736 231.069V235H234.786V230.789C234.786 229.9 234.615 229.256 234.273 228.854C233.936 228.453 233.394 228.253 232.646 228.253C232.209 228.253 231.824 228.342 231.491 228.52C231.163 228.693 230.903 228.943 230.712 229.271C230.593 229.477 230.509 229.711 230.459 229.976C230.413 230.235 230.39 230.691 230.39 231.343V235H229.454V227.48ZM243.475 231.315C243.475 230.459 243.19 229.727 242.62 229.121C242.055 228.515 241.39 228.212 240.624 228.212C239.831 228.212 239.152 228.501 238.587 229.08C238.022 229.654 237.739 230.358 237.739 231.192C237.739 232.072 238.022 232.81 238.587 233.407C239.157 234.004 239.845 234.303 240.652 234.303C241.394 234.303 242.051 234.004 242.62 233.407C243.19 232.81 243.475 232.113 243.475 231.315ZM243.447 228.67V226.995V225.047H244.418V235H243.447V233.865C243.11 234.285 242.691 234.613 242.19 234.85C241.688 235.082 241.157 235.198 240.597 235.198C239.512 235.198 238.598 234.815 237.856 234.05C237.113 233.284 236.741 232.345 236.741 231.233C236.741 230.131 237.108 229.203 237.842 228.451C238.576 227.695 239.494 227.316 240.597 227.316C241.189 227.316 241.727 227.433 242.21 227.665C242.698 227.893 243.11 228.228 243.447 228.67Z" fill="#222222"/>
<defs>
<clipPath id="clip0_220_128">
<rect width="133" height="104" fill="white" transform="translate(71)"/>
</clipPath>
</defs>
</svg>
