<svg width="249" height="245" viewBox="0 0 249 245" fill="none" xmlns="http://www.w3.org/2000/svg">
<path d="M52.4849 153H48.7288V133.468H52.3508L60.4265 145.944V133.468H64.1693V153H60.6278L52.4849 140.149V153ZM71.0323 145.528C71.0323 146.896 71.408 147.983 72.1592 148.788C72.9104 149.584 73.93 149.982 75.2178 149.982C76.4877 149.982 77.4983 149.575 78.2495 148.761C79.0097 147.938 79.3898 146.834 79.3898 145.447C79.3898 144.204 78.9918 143.185 78.1959 142.389C77.4089 141.584 76.4162 141.181 75.2178 141.181C73.9836 141.181 72.9775 141.588 72.1994 142.402C71.4214 143.207 71.0323 144.249 71.0323 145.528ZM67.4908 145.555C67.4908 144.517 67.6786 143.534 68.0542 142.603C68.4388 141.664 68.9933 140.833 69.7177 140.108C70.46 139.366 71.2962 138.798 72.2263 138.405C73.1564 138.002 74.1222 137.801 75.1239 137.801C76.1881 137.801 77.1674 137.98 78.0617 138.338C78.965 138.686 79.7923 139.214 80.5435 139.92C81.3126 140.663 81.9073 141.521 82.3277 142.496C82.748 143.462 82.9582 144.455 82.9582 145.474C82.9582 146.601 82.7748 147.63 82.4082 148.56C82.0415 149.49 81.4915 150.33 80.7581 151.082C80.0248 151.842 79.1886 152.419 78.2495 152.812C77.3105 153.197 76.291 153.389 75.191 153.389C74.082 153.389 73.0714 153.192 72.1592 152.799C71.247 152.405 70.4153 151.815 69.664 151.028C68.9486 150.259 68.4075 149.414 68.0408 148.493C67.6741 147.562 67.4908 146.583 67.4908 145.555ZM95.3025 153V133.468H99.1258V153H95.3025ZM104.379 153V141.302H102.125V138.244H104.379V133.468H107.813V138.244H110.08V141.302H107.813V153H104.379ZM123.584 143.985C123.289 143.001 122.792 142.255 122.095 141.745C121.406 141.226 120.534 140.967 119.479 140.967C118.567 140.967 117.748 141.244 117.024 141.799C116.299 142.353 115.812 143.082 115.562 143.985H123.584ZM115.441 146.708C115.557 147.773 115.978 148.613 116.702 149.23C117.435 149.839 118.379 150.143 119.532 150.143C120.302 150.143 120.99 149.982 121.598 149.66C122.215 149.338 122.703 148.886 123.061 148.305H126.763C126.137 149.915 125.198 151.167 123.946 152.061C122.703 152.946 121.263 153.389 119.626 153.389C118.526 153.389 117.511 153.197 116.581 152.812C115.66 152.419 114.833 151.842 114.099 151.082C113.402 150.357 112.861 149.521 112.476 148.573C112.092 147.616 111.899 146.637 111.899 145.635C111.899 144.607 112.074 143.641 112.423 142.738C112.78 141.825 113.303 141.007 113.992 140.283C114.743 139.487 115.593 138.874 116.541 138.445C117.489 138.016 118.468 137.801 119.479 137.801C120.758 137.801 121.952 138.092 123.061 138.673C124.17 139.254 125.113 140.073 125.891 141.128C126.365 141.763 126.714 142.474 126.937 143.261C127.17 144.048 127.286 144.951 127.286 145.971C127.286 146.051 127.282 146.176 127.273 146.346C127.264 146.507 127.259 146.628 127.259 146.708H115.441ZM133.827 138.244V139.92C134.328 139.25 134.901 138.753 135.544 138.431C136.197 138.109 136.94 137.948 137.771 137.948C138.961 137.948 139.976 138.159 140.817 138.579C141.666 138.999 142.395 139.657 143.003 140.551C143.584 139.675 144.237 139.022 144.962 138.592C145.686 138.163 146.487 137.948 147.363 137.948C149.17 137.948 150.556 138.516 151.522 139.652C152.487 140.788 152.97 142.416 152.97 144.535V153H149.59V146.467C149.59 144.464 149.366 143.104 148.919 142.389C148.481 141.664 147.716 141.302 146.625 141.302C145.489 141.302 144.676 141.709 144.184 142.523C143.701 143.328 143.459 144.714 143.459 146.682V153H140.052V146.467C140.052 144.473 139.824 143.113 139.368 142.389C138.921 141.664 138.134 141.302 137.007 141.302C135.862 141.302 135.039 141.709 134.538 142.523C134.038 143.328 133.787 144.714 133.787 146.682V153H130.474V138.244H133.827ZM159.243 148.104V148.305C159.243 148.958 159.409 149.49 159.74 149.901C160.07 150.304 160.5 150.505 161.027 150.505C161.528 150.505 161.935 150.353 162.248 150.049C162.57 149.745 162.731 149.356 162.731 148.882C162.731 148.443 162.615 148.086 162.382 147.808C162.15 147.522 161.734 147.236 161.135 146.95C160.795 146.798 160.294 146.588 159.632 146.319C158.97 146.051 158.546 145.841 158.358 145.689C157.812 145.242 157.41 144.745 157.15 144.2C156.891 143.645 156.761 143.015 156.761 142.308C156.761 141.065 157.195 140.014 158.063 139.156C158.939 138.297 159.999 137.868 161.242 137.868C162.557 137.868 163.594 138.248 164.354 139.008C165.123 139.768 165.544 140.833 165.615 142.201H162.53V142.121C162.53 141.647 162.405 141.275 162.154 141.007C161.913 140.739 161.573 140.605 161.135 140.605C160.75 140.605 160.428 140.739 160.169 141.007C159.918 141.266 159.793 141.593 159.793 141.986C159.793 142.63 160.455 143.229 161.779 143.784C162.127 143.927 162.396 144.039 162.583 144.119C163.853 144.692 164.721 145.309 165.186 145.971C165.651 146.623 165.884 147.509 165.884 148.627C165.884 150.004 165.419 151.144 164.488 152.048C163.558 152.942 162.387 153.389 160.974 153.389C159.552 153.389 158.403 152.915 157.526 151.967C156.659 151.019 156.185 149.736 156.104 148.117L159.243 148.104ZM178.362 153V133.468H182.185V153H178.362ZM189.746 138.244V139.92C190.247 139.25 190.819 138.753 191.463 138.431C192.116 138.109 192.858 137.948 193.69 137.948C194.754 137.948 195.68 138.15 196.467 138.552C197.263 138.955 197.925 139.558 198.452 140.363C198.792 140.9 199.033 141.512 199.177 142.201C199.329 142.881 199.405 143.878 199.405 145.193V153H195.97V146.467C195.97 144.49 195.742 143.136 195.286 142.402C194.83 141.669 194.043 141.302 192.925 141.302C191.781 141.302 190.958 141.709 190.457 142.523C189.956 143.328 189.706 144.714 189.706 146.682V153H186.392V138.244H189.746ZM66.0058 186V166.468H76.5499V169.902H69.7888V174.356H76.5499V177.736H69.7888V186H66.0058ZM82.7824 178.501C82.7824 179.744 83.1938 180.786 84.0166 181.627C84.8483 182.458 85.8589 182.874 87.0483 182.874C88.1305 182.874 89.0829 182.454 89.9057 181.613C90.7285 180.773 91.1399 179.789 91.1399 178.662C91.1399 177.464 90.724 176.435 89.8923 175.577C89.0695 174.709 88.1037 174.275 86.9947 174.275C85.8321 174.275 84.8394 174.687 84.0166 175.51C83.1938 176.323 82.7824 177.321 82.7824 178.501ZM91.5289 186V184.189C91.1175 184.922 90.5362 185.463 89.785 185.812C89.0427 186.161 88.0902 186.335 86.9276 186.335C84.7455 186.335 82.921 185.593 81.4543 184.108C79.9966 182.615 79.2677 180.764 79.2677 178.555C79.2677 177.517 79.4511 176.534 79.8177 175.603C80.1844 174.673 80.7076 173.855 81.3873 173.149C82.1206 172.37 82.9345 171.798 83.8288 171.431C84.7231 171.056 85.7292 170.868 86.8471 170.868C87.9203 170.868 88.8415 171.047 89.6106 171.405C90.3887 171.762 91.0147 172.303 91.4887 173.028V171.244H94.8424V186H91.5289ZM105.314 186H102.618L97.0102 171.244H100.672L104.107 181.05L107.648 171.244H111.217L105.314 186ZM115.933 178.528C115.933 179.896 116.309 180.983 117.06 181.788C117.811 182.584 118.831 182.982 120.119 182.982C121.389 182.982 122.399 182.575 123.15 181.761C123.911 180.938 124.291 179.834 124.291 178.447C124.291 177.204 123.893 176.185 123.097 175.389C122.31 174.584 121.317 174.181 120.119 174.181C118.885 174.181 117.878 174.588 117.1 175.402C116.322 176.207 115.933 177.249 115.933 178.528ZM112.392 178.555C112.392 177.517 112.58 176.534 112.955 175.603C113.34 174.664 113.894 173.833 114.619 173.108C115.361 172.366 116.197 171.798 117.127 171.405C118.057 171.002 119.023 170.801 120.025 170.801C121.089 170.801 122.068 170.98 122.963 171.338C123.866 171.686 124.693 172.214 125.444 172.92C126.214 173.663 126.808 174.521 127.229 175.496C127.649 176.462 127.859 177.455 127.859 178.474C127.859 179.601 127.676 180.63 127.309 181.56C126.942 182.49 126.392 183.33 125.659 184.082C124.926 184.842 124.09 185.419 123.15 185.812C122.211 186.197 121.192 186.389 120.092 186.389C118.983 186.389 117.972 186.192 117.06 185.799C116.148 185.405 115.316 184.815 114.565 184.028C113.849 183.259 113.308 182.414 112.942 181.493C112.575 180.562 112.392 179.583 112.392 178.555ZM137.942 174.235C136.609 174.342 135.679 174.691 135.151 175.281C134.624 175.872 134.36 176.936 134.36 178.474V186H130.926V171.244H134.145V172.947C134.664 172.286 135.232 171.803 135.849 171.499C136.466 171.185 137.164 171.029 137.942 171.029V174.235ZM143.718 169.741H140.364V166.468H143.718V169.741ZM140.364 186V171.244H143.718V186H140.364ZM148.877 186V174.302H146.624V171.244H148.877V166.468H152.312V171.244H154.579V174.302H152.312V186H148.877ZM168.082 176.985C167.787 176.001 167.291 175.255 166.593 174.745C165.905 174.226 165.033 173.967 163.977 173.967C163.065 173.967 162.247 174.244 161.522 174.799C160.798 175.353 160.311 176.082 160.06 176.985H168.082ZM159.939 179.708C160.056 180.773 160.476 181.613 161.2 182.23C161.934 182.839 162.877 183.143 164.031 183.143C164.8 183.143 165.489 182.982 166.097 182.66C166.714 182.338 167.201 181.886 167.559 181.305H171.262C170.636 182.915 169.696 184.167 168.444 185.061C167.201 185.946 165.761 186.389 164.125 186.389C163.025 186.389 162.01 186.197 161.08 185.812C160.159 185.419 159.331 184.842 158.598 184.082C157.9 183.357 157.359 182.521 156.975 181.573C156.59 180.616 156.398 179.637 156.398 178.635C156.398 177.607 156.572 176.641 156.921 175.738C157.279 174.825 157.802 174.007 158.491 173.283C159.242 172.487 160.091 171.874 161.039 171.445C161.987 171.016 162.967 170.801 163.977 170.801C165.256 170.801 166.45 171.092 167.559 171.673C168.668 172.254 169.612 173.073 170.39 174.128C170.864 174.763 171.212 175.474 171.436 176.261C171.668 177.048 171.785 177.951 171.785 178.971C171.785 179.051 171.78 179.176 171.771 179.346C171.762 179.507 171.758 179.628 171.758 179.708H159.939ZM177.199 181.104V181.305C177.199 181.958 177.364 182.49 177.695 182.901C178.026 183.304 178.456 183.505 178.983 183.505C179.484 183.505 179.891 183.353 180.204 183.049C180.526 182.745 180.687 182.356 180.687 181.882C180.687 181.443 180.571 181.086 180.338 180.808C180.106 180.522 179.69 180.236 179.09 179.95C178.751 179.798 178.25 179.588 177.588 179.319C176.926 179.051 176.501 178.841 176.314 178.689C175.768 178.242 175.366 177.745 175.106 177.2C174.847 176.645 174.717 176.015 174.717 175.308C174.717 174.065 175.151 173.014 176.018 172.156C176.895 171.297 177.955 170.868 179.198 170.868C180.512 170.868 181.55 171.248 182.31 172.008C183.079 172.768 183.5 173.833 183.571 175.201H180.486V175.121C180.486 174.647 180.36 174.275 180.11 174.007C179.869 173.739 179.529 173.605 179.09 173.605C178.706 173.605 178.384 173.739 178.125 174.007C177.874 174.266 177.749 174.593 177.749 174.986C177.749 175.63 178.411 176.229 179.734 176.784C180.083 176.927 180.351 177.039 180.539 177.119C181.809 177.692 182.677 178.309 183.142 178.971C183.607 179.623 183.839 180.509 183.839 181.627C183.839 183.004 183.374 184.144 182.444 185.048C181.514 185.942 180.343 186.389 178.93 186.389C177.508 186.389 176.358 185.915 175.482 184.967C174.614 184.019 174.14 182.736 174.06 181.117L177.199 181.104Z" fill="#1B381C"/>
<g clip-path="url(#clip0_186_157)">
<path d="M159.439 80.8156L159.49 80.7541C159.713 80.5722 159.939 80.3903 160.164 80.211C160.715 80.439 160.991 80.0086 161.301 79.714C162.749 78.328 164.216 76.9625 165.6 75.515C166.132 74.9591 166.489 74.9488 167.088 75.3587C168.177 76.1043 169.373 76.6679 170.6 77.1572C176.886 79.6653 183.151 79.4809 189.396 77.0009C190.8 77.1188 191.763 76.6243 192.073 75.6252C192.317 75.4535 192.555 75.2742 192.806 75.1128C203.239 68.4057 206.997 55.03 201.436 43.9497C197.911 36.9275 192.201 32.6004 184.504 30.9582C183.756 30.7994 183.484 30.5201 183.377 29.7439C183.144 28.0581 182.78 26.3878 182.403 24.7251C177.362 2.521 149.459 -8.87183 130.33 8.52612C128.122 10.5347 126.162 12.7687 124.366 15.3408C122.978 12.9326 121.134 11.0855 119.279 9.29726C104.886 -4.59599 84.8596 -2.0392 73.3608 11.1444C65.7094 19.9164 63.9983 30.5919 65.4917 41.7823C66.7904 51.5253 71.0605 60.1538 76.7446 68.0804C80.0925 72.7533 84.3037 76.6423 88.4534 80.585C99.1889 90.7891 110.803 99.8506 123.411 107.634C124.108 108.064 124.589 108.151 125.34 107.69C137.353 100.261 148.509 91.7191 158.801 82.0453C159.098 81.7661 159.542 81.5406 159.275 81.0001C159.326 80.9386 159.383 80.8771 159.439 80.8156Z" fill="#FEFEFE"/>
<path d="M160.164 80.2084C159.941 80.3903 159.715 80.5722 159.493 80.7516L159.441 80.813C159.385 80.8745 159.329 80.936 159.272 80.9975C158.906 81.2819 158.514 81.5355 158.179 81.8532C148.155 91.3118 137.246 99.6124 125.552 106.896C124.707 107.421 124.092 107.424 123.257 106.891C118.354 103.786 113.531 100.571 108.879 97.1017C101.965 91.9471 95.3616 86.4262 89.1755 80.4108C89.0884 80.3288 89.0013 80.2443 88.9142 80.1623C88.9142 79.6781 88.9859 79.2708 89.6366 79.4937C90.049 79.6346 90.2001 79.427 90.1899 79.0632C90.1489 77.8643 90.7201 77.0829 91.7627 76.5398C92.2519 76.2836 92.6925 75.7584 92.608 75.2332C92.485 74.4749 90.2027 73.8882 89.4829 74.3212C88.9321 74.6542 88.7528 75.0052 89.2728 75.5176C89.6443 75.8839 89.8389 76.24 89.0628 76.3246C88.6709 76.3681 88.4762 76.6474 88.3327 76.965C87.9818 77.7336 87.3465 77.9514 86.5653 77.8976L86.5883 77.9027C86.4961 77.8079 86.4065 77.7131 86.3142 77.6183L86.3424 77.6337C86.2195 77.5415 86.0939 77.4492 85.971 77.357C79.439 71.4979 74.3416 64.6012 70.6504 56.6183C66.3521 47.316 64.3771 37.7447 66.3598 27.5124C68.0837 18.6149 72.1258 11.1956 79.813 6.15633C89.8082 -0.397039 100.295 -1.368 111.115 4.06069C116.336 6.67896 120.439 10.6141 123.754 15.3843C124.235 16.0786 124.486 16.2887 125.04 15.4305C125.729 14.3596 126.538 13.3553 127.358 12.3767C137.256 0.553431 152.538 -2.70788 165.791 4.2144C176.017 9.55343 181.184 18.3254 182.777 29.4902C182.89 30.2819 182.7 30.62 181.863 30.5124C181.355 30.4484 180.841 30.4561 180.328 30.4484C168.671 30.246 158.581 37.9266 156.111 49.3066C154.013 58.9907 156.964 67.1683 164.549 73.5833C165.528 74.4108 165.505 74.8848 164.641 75.7456C163.151 77.2315 161.47 78.5355 160.164 80.2084ZM123.411 42.059C123.047 42.4125 122.686 42.8865 122.017 42.3485C121.671 42.0692 121.197 42.4407 120.895 42.7328C120.531 43.0837 120.88 43.3502 121.11 43.5833C121.515 43.9907 121.359 44.2571 120.908 44.4339C119.789 44.8745 119.215 45.971 118.551 46.7883C117.619 47.936 116.1 48.392 115.437 49.7575C115.352 49.9343 115.124 49.8369 114.986 49.7319C114.66 49.4834 114.332 49.2887 113.969 49.6474C113.564 50.0521 113.915 50.4467 114.017 50.8335C114.202 51.5278 114.95 51.6508 115.375 52.1094C115.457 52.1965 115.721 52.2067 115.844 52.1427C116.056 52.0325 116.044 51.8071 115.964 51.5842C115.875 51.3357 115.47 51.1743 115.734 50.8207C116.177 50.7131 116.471 51.4715 116.876 51.0872C117.294 50.6901 116.459 50.2955 116.769 49.7575C117.542 49.8805 118.459 50.5107 119.025 49.3374C119.627 48.0923 120.644 47.4672 122.12 47.4851C121.267 46.3732 122.245 45.8276 122.888 45.4279C123.549 45.0154 123.605 44.3263 124.038 43.8472C124.11 43.7678 123.931 43.3553 123.59 42.7635C123.487 42.5688 123.856 42.2767 123.411 42.059ZM147.417 66.2204C147.043 66.0129 146.5 65.8643 146.523 65.2187C146.531 65.0291 146.283 64.8318 146.221 64.9189C145.729 65.6004 145.202 65.2315 144.597 65.1393C144.185 65.0752 143.667 65.8643 143.849 66.1153C144.525 67.0351 143.77 67.24 143.296 67.6858C142.666 68.2776 142.164 69.0001 141.562 69.6226C140.606 70.6141 139.502 71.4159 138.555 72.3946C138.337 72.62 138.075 72.7968 137.758 72.6687C137.33 72.4971 136.954 72.5073 136.864 73.012C136.751 73.6474 136.959 74.2776 137.604 74.4621C138.063 74.5953 138.465 75.3562 138.934 74.8643C139.29 74.4902 138.47 74.2545 138.449 73.8267C138.447 73.7575 138.516 73.6858 138.578 73.5577C138.718 73.632 138.87 73.6909 138.998 73.7831C139.292 73.9958 139.559 74.4672 139.961 74.129C140.366 73.7883 139.81 73.5782 139.717 73.2938C139.582 72.8711 139.794 72.7661 140.196 72.8839C140.947 73.1017 141.549 72.8967 141.89 72.1666C142.01 71.9104 141.946 71.4749 142.335 71.4902C143.35 71.5312 143.493 69.7635 144.748 70.3579C144.769 70.3681 144.902 70.2426 144.897 70.1888C144.728 68.2264 146.751 67.6935 147.417 66.2204ZM100.426 18.8609C100.044 19.6038 99.665 19.8549 98.9068 19.3707C98.5841 19.1632 97.7336 19.8036 98.1076 20.5082C98.4509 21.1563 98.3535 21.3741 97.7208 21.62C97.3366 21.7712 97.0932 22.1555 96.8653 22.5321C96.3709 23.3493 95.1798 23.6132 95.0696 24.7533C93.7325 24.784 93.3559 26.0547 92.5132 26.7234C92.3006 26.8925 92.0829 27.2614 91.7934 26.8771C91.6166 26.644 91.5782 26.2469 91.1786 26.585C90.9225 26.8028 90.9378 27.1179 91.0019 27.4176C91.1863 28.2682 92.0034 28.5244 92.5516 29.0317C92.608 29.0829 92.8564 29.0445 92.8718 28.9984C92.923 28.8549 92.9307 28.6807 92.9051 28.5295C92.859 28.2656 92.3646 28.0658 92.6925 27.7738C93.0357 27.4689 93.297 27.8814 93.5762 28.0351C93.7786 28.1478 93.9758 28.1632 94.1603 27.9966C94.3447 27.4689 93.4149 27.2998 93.7069 26.6644C94.8186 27.2691 95.7945 27.5381 96.1301 25.9164C97.2905 25.8856 97.4775 23.667 99.1553 24.8071C98.5841 22.4245 101.056 21.9915 101.535 20.3826C100.805 20.0393 100.805 20.0393 100.426 18.8609ZM148.957 19.0786C149.164 18.5739 148.283 18.2844 148.785 17.7849C149.979 18.3946 150.279 18.3305 150.845 17.1444C151.047 16.7217 151.38 16.5884 151.682 16.3297C152.459 15.6662 153.752 15.5662 154.026 14.3621C154.19 13.6422 154.677 13.2528 155.217 12.8455C156.009 12.2486 156.747 11.6542 155.722 10.5705C155.32 10.1427 155.141 9.83012 154.728 10.4706C154.582 10.696 154.405 10.6115 154.18 10.5577C153.312 10.3502 152.902 10.8216 153.13 11.7362C153.222 12.1102 153.222 12.4125 152.774 12.5406C152.331 12.6687 152.151 13.0761 151.862 13.3835C150.509 14.8207 149.167 16.2708 147.61 17.5005C147.338 17.7157 147.092 17.9898 146.71 17.8489C145.507 17.4083 145.811 18.1999 145.863 18.8429C145.922 19.5987 146.623 19.6397 147.041 20.0009C147.297 20.2212 147.487 20.6132 147.861 20.2443C148.229 19.8805 147.843 19.6448 147.64 19.3937C147.512 19.2349 147.328 19.094 147.474 18.8224C147.994 18.6277 148.35 19.3323 148.957 19.0786ZM142.328 21.451C142.515 22.1196 141.393 22.6935 142.23 23.1982C142.784 23.5338 143.501 23.6875 144.159 23.7387C145.058 23.8079 146.091 22.6807 146.011 21.866C145.939 21.123 144.756 19.6935 144.259 19.7473C142.999 19.8907 142.287 20.5517 142.328 21.451ZM111.223 51.9787C109.23 52.0863 110.552 53.6721 110.324 54.4253C110.062 55.2964 111.402 55.445 112.183 55.5449C113.277 55.6884 113.925 55.0633 114.025 54.0948C114.13 53.0573 113.336 52.4603 112.888 51.7379C112.322 50.8284 111.945 52.7114 111.223 51.9787ZM90.9609 30.743C91.0301 30.041 90.6228 29.4774 90.0874 28.9497C89.4393 28.3118 89.0269 29.1572 88.4941 29.1572C87.7692 29.1572 87.0135 29.3442 87.4644 30.1743C87.8717 30.9275 86.7881 31.4347 87.3132 31.8728C88.01 32.4569 88.8912 32.9334 89.8748 32.6465C90.7406 32.3929 90.9814 31.6704 90.9609 30.743ZM134.105 75.0692C132.499 75.059 133.501 76.4706 133.139 77.1239C132.883 77.5876 134.249 78.5586 135.153 78.6124C135.96 78.6585 137.043 77.6721 137.053 76.8651C137.064 76.0043 136.349 75.5355 135.947 74.9053C135.235 73.7857 134.861 75.6815 134.105 75.0692Z" fill="#EE0000"/>
<path d="M192.073 75.6226C191.763 76.6217 190.803 77.1162 189.397 76.9983C189.225 76.4808 189.228 76.4911 188.351 76.8062C180.393 79.655 172.859 78.8327 165.92 73.9573C156.949 67.655 153.607 55.7549 157.828 45.6123C162.085 35.3877 172.908 29.4134 183.743 31.3117C193.572 33.0308 201.423 40.8164 203.088 50.4953C204.807 60.4714 200.222 70.2836 191.515 75.2895C191.11 75.5227 190.744 75.8275 190.36 76.0991C190.882 75.7251 191.574 75.9684 192.073 75.6226ZM192.739 45.7353C192.693 43.7857 191.927 42.6713 190.513 42.0615C189.028 41.4185 187.652 41.7413 186.51 42.8583C184.466 44.8591 182.439 46.8779 180.447 48.9275C179.947 49.4424 179.673 49.4783 179.15 48.9377C177.222 46.942 175.247 44.9949 173.272 43.0453C171.555 41.3493 169.319 41.2648 167.831 42.8122C166.32 44.3826 166.453 46.5295 168.177 48.2588C170.047 50.1316 171.881 52.0427 173.812 53.8514C174.583 54.5739 174.455 54.9608 173.774 55.614C171.832 57.474 169.952 59.398 168.056 61.3066C166.412 62.9642 166.289 65.1572 167.731 66.6636C169.253 68.2494 171.455 68.1905 173.174 66.4945C175.147 64.5449 177.122 62.5953 179.05 60.6021C179.596 60.0385 179.911 59.9283 180.516 60.5637C182.398 62.5415 184.355 64.4501 186.292 66.3766C187.993 68.0675 190.211 68.1777 191.746 66.661C193.272 65.1521 193.157 62.9488 191.438 61.2093C189.578 59.3263 187.744 57.4125 185.803 55.6166C184.98 54.8557 185.106 54.4842 185.846 53.79C187.773 51.9761 189.604 50.0624 191.479 48.1947C192.266 47.4082 192.785 46.5141 192.739 45.7353Z" fill="#FCFCFC"/>
<path d="M192.073 75.6224C191.574 75.9708 190.882 75.7249 190.365 76.0964C190.749 75.8248 191.113 75.52 191.52 75.2868C200.227 70.2808 204.812 60.4687 203.093 50.4926C201.426 40.8137 193.577 33.0281 183.748 31.309C172.913 29.4132 162.09 35.385 157.833 45.6096C153.609 55.7522 156.952 67.6523 165.925 73.9546C172.864 78.8299 180.398 79.6523 188.356 76.8035C189.233 76.4909 189.227 76.4781 189.402 76.9956C183.157 79.4755 176.891 79.6574 170.605 77.1519C169.378 76.6626 168.182 76.0989 167.093 75.3534C166.494 74.9435 166.138 74.9538 165.605 75.5097C164.222 76.9572 162.751 78.3227 161.307 79.7087C160.997 80.0059 160.72 80.4337 160.169 80.2057C161.476 78.5302 163.156 77.2287 164.652 75.7428C165.518 74.882 165.541 74.4081 164.56 73.5806C156.975 67.1656 154.021 58.9879 156.122 49.3039C158.589 37.9213 168.681 30.2407 180.339 30.4456C180.851 30.4533 181.366 30.4456 181.873 30.5097C182.711 30.6147 182.9 30.2791 182.788 29.4875C181.192 18.3227 176.028 9.55068 165.802 4.21166C152.538 -2.70807 137.256 0.550684 127.358 12.3739C126.539 13.3551 125.729 14.3568 125.04 15.4277C124.487 16.286 124.238 16.0759 123.754 15.3816C120.44 10.6113 116.336 6.67366 111.115 4.05794C100.293 -1.36819 89.8085 -0.399786 79.8133 6.15359C72.1261 11.1954 68.0865 18.6147 66.36 27.5123C64.3774 37.7445 66.3498 47.3158 70.6506 56.6182C74.3418 64.6011 79.4368 71.4977 85.961 77.3671C86.084 77.4593 86.2095 77.5516 86.3325 77.6438L86.3043 77.6284C86.3248 77.7924 86.4093 77.8923 86.5784 77.9128C86.5784 77.9128 86.5553 77.9077 86.5579 77.9077C87.229 78.7787 88.0205 79.5242 88.9094 80.1698C88.9965 80.2518 89.0836 80.3363 89.1707 80.4183C95.3568 86.4337 101.96 91.9521 108.874 97.1092C113.526 100.578 118.352 103.793 123.252 106.898C124.09 107.429 124.704 107.429 125.547 106.903C137.243 99.6199 148.15 91.3193 158.174 81.8607C158.509 81.543 158.901 81.2894 159.268 81.005C159.536 81.5456 159.093 81.771 158.794 82.0528C148.501 91.7266 137.346 100.268 125.332 107.698C124.584 108.161 124.103 108.072 123.403 107.641C110.795 99.8581 99.1812 90.7966 88.4457 80.5925C84.2986 76.6497 80.0874 72.7582 76.7369 68.0878C71.0605 60.1536 66.7904 51.5251 65.4917 41.7821C63.9983 30.5917 65.7094 19.9162 73.3608 11.1442C84.8596 -2.03941 104.886 -4.5962 119.279 9.29449C121.134 11.0853 122.978 12.9324 124.366 15.338C126.162 12.7659 128.122 10.5319 130.33 8.52336C149.459 -8.87203 177.362 2.51823 182.401 24.7198C182.777 26.3825 183.141 28.0528 183.374 29.7386C183.482 30.5174 183.753 30.7941 184.501 30.9529C192.199 32.5925 197.908 36.9222 201.433 43.9444C206.994 55.0246 203.237 68.4004 192.803 75.1075C192.555 75.2714 192.317 75.4508 192.073 75.6224Z" fill="#EE0000"/>
<path d="M159.439 80.8156L159.49 80.7541C159.49 80.7515 159.439 80.8156 159.439 80.8156Z" fill="#EE0000"/>
<path d="M123.411 42.059C123.857 42.2767 123.488 42.5688 123.601 42.7635C123.941 43.3553 124.121 43.7703 124.049 43.8472C123.616 44.3263 123.56 45.0154 122.899 45.4279C122.256 45.8275 121.277 46.3732 122.13 47.4851C120.652 47.4672 119.638 48.0923 119.036 49.3374C118.467 50.5133 117.553 49.8805 116.779 49.7575C116.469 50.2955 117.304 50.6926 116.887 51.0871C116.482 51.4714 116.187 50.7105 115.744 50.8207C115.48 51.1742 115.885 51.3356 115.975 51.5842C116.054 51.807 116.067 52.0299 115.854 52.1426C115.731 52.2067 115.465 52.1964 115.386 52.1093C114.96 51.6508 114.212 51.5252 114.028 50.8335C113.926 50.4467 113.575 50.0521 113.979 49.6473C114.341 49.2861 114.671 49.4808 114.996 49.7319C115.132 49.8369 115.36 49.9317 115.447 49.7575C116.111 48.392 117.63 47.9334 118.562 46.7883C119.225 45.9736 119.799 44.8745 120.919 44.4339C121.369 44.2571 121.526 43.9906 121.121 43.5833C120.89 43.3502 120.542 43.0837 120.906 42.7327C121.208 42.4407 121.682 42.0692 122.028 42.3485C122.686 42.8839 123.047 42.4125 123.411 42.059Z" fill="#EE0000"/>
<path d="M147.418 66.2204C146.752 67.6935 144.728 68.2238 144.9 70.1913C144.905 70.2451 144.772 70.3707 144.751 70.3604C143.496 69.7661 143.353 71.5338 142.338 71.4928C141.951 71.4774 142.013 71.9129 141.892 72.1691C141.552 72.8993 140.95 73.1042 140.199 72.8865C139.797 72.7686 139.585 72.8737 139.72 73.2964C139.813 73.5782 140.368 73.7883 139.964 74.1315C139.561 74.4723 139.295 73.9983 139.001 73.7857C138.872 73.6935 138.721 73.6345 138.58 73.5602C138.516 73.6883 138.447 73.7601 138.452 73.8292C138.473 74.2545 139.293 74.4902 138.936 74.8668C138.468 75.3587 138.066 74.5953 137.607 74.4646C136.959 74.2776 136.754 73.6474 136.867 73.0146C136.956 72.5124 137.333 72.4996 137.761 72.6713C138.078 72.7994 138.337 72.62 138.557 72.3971C139.508 71.4185 140.612 70.6166 141.565 69.6251C142.167 69 142.669 68.2801 143.299 67.6883C143.773 67.2426 144.528 67.0376 143.852 66.1179C143.668 65.8668 144.188 65.0803 144.6 65.1418C145.205 65.234 145.732 65.6029 146.224 64.9215C146.286 64.8344 146.534 65.0316 146.526 65.2212C146.501 65.8668 147.041 66.0129 147.418 66.2204Z" fill="#EE0000"/>
<path d="M100.426 18.8608C100.805 20.0393 100.805 20.0393 101.538 20.3801C101.059 21.9889 98.587 22.4219 99.1583 24.8045C97.4804 23.667 97.296 25.8856 96.1331 25.9138C95.7975 27.538 94.8216 27.269 93.7098 26.6619C93.4153 27.2972 94.3477 27.4663 94.1632 27.9966C93.9788 28.1631 93.7841 28.1452 93.5792 28.0325C93.3 27.8788 93.0362 27.4689 92.6955 27.7712C92.365 28.0632 92.862 28.2631 92.9081 28.5269C92.9337 28.6806 92.9234 28.8523 92.8748 28.9958C92.8594 29.0419 92.6109 29.0803 92.5546 29.0291C92.0064 28.5218 91.1893 28.2656 91.0048 27.4151C90.9408 27.1153 90.9229 26.8002 91.1816 26.5824C91.5812 26.2443 91.6196 26.6414 91.7964 26.8745C92.0858 27.2588 92.3035 26.8899 92.5162 26.7208C93.3589 26.0521 93.7355 24.7789 95.0726 24.7507C95.1827 23.6106 96.3739 23.3467 96.8682 22.5295C97.0962 22.1529 97.3396 21.7686 97.7238 21.6175C98.3565 21.369 98.4538 21.1538 98.1106 20.5056C97.7366 19.8011 98.587 19.1631 98.9098 19.3681C99.6654 19.8549 100.045 19.6038 100.426 18.8608Z" fill="#EE0000"/>
<path d="M148.957 19.0785C148.35 19.3322 147.994 18.6276 147.477 18.8147C147.331 19.0862 147.515 19.2246 147.643 19.386C147.845 19.637 148.232 19.8727 147.863 20.2365C147.489 20.6054 147.297 20.2135 147.044 19.9931C146.626 19.6319 145.922 19.5909 145.865 18.8351C145.817 18.1921 145.512 17.4005 146.713 17.8411C147.095 17.982 147.341 17.7079 147.612 17.4927C149.17 16.2655 150.512 14.8155 151.865 13.3757C152.154 13.0683 152.331 12.6609 152.776 12.5328C153.222 12.4047 153.225 12.0999 153.133 11.7284C152.907 10.8138 153.314 10.3424 154.183 10.5499C154.408 10.6037 154.585 10.6883 154.731 10.4628C155.143 9.82233 155.323 10.1349 155.725 10.5627C156.747 11.649 156.012 12.2433 155.22 12.8377C154.68 13.2451 154.196 13.6319 154.029 14.3544C153.755 15.561 152.461 15.6584 151.685 16.3219C151.383 16.5807 151.05 16.7139 150.848 17.1366C150.282 18.3228 149.982 18.3868 148.788 17.7771C148.283 18.2843 149.162 18.5738 148.957 19.0785Z" fill="#EE0000"/>
<path d="M88.9091 80.1674C88.0203 79.5218 87.2287 78.7763 86.5576 77.9053C87.3389 77.9616 87.9742 77.7439 88.3251 76.9727C88.4711 76.6551 88.6658 76.3758 89.0551 76.3323C89.8313 76.2451 89.6366 75.8916 89.2652 75.5252C88.7452 75.0103 88.9245 74.6619 89.4752 74.3288C90.195 73.8959 92.4774 74.4825 92.6003 75.2409C92.6848 75.7661 92.2443 76.2913 91.755 76.5475C90.7125 77.0906 90.1438 77.872 90.1822 79.0709C90.195 79.4347 90.0413 79.6422 89.6289 79.5013C88.9808 79.2759 88.9066 79.6832 88.9091 80.1674Z" fill="#EE0000"/>
<path d="M142.328 21.4509C142.287 20.5517 142.999 19.8907 144.264 19.7498C144.761 19.6934 145.942 21.123 146.016 21.8685C146.096 22.6832 145.061 23.8104 144.164 23.7412C143.506 23.69 142.789 23.5363 142.236 23.2007C141.393 22.6934 142.515 22.1196 142.328 21.4509Z" fill="#EE0000"/>
<path d="M111.223 51.9786C111.945 52.7113 112.324 50.8283 112.89 51.7404C113.339 52.4603 114.133 53.0598 114.028 54.0973C113.928 55.0657 113.28 55.6909 112.186 55.5474C111.405 55.4449 110.062 55.2989 110.326 54.4278C110.552 53.6721 109.23 52.0862 111.223 51.9786Z" fill="#EE0000"/>
<path d="M90.961 30.7429C90.9815 31.6729 90.7381 32.3928 89.8749 32.6439C88.8887 32.9308 88.0101 32.4543 87.3134 31.8702C86.7882 31.4295 87.8718 30.9223 87.4645 30.1716C87.0162 29.3416 87.7693 29.1546 88.4942 29.1546C89.027 29.1546 89.4394 28.3091 90.0875 28.947C90.6229 29.4774 91.0302 30.041 90.961 30.7429Z" fill="#EE0000"/>
<path d="M134.105 75.0692C134.861 75.6841 135.237 73.7857 135.947 74.9053C136.349 75.5355 137.064 76.0043 137.053 76.8651C137.043 77.6721 135.962 78.6585 135.153 78.6124C134.249 78.5586 132.883 77.5876 133.139 77.1239C133.498 76.4681 132.499 75.0564 134.105 75.0692Z" fill="#EE0000"/>
<path d="M86.5783 77.9103C86.4092 77.8898 86.3247 77.7899 86.3042 77.626C86.3939 77.7208 86.4861 77.8156 86.5783 77.9103Z" fill="#EE0000"/>
<path d="M89.168 80.4159C89.0809 80.3339 88.9938 80.2493 88.9067 80.1674C88.9938 80.2493 89.0809 80.3313 89.168 80.4159Z" fill="#EE0000"/>
<path d="M192.739 45.7352C192.785 46.5141 192.266 47.4082 191.479 48.1921C189.604 50.0597 187.773 51.9735 185.846 53.7873C185.109 54.4842 184.98 54.8531 185.803 55.614C187.744 57.4099 189.576 59.3236 191.438 61.2066C193.157 62.9462 193.27 65.152 191.746 66.6584C190.214 68.1725 187.995 68.0649 186.292 66.374C184.355 64.4474 182.398 62.5388 180.516 60.561C179.911 59.9257 179.596 60.0358 179.05 60.5994C177.122 62.5926 175.147 64.5422 173.174 66.4919C171.455 68.1904 169.253 68.2468 167.731 66.6609C166.286 65.1545 166.412 62.9615 168.056 61.304C169.949 59.3953 171.832 57.4714 173.774 55.6114C174.455 54.9581 174.583 54.5687 173.812 53.8488C171.881 52.0427 170.047 50.1315 168.177 48.2562C166.453 46.5294 166.32 44.38 167.831 42.8095C169.322 41.2621 171.555 41.3467 173.272 43.0427C175.247 44.9923 177.222 46.9393 179.15 48.9351C179.67 49.4731 179.947 49.4372 180.447 48.9248C182.439 46.8753 184.466 44.8539 186.51 42.8556C187.652 41.7386 189.028 41.4158 190.513 42.0589C191.927 42.6712 192.693 43.7882 192.739 45.7352ZM192.153 45.5995C192.166 44.111 191.436 43.0503 190.055 42.4816C188.871 41.9948 187.847 42.3714 187.012 43.1913C184.901 45.2715 182.829 47.3954 180.767 49.5269C180.103 50.2135 179.583 50.298 178.861 49.5499C176.906 47.5234 174.885 45.561 172.895 43.5704C172.442 43.117 171.996 42.6686 171.34 42.4944C169.998 42.1357 168.535 42.6379 167.846 43.719C167.006 45.0384 167.083 46.2143 168.246 47.4235C170.349 49.6037 172.498 51.7378 174.652 53.8693C175.293 54.5021 175.387 54.9453 174.637 55.6396C172.357 57.7455 170.154 59.9334 168.097 62.2621C166.983 63.5252 167.042 64.9957 168.279 66.2305C169.442 67.3936 171.076 67.4372 172.296 66.3971C174.696 64.3501 176.786 61.988 179.025 59.7771C179.647 59.1597 180.011 59.1802 180.569 59.7745C182.409 61.7318 184.43 63.5098 186.197 65.5414C187.616 67.1733 189.271 67.6652 190.708 66.7327C192.296 65.7002 193.19 63.8018 191.118 61.6447C189.169 59.6157 187.171 57.6276 185.137 55.6806C184.378 54.9556 184.332 54.4662 185.116 53.7182C187.153 51.7737 189.11 49.7497 191.11 47.7668C191.735 47.1468 192.222 46.4756 192.153 45.5995Z" fill="#EE0000"/>
<path d="M192.153 45.5995C192.222 46.4731 191.735 47.1469 191.108 47.7695C189.11 49.7524 187.15 51.7789 185.114 53.7208C184.33 54.4689 184.376 54.9582 185.134 55.6832C187.168 57.6303 189.163 59.6183 191.115 61.6473C193.188 63.8045 192.294 65.7028 190.705 66.7353C189.271 67.6678 187.614 67.1759 186.195 65.544C184.43 63.5124 182.409 61.7344 180.567 59.7771C180.008 59.1828 179.645 59.1623 179.022 59.7797C176.786 61.9906 174.693 64.3527 172.293 66.3997C171.074 67.4398 169.442 67.3963 168.277 66.2332C167.039 64.9983 166.98 63.5252 168.095 62.2648C170.152 59.936 172.355 57.7455 174.634 55.6422C175.385 54.9479 175.29 54.5047 174.65 53.8719C172.498 51.7404 170.346 49.6063 168.243 47.4262C167.078 46.2195 167.003 45.041 167.844 43.7216C168.533 42.6379 169.993 42.1384 171.338 42.497C171.991 42.6713 172.439 43.1196 172.892 43.573C174.883 45.5636 176.906 47.5261 178.858 49.5525C179.578 50.3006 180.098 50.2161 180.764 49.5295C182.826 47.398 184.898 45.2742 187.009 43.1939C187.844 42.3715 188.869 41.9949 190.052 42.4842C191.436 43.0504 192.166 44.111 192.153 45.5995Z" fill="#EE0000"/>
</g>
<path opacity="0.8" d="M25.0791 216H24.1016V207.024H22.1123V206.047H27.0684V207.024H25.0791V216ZM27.766 206.047H28.7162V209.362C28.9942 209.021 29.3269 208.763 29.7143 208.59C30.1062 208.417 30.5437 208.33 31.0268 208.33C32.084 208.33 32.8542 208.633 33.3373 209.239C33.8204 209.841 34.0619 210.821 34.0619 212.179V216H33.1117V212.165C33.1117 211.076 32.9477 210.319 32.6195 209.896C32.2914 209.467 31.7423 209.253 30.9721 209.253C30.5346 209.253 30.1495 209.342 29.8168 209.52C29.4887 209.693 29.2289 209.943 29.0375 210.271C28.919 210.477 28.8347 210.711 28.7846 210.976C28.739 211.235 28.7162 211.691 28.7162 212.343V216H27.766V206.047ZM42.826 212.541H36.0379C36.0971 213.361 36.3934 214.024 36.9266 214.53C37.4598 215.036 38.1251 215.289 38.9227 215.289C39.4878 215.289 39.9959 215.143 40.4471 214.852C40.8982 214.555 41.2469 214.145 41.493 213.621H42.5867C42.2404 214.455 41.7527 215.095 41.1238 215.542C40.4995 215.989 39.7749 216.212 38.95 216.212C37.8563 216.212 36.9311 215.822 36.1746 215.043C35.4181 214.264 35.0398 213.327 35.0398 212.233C35.0398 211.09 35.409 210.144 36.1473 209.396C36.8901 208.649 37.838 208.275 38.991 208.275C40.1212 208.275 41.0418 208.665 41.7527 209.444C42.4682 210.219 42.826 211.229 42.826 212.473V212.541ZM41.7596 211.728C41.5773 210.884 41.2423 210.251 40.7547 209.827C40.2671 209.399 39.6313 209.185 38.8475 209.185C38.1183 209.185 37.5008 209.415 36.9949 209.875C36.4891 210.331 36.1792 210.948 36.0652 211.728H41.7596ZM53.942 212.315C53.942 211.459 53.6572 210.727 53.0875 210.121C52.5224 209.515 51.857 209.212 51.0914 209.212C50.2984 209.212 49.6194 209.501 49.0543 210.08C48.4892 210.654 48.2066 211.358 48.2066 212.192C48.2066 213.072 48.4892 213.81 49.0543 214.407C49.624 215.004 50.3121 215.303 51.1188 215.303C51.8616 215.303 52.5178 215.004 53.0875 214.407C53.6572 213.81 53.942 213.113 53.942 212.315ZM53.9146 209.67V207.995V206.047H54.8854V216H53.9146V214.865C53.5774 215.285 53.1581 215.613 52.6568 215.85C52.1555 216.082 51.6246 216.198 51.0641 216.198C49.9794 216.198 49.0657 215.815 48.3229 215.05C47.58 214.284 47.2086 213.345 47.2086 212.233C47.2086 211.131 47.5755 210.203 48.3092 209.451C49.0429 208.695 49.9612 208.316 51.0641 208.316C51.6565 208.316 52.1943 208.433 52.6773 208.665C53.165 208.893 53.5774 209.228 53.9146 209.67ZM57.2236 216H56.2461V208.48H57.1553V209.349C57.3923 209.016 57.6497 208.772 57.9277 208.617C58.2103 208.462 58.5384 208.38 58.9121 208.371L58.9189 209.417C58.3128 209.472 57.8776 209.654 57.6133 209.964C57.3535 210.269 57.2236 210.768 57.2236 211.461V216ZM66.9857 212.541H60.1977C60.2569 213.361 60.5531 214.024 61.0863 214.53C61.6195 215.036 62.2849 215.289 63.0824 215.289C63.6475 215.289 64.1557 215.143 64.6068 214.852C65.058 214.555 65.4066 214.145 65.6527 213.621H66.7465C66.4001 214.455 65.9125 215.095 65.2836 215.542C64.6592 215.989 63.9346 216.212 63.1098 216.212C62.016 216.212 61.0909 215.822 60.3344 215.043C59.5779 214.264 59.1996 213.327 59.1996 212.233C59.1996 211.09 59.5687 210.144 60.307 209.396C61.0499 208.649 61.9978 208.275 63.1508 208.275C64.281 208.275 65.2016 208.665 65.9125 209.444C66.628 210.219 66.9857 211.229 66.9857 212.473V212.541ZM65.9193 211.728C65.737 210.884 65.4021 210.251 64.9145 209.827C64.4268 209.399 63.7911 209.185 63.0072 209.185C62.2781 209.185 61.6605 209.415 61.1547 209.875C60.6488 210.331 60.3389 210.948 60.225 211.728H65.9193ZM67.4715 213.635H68.4627V213.662C68.4627 214.132 68.5971 214.521 68.866 214.831C69.1349 215.136 69.4676 215.289 69.8641 215.289C70.2423 215.289 70.5568 215.171 70.8074 214.934C71.0581 214.697 71.1834 214.398 71.1834 214.038C71.1834 213.678 71.0831 213.389 70.8826 213.17C70.6867 212.951 70.3289 212.746 69.8094 212.555C68.9754 212.258 68.4308 211.955 68.1756 211.646C67.9204 211.336 67.7928 210.921 67.7928 210.401C67.7928 209.813 68.0047 209.314 68.4285 208.904C68.8569 208.494 69.3742 208.289 69.9803 208.289C70.6228 208.289 71.1333 208.471 71.5115 208.836C71.8898 209.201 72.0926 209.709 72.1199 210.36H71.0877C71.0649 210.005 70.951 209.729 70.7459 209.533C70.5454 209.337 70.2697 209.239 69.9187 209.239C69.6043 209.239 69.3422 209.346 69.1326 209.561C68.923 209.77 68.8182 210.032 68.8182 210.347C68.8182 210.57 68.8615 210.759 68.948 210.914C69.0346 211.064 69.1782 211.201 69.3787 211.324C69.561 211.438 69.8253 211.548 70.1717 211.652C70.5226 211.757 70.7573 211.835 70.8758 211.885C71.3452 212.085 71.6893 212.352 71.908 212.685C72.1313 213.017 72.243 213.441 72.243 213.956C72.243 214.603 72.0174 215.139 71.5662 215.562C71.115 215.986 70.5431 216.198 69.8504 216.198C69.144 216.198 68.5766 215.968 68.1482 215.508C67.7199 215.043 67.4943 214.419 67.4715 213.635ZM72.7766 213.635H73.7678V213.662C73.7678 214.132 73.9022 214.521 74.1711 214.831C74.44 215.136 74.7727 215.289 75.1691 215.289C75.5474 215.289 75.8619 215.171 76.1125 214.934C76.3632 214.697 76.4885 214.398 76.4885 214.038C76.4885 213.678 76.3882 213.389 76.1877 213.17C75.9917 212.951 75.634 212.746 75.1145 212.555C74.2805 212.258 73.7359 211.955 73.4807 211.646C73.2255 211.336 73.0979 210.921 73.0979 210.401C73.0979 209.813 73.3098 209.314 73.7336 208.904C74.162 208.494 74.6792 208.289 75.2854 208.289C75.9279 208.289 76.4383 208.471 76.8166 208.836C77.1949 209.201 77.3977 209.709 77.425 210.36H76.3928C76.37 210.005 76.2561 209.729 76.051 209.533C75.8505 209.337 75.5747 209.239 75.2238 209.239C74.9094 209.239 74.6473 209.346 74.4377 209.561C74.2281 209.77 74.1232 210.032 74.1232 210.347C74.1232 210.57 74.1665 210.759 74.2531 210.914C74.3397 211.064 74.4833 211.201 74.6838 211.324C74.8661 211.438 75.1304 211.548 75.4768 211.652C75.8277 211.757 76.0624 211.835 76.1809 211.885C76.6503 212.085 76.9943 212.352 77.2131 212.685C77.4364 213.017 77.548 213.441 77.548 213.956C77.548 214.603 77.3225 215.139 76.8713 215.562C76.4201 215.986 75.8482 216.198 75.1555 216.198C74.4491 216.198 73.8817 215.968 73.4533 215.508C73.0249 215.043 72.7994 214.419 72.7766 213.635ZM83.3389 207.599H82.375V206.047H83.3389V207.599ZM82.375 216V208.48H83.3389V216H82.375ZM84.2758 213.635H85.267V213.662C85.267 214.132 85.4014 214.521 85.6703 214.831C85.9392 215.136 86.2719 215.289 86.6684 215.289C87.0466 215.289 87.3611 215.171 87.6117 214.934C87.8624 214.697 87.9877 214.398 87.9877 214.038C87.9877 213.678 87.8874 213.389 87.6869 213.17C87.4909 212.951 87.1332 212.746 86.6137 212.555C85.7797 212.258 85.2351 211.955 84.9799 211.646C84.7247 211.336 84.5971 210.921 84.5971 210.401C84.5971 209.813 84.809 209.314 85.2328 208.904C85.6612 208.494 86.1784 208.289 86.7846 208.289C87.4271 208.289 87.9376 208.471 88.3158 208.836C88.6941 209.201 88.8969 209.709 88.9242 210.36H87.892C87.8692 210.005 87.7553 209.729 87.5502 209.533C87.3497 209.337 87.074 209.239 86.723 209.239C86.4086 209.239 86.1465 209.346 85.9369 209.561C85.7273 209.77 85.6225 210.032 85.6225 210.347C85.6225 210.57 85.6658 210.759 85.7523 210.914C85.8389 211.064 85.9825 211.201 86.183 211.324C86.3653 211.438 86.6296 211.548 86.976 211.652C87.3269 211.757 87.5616 211.835 87.6801 211.885C88.1495 212.085 88.4936 212.352 88.7123 212.685C88.9356 213.017 89.0473 213.441 89.0473 213.956C89.0473 214.603 88.8217 215.139 88.3705 215.562C87.9193 215.986 87.3474 216.198 86.6547 216.198C85.9483 216.198 85.3809 215.968 84.9525 215.508C84.5242 215.043 84.2986 214.419 84.2758 213.635ZM95.1457 216.615C95.2915 217.053 95.5559 217.392 95.9387 217.634C96.3215 217.88 96.7863 218.003 97.3332 218.003C98.19 218.003 98.8758 217.718 99.3908 217.148C99.9104 216.579 100.17 215.818 100.17 214.865V214.667C99.8055 215.164 99.3908 215.54 98.926 215.795C98.4611 216.046 97.9484 216.171 97.3879 216.171C96.2577 216.171 95.3189 215.795 94.5715 215.043C93.8241 214.286 93.4504 213.345 93.4504 212.22C93.4504 211.112 93.8195 210.183 94.5578 209.431C95.2961 208.679 96.2098 208.303 97.299 208.303C97.9325 208.303 98.4794 208.417 98.9397 208.645C99.4045 208.872 99.8147 209.228 100.17 209.711V208.48H101.113V214.756C101.113 216.068 100.783 217.094 100.122 217.832C99.466 218.57 98.5591 218.939 97.4016 218.939C96.5494 218.939 95.8179 218.728 95.2072 218.304C94.5966 217.884 94.2023 217.322 94.0246 216.615H95.1457ZM94.4758 212.179C94.4758 213.058 94.7538 213.794 95.3098 214.387C95.8703 214.979 96.5448 215.275 97.3332 215.275C98.076 215.275 98.7323 214.979 99.302 214.387C99.8716 213.79 100.156 213.09 100.156 212.288C100.156 211.431 99.8762 210.7 99.3156 210.094C98.7551 209.488 98.0943 209.185 97.3332 209.185C96.5494 209.185 95.8772 209.474 95.3166 210.053C94.7561 210.627 94.4758 211.336 94.4758 212.179ZM103.424 216H102.447V208.48H103.356V209.349C103.593 209.016 103.851 208.772 104.129 208.617C104.411 208.462 104.739 208.38 105.113 208.371L105.12 209.417C104.514 209.472 104.078 209.654 103.814 209.964C103.554 210.269 103.424 210.768 103.424 211.461V216ZM113.187 212.541H106.398C106.458 213.361 106.754 214.024 107.287 214.53C107.82 215.036 108.486 215.289 109.283 215.289C109.848 215.289 110.356 215.143 110.808 214.852C111.259 214.555 111.607 214.145 111.854 213.621H112.947C112.601 214.455 112.113 215.095 111.484 215.542C110.86 215.989 110.135 216.212 109.311 216.212C108.217 216.212 107.292 215.822 106.535 215.043C105.779 214.264 105.4 213.327 105.4 212.233C105.4 211.09 105.77 210.144 106.508 209.396C107.251 208.649 108.199 208.275 109.352 208.275C110.482 208.275 111.402 208.665 112.113 209.444C112.829 210.219 113.187 211.229 113.187 212.473V212.541ZM112.12 211.728C111.938 210.884 111.603 210.251 111.115 209.827C110.628 209.399 109.992 209.185 109.208 209.185C108.479 209.185 107.861 209.415 107.355 209.875C106.85 210.331 106.54 210.948 106.426 211.728H112.12ZM120.501 212.192C120.501 211.395 120.217 210.7 119.647 210.107C119.077 209.51 118.421 209.212 117.678 209.212C116.871 209.212 116.183 209.51 115.614 210.107C115.049 210.7 114.766 211.436 114.766 212.315C114.766 213.154 115.049 213.863 115.614 214.441C116.179 215.016 116.858 215.303 117.651 215.303C118.416 215.303 119.082 215 119.647 214.394C120.217 213.783 120.501 213.049 120.501 212.192ZM120.501 214.811C120.201 215.243 119.793 215.583 119.278 215.829C118.767 216.075 118.216 216.198 117.623 216.198C116.521 216.198 115.602 215.822 114.869 215.07C114.135 214.314 113.768 213.382 113.768 212.274C113.768 211.149 114.142 210.208 114.889 209.451C115.641 208.695 116.58 208.316 117.705 208.316C118.284 208.316 118.815 208.435 119.298 208.672C119.781 208.904 120.182 209.242 120.501 209.684V208.48H121.445V216H120.501V214.811ZM123.475 216V209.451H122.047V208.48H123.475V206.047H124.439V208.48H125.868V209.451H124.439V216H123.475ZM128.22 213.409H127.249V206.047H128.22V213.409ZM128.22 216H127.249V214.182H128.22V216ZM133.115 206.047H134.093L137.244 214.53L140.409 206.047H141.387L137.641 216H136.868L133.115 206.047ZM148.421 212.541H141.633C141.692 213.361 141.989 214.024 142.522 214.53C143.055 215.036 143.72 215.289 144.518 215.289C145.083 215.289 145.591 215.143 146.042 214.852C146.494 214.555 146.842 214.145 147.088 213.621H148.182C147.836 214.455 147.348 215.095 146.719 215.542C146.095 215.989 145.37 216.212 144.545 216.212C143.452 216.212 142.526 215.822 141.77 215.043C141.013 214.264 140.635 213.327 140.635 212.233C140.635 211.09 141.004 210.144 141.743 209.396C142.485 208.649 143.433 208.275 144.586 208.275C145.717 208.275 146.637 208.665 147.348 209.444C148.064 210.219 148.421 211.229 148.421 212.473V212.541ZM147.355 211.728C147.173 210.884 146.838 210.251 146.35 209.827C145.862 209.399 145.227 209.185 144.443 209.185C143.714 209.185 143.096 209.415 142.59 209.875C142.084 210.331 141.774 210.948 141.661 211.728H147.355ZM150.349 216H149.372V208.48H150.281V209.349C150.518 209.016 150.776 208.772 151.054 208.617C151.336 208.462 151.664 208.38 152.038 208.371L152.045 209.417C151.439 209.472 151.003 209.654 150.739 209.964C150.479 210.269 150.349 210.768 150.349 211.461V216ZM152.517 208.48H153.624L155.948 214.585L158.382 208.48H159.503L155.443 218.434H154.41L155.415 215.986L152.517 208.48ZM169.635 210.791C169.339 210.244 168.976 209.841 168.548 209.581C168.124 209.317 167.618 209.185 167.03 209.185C166.256 209.185 165.597 209.479 165.055 210.066C164.517 210.654 164.248 211.381 164.248 212.247C164.248 213.113 164.519 213.838 165.062 214.421C165.604 215 166.274 215.289 167.071 215.289C167.655 215.289 168.17 215.146 168.616 214.858C169.063 214.571 169.402 214.168 169.635 213.648H170.701C170.41 214.464 169.951 215.095 169.327 215.542C168.703 215.989 167.967 216.212 167.119 216.212C166.03 216.212 165.109 215.827 164.357 215.057C163.61 214.282 163.236 213.35 163.236 212.261C163.236 211.149 163.615 210.208 164.371 209.438C165.132 208.663 166.057 208.275 167.146 208.275C167.962 208.275 168.68 208.496 169.3 208.938C169.924 209.376 170.391 209.993 170.701 210.791H169.635ZM171.973 216V206.047H172.937V216H171.973ZM180.703 212.192C180.703 211.395 180.418 210.7 179.848 210.107C179.279 209.51 178.623 209.212 177.88 209.212C177.073 209.212 176.385 209.51 175.815 210.107C175.25 210.7 174.968 211.436 174.968 212.315C174.968 213.154 175.25 213.863 175.815 214.441C176.38 215.016 177.059 215.303 177.852 215.303C178.618 215.303 179.283 215 179.848 214.394C180.418 213.783 180.703 213.049 180.703 212.192ZM180.703 214.811C180.402 215.243 179.994 215.583 179.479 215.829C178.969 216.075 178.417 216.198 177.825 216.198C176.722 216.198 175.804 215.822 175.07 215.07C174.336 214.314 173.97 213.382 173.97 212.274C173.97 211.149 174.343 210.208 175.091 209.451C175.843 208.695 176.781 208.316 177.907 208.316C178.486 208.316 179.017 208.435 179.5 208.672C179.983 208.904 180.384 209.242 180.703 209.684V208.48H181.646V216H180.703V214.811ZM182.542 213.635H183.533V213.662C183.533 214.132 183.668 214.521 183.937 214.831C184.206 215.136 184.538 215.289 184.935 215.289C185.313 215.289 185.627 215.171 185.878 214.934C186.129 214.697 186.254 214.398 186.254 214.038C186.254 213.678 186.154 213.389 185.953 213.17C185.757 212.951 185.4 212.746 184.88 212.555C184.046 212.258 183.502 211.955 183.246 211.646C182.991 211.336 182.863 210.921 182.863 210.401C182.863 209.813 183.075 209.314 183.499 208.904C183.928 208.494 184.445 208.289 185.051 208.289C185.694 208.289 186.204 208.471 186.582 208.836C186.96 209.201 187.163 209.709 187.191 210.36H186.158C186.136 210.005 186.022 209.729 185.817 209.533C185.616 209.337 185.34 209.239 184.989 209.239C184.675 209.239 184.413 209.346 184.203 209.561C183.994 209.77 183.889 210.032 183.889 210.347C183.889 210.57 183.932 210.759 184.019 210.914C184.105 211.064 184.249 211.201 184.449 211.324C184.632 211.438 184.896 211.548 185.242 211.652C185.593 211.757 185.828 211.835 185.946 211.885C186.416 212.085 186.76 212.352 186.979 212.685C187.202 213.017 187.314 213.441 187.314 213.956C187.314 214.603 187.088 215.139 186.637 215.562C186.186 215.986 185.614 216.198 184.921 216.198C184.215 216.198 183.647 215.968 183.219 215.508C182.791 215.043 182.565 214.419 182.542 213.635ZM187.847 213.635H188.838V213.662C188.838 214.132 188.973 214.521 189.242 214.831C189.511 215.136 189.843 215.289 190.24 215.289C190.618 215.289 190.933 215.171 191.183 214.934C191.434 214.697 191.559 214.398 191.559 214.038C191.559 213.678 191.459 213.389 191.258 213.17C191.062 212.951 190.705 212.746 190.185 212.555C189.351 212.258 188.807 211.955 188.551 211.646C188.296 211.336 188.169 210.921 188.169 210.401C188.169 209.813 188.38 209.314 188.804 208.904C189.233 208.494 189.75 208.289 190.356 208.289C190.999 208.289 191.509 208.471 191.887 208.836C192.266 209.201 192.468 209.709 192.496 210.36H191.463C191.441 210.005 191.327 209.729 191.122 209.533C190.921 209.337 190.645 209.239 190.295 209.239C189.98 209.239 189.718 209.346 189.508 209.561C189.299 209.77 189.194 210.032 189.194 210.347C189.194 210.57 189.237 210.759 189.324 210.914C189.41 211.064 189.554 211.201 189.754 211.324C189.937 211.438 190.201 211.548 190.547 211.652C190.898 211.757 191.133 211.835 191.252 211.885C191.721 212.085 192.065 212.352 192.284 212.685C192.507 213.017 192.619 213.441 192.619 213.956C192.619 214.603 192.393 215.139 191.942 215.562C191.491 215.986 190.919 216.198 190.226 216.198C189.52 216.198 188.952 215.968 188.524 215.508C188.096 215.043 187.87 214.419 187.847 213.635ZM192.633 208.48H193.74L196.064 214.585L198.498 208.48H199.619L195.559 218.434H194.526L195.531 215.986L192.633 208.48ZM210.086 212.192C210.086 211.395 209.801 210.7 209.231 210.107C208.662 209.51 208.005 209.212 207.262 209.212C206.456 209.212 205.768 209.51 205.198 210.107C204.633 210.7 204.35 211.436 204.35 212.315C204.35 213.154 204.633 213.863 205.198 214.441C205.763 215.016 206.442 215.303 207.235 215.303C208.001 215.303 208.666 215 209.231 214.394C209.801 213.783 210.086 213.049 210.086 212.192ZM210.086 214.811C209.785 215.243 209.377 215.583 208.862 215.829C208.352 216.075 207.8 216.198 207.208 216.198C206.105 216.198 205.187 215.822 204.453 215.07C203.719 214.314 203.352 213.382 203.352 212.274C203.352 211.149 203.726 210.208 204.473 209.451C205.225 208.695 206.164 208.316 207.29 208.316C207.869 208.316 208.4 208.435 208.883 208.672C209.366 208.904 209.767 209.242 210.086 209.684V208.48H211.029V216H210.086V214.811ZM212.404 208.48H213.34V209.335C213.636 208.993 213.978 208.74 214.365 208.576C214.757 208.412 215.204 208.33 215.705 208.33C216.257 208.33 216.747 208.433 217.175 208.638C217.608 208.843 217.95 209.137 218.2 209.52C218.374 209.788 218.497 210.105 218.57 210.47C218.647 210.83 218.686 211.363 218.686 212.069V216H217.736V211.789C217.736 210.9 217.565 210.256 217.223 209.854C216.886 209.453 216.343 209.253 215.596 209.253C215.158 209.253 214.773 209.342 214.441 209.52C214.113 209.693 213.853 209.943 213.661 210.271C213.543 210.477 213.459 210.711 213.408 210.976C213.363 211.235 213.34 211.691 213.34 212.343V216H212.404V208.48ZM226.424 212.315C226.424 211.459 226.14 210.727 225.57 210.121C225.005 209.515 224.339 209.212 223.574 209.212C222.781 209.212 222.102 209.501 221.537 210.08C220.972 210.654 220.689 211.358 220.689 212.192C220.689 213.072 220.972 213.81 221.537 214.407C222.106 215.004 222.795 215.303 223.601 215.303C224.344 215.303 225 215.004 225.57 214.407C226.14 213.81 226.424 213.113 226.424 212.315ZM226.397 209.67V207.995V206.047H227.368V216H226.397V214.865C226.06 215.285 225.641 215.613 225.139 215.85C224.638 216.082 224.107 216.198 223.546 216.198C222.462 216.198 221.548 215.815 220.805 215.05C220.062 214.284 219.691 213.345 219.691 212.233C219.691 211.131 220.058 210.203 220.792 209.451C221.525 208.695 222.444 208.316 223.546 208.316C224.139 208.316 224.677 208.433 225.16 208.665C225.647 208.893 226.06 209.228 226.397 209.67ZM11.768 233.791C11.4717 233.244 11.1094 232.841 10.6811 232.581C10.2572 232.317 9.75137 232.185 9.16348 232.185C8.38874 232.185 7.73021 232.479 7.18789 233.066C6.65013 233.654 6.38125 234.381 6.38125 235.247C6.38125 236.113 6.65241 236.838 7.19473 237.421C7.73704 238 8.40696 238.289 9.20449 238.289C9.78782 238.289 10.3028 238.146 10.7494 237.858C11.196 237.571 11.5355 237.168 11.768 236.648H12.8344C12.5427 237.464 12.0847 238.095 11.4604 238.542C10.836 238.989 10.1 239.212 9.25234 239.212C8.16315 239.212 7.24258 238.827 6.49062 238.057C5.74323 237.282 5.36953 236.35 5.36953 235.261C5.36953 234.149 5.74778 233.208 6.5043 232.438C7.26536 231.663 8.19049 231.275 9.27969 231.275C10.0954 231.275 10.8132 231.496 11.433 231.938C12.0574 232.376 12.5245 232.993 12.8344 233.791H11.768ZM14.6941 235.233C14.6941 236.099 14.9699 236.826 15.5213 237.414C16.0727 237.997 16.7586 238.289 17.5789 238.289C18.3855 238.289 19.0623 237.997 19.6092 237.414C20.1561 236.826 20.4295 236.095 20.4295 235.22C20.4295 234.331 20.1515 233.602 19.5955 233.032C19.0441 232.458 18.3423 232.171 17.49 232.171C16.7244 232.171 16.0659 232.465 15.5145 233.053C14.9676 233.641 14.6941 234.368 14.6941 235.233ZM13.6824 235.247C13.6824 234.144 14.0607 233.201 14.8172 232.417C15.5737 231.633 16.4692 231.241 17.5037 231.241C18.5929 231.241 19.5203 231.626 20.2859 232.396C21.0561 233.167 21.4412 234.085 21.4412 235.151C21.4412 236.272 21.0652 237.229 20.3133 238.022C19.5613 238.815 18.6499 239.212 17.5789 239.212C16.4897 239.212 15.5669 238.825 14.8104 238.05C14.0584 237.271 13.6824 236.336 13.6824 235.247ZM28.3391 232.656C28.6444 232.223 29.0227 231.895 29.4738 231.672C29.9296 231.444 30.4377 231.33 30.9982 231.33C32.0191 231.33 32.7619 231.638 33.2268 232.253C33.6916 232.864 33.924 233.848 33.924 235.206V239H33.0012V235.008C33.0012 234.014 32.8371 233.308 32.509 232.889C32.1809 232.465 31.6454 232.253 30.9025 232.253C30.4742 232.253 30.0959 232.342 29.7678 232.52C29.4442 232.693 29.1867 232.943 28.9953 233.271C28.8814 233.477 28.7993 233.711 28.7492 233.976C28.6991 234.235 28.674 234.691 28.674 235.343V239H27.7648V234.789C27.7648 233.923 27.5894 233.285 27.2385 232.875C26.8876 232.46 26.3498 232.253 25.6252 232.253C25.1877 232.253 24.8026 232.342 24.4699 232.52C24.1418 232.693 23.882 232.943 23.6906 233.271C23.5721 233.477 23.4878 233.711 23.4377 233.976C23.3921 234.235 23.3693 234.691 23.3693 235.343V239H22.4191V231.48H23.3693V232.335C23.6564 232.002 23.9937 231.752 24.3811 231.583C24.773 231.414 25.215 231.33 25.7072 231.33C26.2769 231.33 26.7964 231.451 27.2658 231.692C27.7352 231.929 28.093 232.251 28.3391 232.656ZM36.6656 239H35.7291V232.321H34.7242V231.48H35.6881V231.275C35.6881 230.478 35.8886 229.888 36.2896 229.505C36.6952 229.122 37.315 228.931 38.149 228.931H38.2379V229.799C37.6591 229.808 37.249 229.924 37.0074 230.147C36.7704 230.366 36.652 230.742 36.652 231.275V231.48H38.2379V232.321H36.6656V239ZM39.6328 235.233C39.6328 236.099 39.9085 236.826 40.46 237.414C41.0114 237.997 41.6973 238.289 42.5176 238.289C43.3242 238.289 44.001 237.997 44.5479 237.414C45.0947 236.826 45.3682 236.095 45.3682 235.22C45.3682 234.331 45.0902 233.602 44.5342 233.032C43.9827 232.458 43.2809 232.171 42.4287 232.171C41.6631 232.171 41.0046 232.465 40.4531 233.053C39.9062 233.641 39.6328 234.368 39.6328 235.233ZM38.6211 235.247C38.6211 234.144 38.9993 233.201 39.7559 232.417C40.5124 231.633 41.4079 231.241 42.4424 231.241C43.5316 231.241 44.459 231.626 45.2246 232.396C45.9948 233.167 46.3799 234.085 46.3799 235.151C46.3799 236.272 46.0039 237.229 45.252 238.022C44.5 238.815 43.5885 239.212 42.5176 239.212C41.4284 239.212 40.5055 238.825 39.749 238.05C38.9971 237.271 38.6211 236.336 38.6211 235.247ZM48.3354 239H47.3578V231.48H48.267V232.349C48.504 232.016 48.7615 231.772 49.0395 231.617C49.322 231.462 49.6501 231.38 50.0238 231.371L50.0307 232.417C49.4245 232.472 48.9893 232.654 48.725 232.964C48.4652 233.269 48.3354 233.768 48.3354 234.461V239ZM51.3777 239V232.451H49.949V231.48H51.3777V229.047H52.3416V231.48H53.7703V232.451H52.3416V239H51.3777ZM60.7502 235.192C60.7502 234.395 60.4654 233.7 59.8957 233.107C59.326 232.51 58.6698 232.212 57.927 232.212C57.1203 232.212 56.4322 232.51 55.8625 233.107C55.2974 233.7 55.0148 234.436 55.0148 235.315C55.0148 236.154 55.2974 236.863 55.8625 237.441C56.4276 238.016 57.1066 238.303 57.8996 238.303C58.6652 238.303 59.3306 238 59.8957 237.394C60.4654 236.783 60.7502 236.049 60.7502 235.192ZM60.7502 237.811C60.4494 238.243 60.0415 238.583 59.5266 238.829C59.0161 239.075 58.4647 239.198 57.8723 239.198C56.7694 239.198 55.8511 238.822 55.1174 238.07C54.3837 237.314 54.0168 236.382 54.0168 235.274C54.0168 234.149 54.3905 233.208 55.1379 232.451C55.8898 231.695 56.8286 231.316 57.9543 231.316C58.5331 231.316 59.064 231.435 59.5471 231.672C60.0301 231.904 60.4312 232.242 60.7502 232.684V231.48H61.6936V239H60.7502V237.811ZM63.9908 229.047V232.185V232.745C64.3964 232.257 64.8408 231.897 65.3238 231.665C65.8069 231.433 66.3469 231.316 66.9439 231.316C68.0012 231.316 68.8945 231.697 69.6236 232.458C70.3574 233.219 70.7242 234.144 70.7242 235.233C70.7242 236.359 70.3505 237.302 69.6031 238.063C68.8557 238.82 67.9169 239.198 66.7867 239.198C66.2307 239.198 65.7203 239.089 65.2555 238.87C64.7952 238.647 64.3736 238.312 63.9908 237.865V239H63.0406V229.047H63.9908ZM63.9908 235.315C63.9908 236.118 64.2734 236.817 64.8385 237.414C65.4081 238.007 66.0621 238.303 66.8004 238.303C67.607 238.303 68.2929 238.004 68.858 237.407C69.4277 236.81 69.7125 236.072 69.7125 235.192C69.7125 234.358 69.4299 233.654 68.8648 233.08C68.2997 232.501 67.623 232.212 66.8346 232.212C66.0462 232.212 65.374 232.513 64.818 233.114C64.2665 233.716 63.9908 234.45 63.9908 235.315ZM71.75 239V229.047H72.7139V239H71.75ZM81.5053 235.541H74.7172C74.7764 236.361 75.0727 237.024 75.6059 237.53C76.1391 238.036 76.8044 238.289 77.602 238.289C78.1671 238.289 78.6752 238.143 79.1264 237.852C79.5775 237.555 79.9262 237.145 80.1723 236.621H81.266C80.9197 237.455 80.432 238.095 79.8031 238.542C79.1788 238.989 78.4542 239.212 77.6293 239.212C76.5355 239.212 75.6104 238.822 74.8539 238.043C74.0974 237.264 73.7191 236.327 73.7191 235.233C73.7191 234.09 74.0883 233.144 74.8266 232.396C75.5694 231.649 76.5173 231.275 77.6703 231.275C78.8005 231.275 79.7211 231.665 80.432 232.444C81.1475 233.219 81.5053 234.229 81.5053 235.473V235.541ZM80.4389 234.728C80.2566 233.884 79.9216 233.251 79.434 232.827C78.9464 232.399 78.3106 232.185 77.5268 232.185C76.7976 232.185 76.1801 232.415 75.6742 232.875C75.1684 233.331 74.8585 233.948 74.7445 234.728H80.4389ZM83.6521 239H82.6746V237.182H83.6521V239ZM90.6803 239H89.7027V229.047H90.6803V239ZM92.8887 239V232.451H91.46V231.48H92.8887V229.047H93.8525V231.48H95.2812V232.451H93.8525V239H92.8887ZM101.052 239H100.115V232.321H99.1102V231.48H100.074V231.275C100.074 230.478 100.275 229.888 100.676 229.505C101.081 229.122 101.701 228.931 102.535 228.931H102.624V229.799C102.045 229.808 101.635 229.924 101.393 230.147C101.156 230.366 101.038 230.742 101.038 231.275V231.48H102.624V232.321H101.052V239ZM104.395 230.599H103.431V229.047H104.395V230.599ZM103.431 239V231.48H104.395V239H103.431ZM106.466 239V232.451H105.038V231.48H106.466V229.047H107.43V231.48H108.859V232.451H107.43V239H106.466ZM113.262 231.48H114.212V232.711C114.486 232.287 114.875 231.95 115.381 231.699C115.892 231.444 116.434 231.316 117.008 231.316C118.143 231.316 119.082 231.695 119.825 232.451C120.572 233.203 120.946 234.144 120.946 235.274C120.946 236.377 120.577 237.307 119.838 238.063C119.105 238.82 118.186 239.198 117.083 239.198C116.473 239.198 115.921 239.08 115.429 238.843C114.941 238.606 114.536 238.262 114.212 237.811V238.33V239.451V241.434H113.262V231.48ZM114.212 235.192C114.212 236.049 114.495 236.783 115.06 237.394C115.625 238 116.29 238.303 117.056 238.303C117.844 238.303 118.521 238.016 119.086 237.441C119.651 236.863 119.934 236.154 119.934 235.315C119.934 234.436 119.649 233.7 119.079 233.107C118.514 232.51 117.829 232.212 117.022 232.212C116.279 232.212 115.625 232.51 115.06 233.107C114.495 233.704 114.212 234.399 114.212 235.192ZM129.334 235.541H122.546C122.605 236.361 122.901 237.024 123.434 237.53C123.968 238.036 124.633 238.289 125.43 238.289C125.996 238.289 126.504 238.143 126.955 237.852C127.406 237.555 127.755 237.145 128.001 236.621H129.095C128.748 237.455 128.261 238.095 127.632 238.542C127.007 238.989 126.283 239.212 125.458 239.212C124.364 239.212 123.439 238.822 122.682 238.043C121.926 237.264 121.548 236.327 121.548 235.233C121.548 234.09 121.917 233.144 122.655 232.396C123.398 231.649 124.346 231.275 125.499 231.275C126.629 231.275 127.55 231.665 128.261 232.444C128.976 233.219 129.334 234.229 129.334 235.473V235.541ZM128.267 234.728C128.085 233.884 127.75 233.251 127.262 232.827C126.775 232.399 126.139 232.185 125.355 232.185C124.626 232.185 124.009 232.415 123.503 232.875C122.997 233.331 122.687 233.948 122.573 234.728H128.267ZM131.262 239H130.284V231.48H131.194V232.349C131.431 232.016 131.688 231.772 131.966 231.617C132.249 231.462 132.577 231.38 132.95 231.371L132.957 232.417C132.351 232.472 131.916 232.654 131.652 232.964C131.392 233.269 131.262 233.768 131.262 234.461V239ZM135.507 239H134.571V232.321H133.566V231.48H134.53V231.275C134.53 230.478 134.73 229.888 135.131 229.505C135.537 229.122 136.157 228.931 136.991 228.931H137.08V229.799C136.501 229.808 136.091 229.924 135.849 230.147C135.612 230.366 135.494 230.742 135.494 231.275V231.48H137.08V232.321H135.507V239ZM145.249 235.541H138.461C138.52 236.361 138.816 237.024 139.35 237.53C139.883 238.036 140.548 238.289 141.346 238.289C141.911 238.289 142.419 238.143 142.87 237.852C143.321 237.555 143.67 237.145 143.916 236.621H145.01C144.663 237.455 144.176 238.095 143.547 238.542C142.923 238.989 142.198 239.212 141.373 239.212C140.279 239.212 139.354 238.822 138.598 238.043C137.841 237.264 137.463 236.327 137.463 235.233C137.463 234.09 137.832 233.144 138.57 232.396C139.313 231.649 140.261 231.275 141.414 231.275C142.544 231.275 143.465 231.665 144.176 232.444C144.891 233.219 145.249 234.229 145.249 235.473V235.541ZM144.183 234.728C144 233.884 143.665 233.251 143.178 232.827C142.69 232.399 142.054 232.185 141.271 232.185C140.541 232.185 139.924 232.415 139.418 232.875C138.912 233.331 138.602 233.948 138.488 234.728H144.183ZM152.229 233.791C151.933 233.244 151.57 232.841 151.142 232.581C150.718 232.317 150.212 232.185 149.624 232.185C148.85 232.185 148.191 232.479 147.649 233.066C147.111 233.654 146.842 234.381 146.842 235.247C146.842 236.113 147.113 236.838 147.656 237.421C148.198 238 148.868 238.289 149.665 238.289C150.249 238.289 150.764 238.146 151.21 237.858C151.657 237.571 151.996 237.168 152.229 236.648H153.295C153.004 237.464 152.546 238.095 151.921 238.542C151.297 238.989 150.561 239.212 149.713 239.212C148.624 239.212 147.704 238.827 146.952 238.057C146.204 237.282 145.83 236.35 145.83 235.261C145.83 234.149 146.209 233.208 146.965 232.438C147.726 231.663 148.651 231.275 149.741 231.275C150.556 231.275 151.274 231.496 151.894 231.938C152.518 232.376 152.985 232.993 153.295 233.791H152.229ZM155.21 239V232.451H153.781V231.48H155.21V229.047H156.174V231.48H157.602V232.451H156.174V239H155.21ZM158.245 239V229.047H159.209V239H158.245ZM159.627 231.48H160.734L163.058 237.585L165.492 231.48H166.613L162.552 241.434H161.52L162.525 238.986L159.627 231.48ZM168.65 236.409H167.68V229.047H168.65V236.409ZM168.65 239H167.68V237.182H168.65V239ZM175.713 239H174.735V229.047H175.713V239ZM177.853 229.197V232.978H177.162V229.197H177.853ZM185.045 232.656C185.35 232.223 185.728 231.895 186.179 231.672C186.635 231.444 187.143 231.33 187.704 231.33C188.725 231.33 189.467 231.638 189.932 232.253C190.397 232.864 190.629 233.848 190.629 235.206V239H189.707V235.008C189.707 234.014 189.543 233.308 189.214 232.889C188.886 232.465 188.351 232.253 187.608 232.253C187.18 232.253 186.801 232.342 186.473 232.52C186.15 232.693 185.892 232.943 185.701 233.271C185.587 233.477 185.505 233.711 185.455 233.976C185.405 234.235 185.379 234.691 185.379 235.343V239H184.47V234.789C184.47 233.923 184.295 233.285 183.944 232.875C183.593 232.46 183.055 232.253 182.331 232.253C181.893 232.253 181.508 232.342 181.175 232.52C180.847 232.693 180.587 232.943 180.396 233.271C180.278 233.477 180.193 233.711 180.143 233.976C180.098 234.235 180.075 234.691 180.075 235.343V239H179.125V231.48H180.075V232.335C180.362 232.002 180.699 231.752 181.087 231.583C181.478 231.414 181.921 231.33 182.413 231.33C182.982 231.33 183.502 231.451 183.971 231.692C184.441 231.929 184.798 232.251 185.045 232.656ZM195.634 235.979H196.625C196.662 236.626 196.915 237.175 197.384 237.626C197.854 238.077 198.4 238.303 199.025 238.303C199.695 238.303 200.26 238.052 200.72 237.551C201.185 237.045 201.417 236.423 201.417 235.685C201.417 234.937 201.185 234.333 200.72 233.873C200.26 233.408 199.656 233.176 198.909 233.176C198.485 233.176 198.102 233.271 197.76 233.463C197.418 233.65 197.115 233.937 196.851 234.324L196.099 233.976L196.981 229.047H201.472V230.024H197.815L197.316 232.8C197.603 232.595 197.885 232.447 198.163 232.355C198.446 232.26 198.751 232.212 199.079 232.212C200.05 232.212 200.845 232.54 201.465 233.196C202.085 233.853 202.395 234.691 202.395 235.712C202.395 236.678 202.062 237.501 201.397 238.18C200.736 238.859 199.934 239.198 198.991 239.198C198.093 239.198 197.327 238.897 196.694 238.296C196.06 237.69 195.707 236.917 195.634 235.979ZM204.186 229.197V232.978H203.496V229.197H204.186ZM207.612 239H206.518L210.455 230.024H206.101V229.047H211.59V229.942L207.612 239ZM215.699 229.197V232.978H215.002V229.197H215.699ZM213.826 229.197V232.978H213.135V229.197H213.826ZM227.136 235.192C227.136 234.395 226.851 233.7 226.282 233.107C225.712 232.51 225.056 232.212 224.313 232.212C223.506 232.212 222.818 232.51 222.248 233.107C221.683 233.7 221.401 234.436 221.401 235.315C221.401 236.154 221.683 236.863 222.248 237.441C222.814 238.016 223.493 238.303 224.286 238.303C225.051 238.303 225.717 238 226.282 237.394C226.851 236.783 227.136 236.049 227.136 235.192ZM227.136 237.811C226.835 238.243 226.427 238.583 225.913 238.829C225.402 239.075 224.851 239.198 224.258 239.198C223.155 239.198 222.237 238.822 221.503 238.07C220.77 237.314 220.403 236.382 220.403 235.274C220.403 234.149 220.776 233.208 221.524 232.451C222.276 231.695 223.215 231.316 224.34 231.316C224.919 231.316 225.45 231.435 225.933 231.672C226.416 231.904 226.817 232.242 227.136 232.684V231.48H228.079V239H227.136V237.811ZM229.454 231.48H230.39V232.335C230.687 231.993 231.028 231.74 231.416 231.576C231.808 231.412 232.254 231.33 232.756 231.33C233.307 231.33 233.797 231.433 234.225 231.638C234.658 231.843 235 232.137 235.251 232.52C235.424 232.788 235.547 233.105 235.62 233.47C235.697 233.83 235.736 234.363 235.736 235.069V239H234.786V234.789C234.786 233.9 234.615 233.256 234.273 232.854C233.936 232.453 233.394 232.253 232.646 232.253C232.209 232.253 231.824 232.342 231.491 232.52C231.163 232.693 230.903 232.943 230.712 233.271C230.593 233.477 230.509 233.711 230.459 233.976C230.413 234.235 230.39 234.691 230.39 235.343V239H229.454V231.48ZM243.475 235.315C243.475 234.459 243.19 233.727 242.62 233.121C242.055 232.515 241.39 232.212 240.624 232.212C239.831 232.212 239.152 232.501 238.587 233.08C238.022 233.654 237.739 234.358 237.739 235.192C237.739 236.072 238.022 236.81 238.587 237.407C239.157 238.004 239.845 238.303 240.652 238.303C241.394 238.303 242.051 238.004 242.62 237.407C243.19 236.81 243.475 236.113 243.475 235.315ZM243.447 232.67V230.995V229.047H244.418V239H243.447V237.865C243.11 238.285 242.691 238.613 242.19 238.85C241.688 239.082 241.157 239.198 240.597 239.198C239.512 239.198 238.598 238.815 237.856 238.05C237.113 237.284 236.741 236.345 236.741 235.233C236.741 234.131 237.108 233.203 237.842 232.451C238.576 231.695 239.494 231.316 240.597 231.316C241.189 231.316 241.727 231.433 242.21 231.665C242.698 231.893 243.11 232.228 243.447 232.67Z" fill="#222222"/>
<defs>
<clipPath id="clip0_186_157">
<rect width="139" height="108" fill="white" transform="translate(65)"/>
</clipPath>
</defs>
</svg>
