<svg width="139" height="108" viewBox="0 0 139 108" fill="none" xmlns="http://www.w3.org/2000/svg">
<path d="M94.4391 80.8156L94.4904 80.7541C94.7132 80.5722 94.9386 80.3903 95.1641 80.211C95.7148 80.439 95.9914 80.0086 96.3014 79.714C97.7487 78.328 99.2164 76.9625 100.6 75.515C101.132 74.9591 101.489 74.9488 102.088 75.3587C103.177 76.1043 104.373 76.6679 105.6 77.1572C111.886 79.6653 118.151 79.4809 124.396 77.0009C125.8 77.1188 126.763 76.6243 127.073 75.6252C127.317 75.4535 127.555 75.2742 127.806 75.1128C138.239 68.4057 141.997 55.03 136.436 43.9497C132.911 36.9275 127.201 32.6004 119.504 30.9582C118.756 30.7994 118.484 30.5201 118.377 29.7439C118.144 28.0581 117.78 26.3878 117.403 24.7251C112.362 2.521 84.4593 -8.87183 65.3297 8.52612C63.1216 10.5347 61.162 12.7687 59.3664 15.3408C57.978 12.9326 56.1337 11.0855 54.2791 9.29726C39.8858 -4.59599 19.8596 -2.0392 8.36077 11.1444C0.709415 19.9164 -1.0017 30.5919 0.491684 41.7823C1.79039 51.5253 6.0605 60.1538 11.7446 68.0804C15.0925 72.7533 19.3037 76.6423 23.4534 80.585C34.1889 90.7891 45.803 99.8506 58.4109 107.634C59.1077 108.064 59.5892 108.151 60.3398 107.69C72.3534 100.261 83.509 91.7191 93.8013 82.0453C94.0984 81.7661 94.5416 81.5406 94.2752 81.0001C94.3264 80.9386 94.3828 80.8771 94.4391 80.8156Z" fill="#FEFEFE"/>
<path d="M95.1637 80.2084C94.9409 80.3903 94.7155 80.5722 94.4926 80.7516L94.4414 80.813C94.385 80.8745 94.3287 80.936 94.2723 80.9975C93.906 81.2819 93.5141 81.5355 93.1785 81.8532C83.1552 91.3118 72.2456 99.6124 60.5521 106.896C59.7068 107.421 59.092 107.424 58.2569 106.891C53.3541 103.786 48.5307 100.571 43.8789 97.1017C36.9653 91.9471 30.3616 86.4262 24.1755 80.4108C24.0884 80.3288 24.0013 80.2443 23.9142 80.1623C23.9142 79.6781 23.9859 79.2708 24.6366 79.4937C25.049 79.6346 25.2001 79.427 25.1899 79.0632C25.1489 77.8643 25.7201 77.0829 26.7627 76.5398C27.2519 76.2836 27.6925 75.7584 27.608 75.2332C27.485 74.4749 25.2027 73.8882 24.4829 74.3212C23.9321 74.6542 23.7528 75.0052 24.2728 75.5176C24.6443 75.8839 24.8389 76.24 24.0628 76.3246C23.6709 76.3681 23.4762 76.6474 23.3327 76.965C22.9818 77.7336 22.3465 77.9514 21.5653 77.8976L21.5883 77.9027C21.4961 77.8079 21.4065 77.7131 21.3142 77.6183L21.3424 77.6337C21.2195 77.5415 21.0939 77.4492 20.971 77.357C14.439 71.4979 9.34155 64.6012 5.65036 56.6183C1.35207 47.316 -0.62288 37.7447 1.35976 27.5124C3.08368 18.6149 7.12581 11.1956 14.813 6.15633C24.8082 -0.397039 35.2952 -1.368 46.1152 4.06069C51.3356 6.67896 55.4392 10.6141 58.7539 15.3843C59.2354 16.0786 59.4865 16.2887 60.0398 15.4305C60.7288 14.3596 61.5383 13.3553 62.358 12.3767C72.2558 0.553431 87.538 -2.70788 100.791 4.2144C111.017 9.55343 116.184 18.3254 117.777 29.4902C117.89 30.2819 117.7 30.62 116.863 30.5124C116.355 30.4484 115.841 30.4561 115.328 30.4484C103.671 30.246 93.5807 37.9266 91.1114 49.3066C89.0135 58.9907 91.9644 67.1683 99.5491 73.5833C100.528 74.4108 100.505 74.8848 99.6413 75.7456C98.1505 77.2315 96.4701 78.5355 95.1637 80.2084ZM58.4106 42.059C58.0469 42.4125 57.6857 42.8865 57.0171 42.3485C56.6713 42.0692 56.1974 42.4407 55.8952 42.7328C55.5314 43.0837 55.8798 43.3502 56.1103 43.5833C56.5151 43.9907 56.3588 44.2571 55.908 44.4339C54.7886 44.8745 54.2148 45.971 53.5514 46.7883C52.619 47.936 51.1 48.392 50.4365 49.7575C50.352 49.9343 50.124 49.8369 49.9857 49.7319C49.6604 49.4834 49.3325 49.2887 48.9687 49.6474C48.564 50.0521 48.915 50.4467 49.0174 50.8335C49.2018 51.5278 49.9498 51.6508 50.375 52.1094C50.457 52.1965 50.7208 52.2067 50.8438 52.1427C51.0564 52.0325 51.0436 51.8071 50.9642 51.5842C50.8745 51.3357 50.4698 51.1743 50.7337 50.8207C51.1768 50.7131 51.4714 51.4715 51.8761 51.0872C52.2936 50.6901 51.4586 50.2955 51.7685 49.7575C52.5421 49.8805 53.4591 50.5107 54.0252 49.3374C54.6272 48.0923 55.6441 47.4672 57.1196 47.4851C56.2666 46.3732 57.2451 45.8276 57.8881 45.4279C58.5489 45.0154 58.6053 44.3263 59.0382 43.8472C59.1099 43.7678 58.9306 43.3553 58.5899 42.7635C58.4875 42.5688 58.8563 42.2767 58.4106 42.059ZM82.4175 66.2204C82.0435 66.0129 81.5004 65.8643 81.5235 65.2187C81.5312 65.0291 81.2827 64.8318 81.2212 64.9189C80.7294 65.6004 80.2017 65.2315 79.5972 65.1393C79.1848 65.0752 78.6674 65.8643 78.8492 66.1153C79.5255 67.0351 78.7698 67.24 78.2959 67.6858C77.6658 68.2776 77.1637 69.0001 76.5618 69.6226C75.6063 70.6141 74.5023 71.4159 73.5545 72.3946C73.3368 72.62 73.0755 72.7968 72.7579 72.6687C72.3301 72.4971 71.9535 72.5073 71.8639 73.012C71.7512 73.6474 71.9587 74.2776 72.6042 74.4621C73.0627 74.5953 73.4649 75.3562 73.9336 74.8643C74.2897 74.4902 73.47 74.2545 73.4495 73.8267C73.4469 73.7575 73.5161 73.6858 73.5776 73.5577C73.7184 73.632 73.8696 73.6909 73.9977 73.7831C74.2922 73.9958 74.5586 74.4672 74.9608 74.129C75.3655 73.7883 74.8097 73.5782 74.7174 73.2938C74.5817 72.8711 74.7943 72.7661 75.1965 72.8839C75.947 73.1017 76.549 72.8967 76.8896 72.1666C77.01 71.9104 76.946 71.4749 77.3354 71.4902C78.3497 71.5312 78.4932 69.7635 79.7483 70.3579C79.7688 70.3681 79.902 70.2426 79.8969 70.1888C79.7278 68.2264 81.7515 67.6935 82.4175 66.2204ZM35.4258 18.8609C35.0442 19.6038 34.665 19.8549 33.9068 19.3707C33.5841 19.1632 32.7336 19.8036 33.1076 20.5082C33.4509 21.1563 33.3535 21.3741 32.7208 21.62C32.3366 21.7712 32.0932 22.1555 31.8653 22.5321C31.3709 23.3493 30.1798 23.6132 30.0696 24.7533C28.7325 24.784 28.3559 26.0547 27.5132 26.7234C27.3006 26.8925 27.0829 27.2614 26.7934 26.8771C26.6166 26.644 26.5782 26.2469 26.1786 26.585C25.9225 26.8028 25.9378 27.1179 26.0019 27.4176C26.1863 28.2682 27.0034 28.5244 27.5516 29.0317C27.608 29.0829 27.8564 29.0445 27.8718 28.9984C27.923 28.8549 27.9307 28.6807 27.9051 28.5295C27.859 28.2656 27.3646 28.0658 27.6925 27.7738C28.0357 27.4689 28.297 27.8814 28.5762 28.0351C28.7786 28.1478 28.9758 28.1632 29.1603 27.9966C29.3447 27.4689 28.4149 27.2998 28.7069 26.6644C29.8186 27.2691 30.7945 27.5381 31.1301 25.9164C32.2905 25.8856 32.4775 23.667 34.1553 24.8071C33.5841 22.4245 36.056 21.9915 36.535 20.3826C35.8049 20.0393 35.8049 20.0393 35.4258 18.8609ZM83.957 19.0786C84.1645 18.5739 83.2833 18.2844 83.7853 17.7849C84.979 18.3946 85.2787 18.3305 85.8448 17.1444C86.0472 16.7217 86.3802 16.5884 86.6824 16.3297C87.4586 15.6662 88.7522 15.5662 89.0263 14.3621C89.1902 13.6422 89.6769 13.2528 90.2174 12.8455C91.0089 12.2486 91.7466 11.6542 90.722 10.5705C90.3199 10.1427 90.1405 9.83012 89.7281 10.4706C89.5821 10.696 89.4054 10.6115 89.18 10.5577C88.3116 10.3502 87.9017 10.8216 88.1297 11.7362C88.2219 12.1102 88.2219 12.4125 87.7737 12.5406C87.3305 12.6687 87.1512 13.0761 86.8618 13.3835C85.5093 14.8207 84.167 16.2708 82.6096 17.5005C82.3381 17.7157 82.0921 17.9898 81.7105 17.8489C80.5065 17.4083 80.8114 18.1999 80.8626 18.8429C80.9215 19.5987 81.6234 19.6397 82.0409 20.0009C82.2971 20.2212 82.4866 20.6132 82.8606 20.2443C83.2295 19.8805 82.8427 19.6448 82.6403 19.3937C82.5122 19.2349 82.3278 19.094 82.4738 18.8224C82.9938 18.6277 83.3499 19.3323 83.957 19.0786ZM77.3277 21.451C77.5147 22.1196 76.3927 22.6935 77.2303 23.1982C77.7836 23.5338 78.5009 23.6875 79.1592 23.7387C80.0583 23.8079 81.0906 22.6807 81.0112 21.866C80.9395 21.123 79.756 19.6935 79.2591 19.7473C77.9988 19.8907 77.2867 20.5517 77.3277 21.451ZM46.2228 51.9787C44.2299 52.0863 45.5516 53.6721 45.3237 54.4253C45.0624 55.2964 46.4021 55.445 47.1833 55.5449C48.2771 55.6884 48.9252 55.0633 49.0251 54.0948C49.1301 53.0573 48.336 52.4603 47.8878 51.7379C47.3217 50.8284 46.9451 52.7114 46.2228 51.9787ZM25.9609 30.743C26.0301 30.041 25.6228 29.4774 25.0874 28.9497C24.4393 28.3118 24.0269 29.1572 23.4941 29.1572C22.7692 29.1572 22.0135 29.3442 22.4644 30.1743C22.8717 30.9275 21.7881 31.4347 22.3132 31.8728C23.01 32.4569 23.8912 32.9334 24.8748 32.6465C25.7406 32.3929 25.9814 31.6704 25.9609 30.743ZM69.1051 75.0692C67.499 75.059 68.5006 76.4706 68.1394 77.1239C67.8832 77.5876 69.2485 78.5586 70.1528 78.6124C70.9596 78.6585 72.0432 77.6721 72.0534 76.8651C72.0637 76.0043 71.349 75.5355 70.9468 74.9053C70.2347 73.7857 69.8607 75.6815 69.1051 75.0692Z" fill="#EE0000"/>
<path d="M127.073 75.6226C126.763 76.6217 125.803 77.1162 124.397 76.9983C124.225 76.4808 124.228 76.4911 123.351 76.8062C115.393 79.655 107.859 78.8327 100.92 73.9573C91.9494 67.655 88.6066 55.7549 92.828 45.6123C97.0853 35.3877 107.908 29.4134 118.743 31.3117C128.572 33.0308 136.423 40.8164 138.088 50.4953C139.807 60.4714 135.222 70.2836 126.515 75.2895C126.11 75.5227 125.744 75.8275 125.36 76.0991C125.882 75.7251 126.574 75.9684 127.073 75.6226ZM127.739 45.7353C127.693 43.7857 126.927 42.6713 125.513 42.0615C124.028 41.4185 122.652 41.7413 121.51 42.8583C119.466 44.8591 117.439 46.8779 115.447 48.9275C114.947 49.4424 114.673 49.4783 114.15 48.9377C112.222 46.942 110.247 44.9949 108.272 43.0453C106.555 41.3493 104.319 41.2648 102.831 42.8122C101.32 44.3826 101.453 46.5295 103.177 48.2588C105.047 50.1316 106.881 52.0427 108.812 53.8514C109.583 54.5739 109.455 54.9608 108.774 55.614C106.832 57.474 104.952 59.398 103.056 61.3066C101.412 62.9642 101.289 65.1572 102.731 66.6636C104.253 68.2494 106.455 68.1905 108.174 66.4945C110.147 64.5449 112.122 62.5953 114.05 60.6021C114.596 60.0385 114.911 59.9283 115.516 60.5637C117.398 62.5415 119.355 64.4501 121.292 66.3766C122.993 68.0675 125.211 68.1777 126.746 66.661C128.272 65.1521 128.157 62.9488 126.438 61.2093C124.578 59.3263 122.744 57.4125 120.803 55.6166C119.98 54.8557 120.106 54.4842 120.846 53.79C122.773 51.9761 124.604 50.0624 126.479 48.1947C127.266 47.4082 127.785 46.5141 127.739 45.7353Z" fill="#FCFCFC"/>
<path d="M127.073 75.6224C126.574 75.9708 125.882 75.7249 125.365 76.0964C125.749 75.8248 126.113 75.52 126.52 75.2868C135.227 70.2808 139.812 60.4687 138.093 50.4926C136.426 40.8137 128.577 33.0281 118.748 31.309C107.913 29.4132 97.0903 35.385 92.833 45.6096C88.609 55.7522 91.9519 67.6523 100.925 73.9546C107.864 78.8299 115.398 79.6523 123.356 76.8035C124.233 76.4909 124.227 76.4781 124.402 76.9956C118.157 79.4755 111.891 79.6574 105.605 77.1519C104.378 76.6626 103.182 76.0989 102.093 75.3534C101.494 74.9435 101.138 74.9538 100.605 75.5097C99.2215 76.9572 97.7512 78.3227 96.3065 79.7087C95.9966 80.0059 95.7199 80.4337 95.1692 80.2057C96.4756 78.5302 98.1559 77.2287 99.6519 75.7428C100.518 74.882 100.541 74.4081 99.5597 73.5806C91.9749 67.1656 89.0215 58.9879 91.1219 49.3039C93.5887 37.9213 103.681 30.2407 115.339 30.4456C115.851 30.4533 116.366 30.4456 116.873 30.5097C117.711 30.6147 117.9 30.2791 117.788 29.4875C116.192 18.3227 111.028 9.55068 100.802 4.21166C87.5383 -2.70807 72.2561 0.550684 62.3583 12.3739C61.5386 13.3551 60.7291 14.3568 60.0401 15.4277C59.4868 16.286 59.2383 16.0759 58.7542 15.3816C55.4395 10.6113 51.3359 6.67366 46.1155 4.05794C35.2929 -1.36819 24.8085 -0.399786 14.8133 6.15359C7.1261 11.1954 3.08654 18.6147 1.36005 27.5123C-0.622591 37.7445 1.3498 47.3158 5.65065 56.6182C9.34184 64.6011 14.4368 71.4977 20.961 77.3671C21.084 77.4593 21.2095 77.5516 21.3325 77.6438L21.3043 77.6284C21.3248 77.7924 21.4093 77.8923 21.5784 77.9128C21.5784 77.9128 21.5553 77.9077 21.5579 77.9077C22.229 78.7787 23.0205 79.5242 23.9094 80.1698C23.9965 80.2518 24.0836 80.3363 24.1707 80.4183C30.3568 86.4337 36.9605 91.9521 43.8741 97.1092C48.5259 100.578 53.3519 103.793 58.2521 106.898C59.0897 107.429 59.7045 107.429 60.5472 106.903C72.2433 99.6199 83.1504 91.3193 93.1737 81.8607C93.5093 81.543 93.9012 81.2894 94.2675 81.005C94.5365 81.5456 94.0933 81.771 93.7936 82.0528C83.5013 91.7266 72.3458 100.268 60.3321 107.698C59.5841 108.161 59.1025 108.072 58.4032 107.641C45.7953 99.8581 34.1812 90.7966 23.4457 80.5925C19.2986 76.6497 15.0874 72.7582 11.7369 68.0878C6.0605 60.1536 1.79039 51.5251 0.491684 41.7821C-1.0017 30.5917 0.709415 19.9162 8.36077 11.1442C19.8596 -2.03941 39.8858 -4.5962 54.2791 9.29449C56.1337 11.0853 57.978 12.9324 59.3664 15.338C61.162 12.7659 63.1216 10.5319 65.3297 8.52336C84.4593 -8.87203 112.362 2.51823 117.401 24.7198C117.777 26.3825 118.141 28.0528 118.374 29.7386C118.482 30.5174 118.753 30.7941 119.501 30.9529C127.199 32.5925 132.908 36.9222 136.433 43.9444C141.994 55.0246 138.237 68.4004 127.803 75.1075C127.555 75.2714 127.317 75.4508 127.073 75.6224Z" fill="#EE0000"/>
<path d="M94.439 80.8156L94.4902 80.7541C94.4902 80.7515 94.439 80.8156 94.439 80.8156Z" fill="#EE0000"/>
<path d="M58.411 42.059C58.8567 42.2767 58.4879 42.5688 58.6006 42.7635C58.9412 43.3553 59.1206 43.7703 59.0488 43.8472C58.6159 44.3263 58.5596 45.0154 57.8987 45.4279C57.2557 45.8275 56.2772 46.3732 57.1302 47.4851C55.6522 47.4672 54.6378 48.0923 54.0359 49.3374C53.4672 50.5133 52.5527 49.8805 51.7791 49.7575C51.4692 50.2955 52.3043 50.6926 51.8867 51.0871C51.482 51.4714 51.1874 50.7105 50.7443 50.8207C50.4804 51.1742 50.8852 51.3356 50.9748 51.5842C51.0542 51.807 51.067 52.0299 50.8544 52.1426C50.7315 52.2067 50.4651 52.1964 50.3857 52.1093C49.9604 51.6508 49.2125 51.5252 49.028 50.8335C48.9256 50.4467 48.5747 50.0521 48.9794 49.6473C49.3406 49.2861 49.671 49.4808 49.9963 49.7319C50.1321 49.8369 50.3601 49.9317 50.4471 49.7575C51.1106 48.392 52.6296 47.9334 53.562 46.7883C54.2254 45.9736 54.7992 44.8745 55.9186 44.4339C56.3694 44.2571 56.5257 43.9906 56.121 43.5833C55.8904 43.3502 55.5421 43.0837 55.9058 42.7327C56.2081 42.4407 56.682 42.0692 57.0278 42.3485C57.6861 42.8839 58.0473 42.4125 58.411 42.059Z" fill="#EE0000"/>
<path d="M82.4178 66.2204C81.7518 67.6935 79.7281 68.2238 79.8998 70.1913C79.9049 70.2451 79.7717 70.3707 79.7512 70.3604C78.496 69.7661 78.3526 71.5338 77.3382 71.4928C76.9514 71.4774 77.0129 71.9129 76.8925 72.1691C76.5518 72.8993 75.9498 73.1042 75.1993 72.8865C74.7971 72.7686 74.5845 72.8737 74.7203 73.2964C74.8125 73.5782 75.3684 73.7883 74.9636 74.1315C74.5615 74.4723 74.2951 73.9983 74.0005 73.7857C73.8724 73.6935 73.7213 73.6345 73.5804 73.5602C73.5164 73.6883 73.4472 73.7601 73.4523 73.8292C73.4728 74.2545 74.2925 74.4902 73.9365 74.8668C73.4677 75.3587 73.0655 74.5953 72.607 74.4646C71.959 74.2776 71.754 73.6474 71.8667 73.0146C71.9564 72.5124 72.3329 72.4996 72.7607 72.6713C73.0783 72.7994 73.3371 72.62 73.5574 72.3971C74.5077 71.4185 75.6117 70.6166 76.5646 69.6251C77.1666 69 77.6686 68.2801 78.2988 67.6883C78.7727 67.2426 79.5283 67.0376 78.8521 66.1179C78.6676 65.8668 79.1876 65.0803 79.6001 65.1418C80.2046 65.234 80.7323 65.6029 81.2241 64.9215C81.2856 64.8344 81.534 65.0316 81.5263 65.2212C81.5007 65.8668 82.0412 66.0129 82.4178 66.2204Z" fill="#EE0000"/>
<path d="M35.4262 18.8608C35.8053 20.0393 35.8053 20.0393 36.5379 20.3801C36.0589 21.9889 33.587 22.4219 34.1583 24.8045C32.4804 23.667 32.296 25.8856 31.1331 25.9138C30.7975 27.538 29.8216 27.269 28.7098 26.6619C28.4153 27.2972 29.3477 27.4663 29.1632 27.9966C28.9788 28.1631 28.7841 28.1452 28.5792 28.0325C28.3 27.8788 28.0362 27.4689 27.6955 27.7712C27.365 28.0632 27.862 28.2631 27.9081 28.5269C27.9337 28.6806 27.9234 28.8523 27.8748 28.9958C27.8594 29.0419 27.6109 29.0803 27.5546 29.0291C27.0064 28.5218 26.1893 28.2656 26.0048 27.4151C25.9408 27.1153 25.9229 26.8002 26.1816 26.5824C26.5812 26.2443 26.6196 26.6414 26.7964 26.8745C27.0858 27.2588 27.3035 26.8899 27.5162 26.7208C28.3589 26.0521 28.7355 24.7789 30.0726 24.7507C30.1827 23.6106 31.3739 23.3467 31.8682 22.5295C32.0962 22.1529 32.3396 21.7686 32.7238 21.6175C33.3565 21.369 33.4538 21.1538 33.1106 20.5056C32.7366 19.8011 33.587 19.1631 33.9098 19.3681C34.6654 19.8549 35.0446 19.6038 35.4262 18.8608Z" fill="#EE0000"/>
<path d="M83.9572 19.0785C83.3501 19.3322 82.994 18.6276 82.4766 18.8147C82.3306 19.0862 82.515 19.2246 82.6431 19.386C82.8455 19.637 83.2323 19.8727 82.8634 20.2365C82.4894 20.6054 82.2973 20.2135 82.0437 19.9931C81.6262 19.6319 80.9217 19.5909 80.8654 18.8351C80.8167 18.1921 80.5119 17.4005 81.7133 17.8411C82.0949 17.982 82.3408 17.7079 82.6124 17.4927C84.1698 16.2655 85.512 14.8155 86.8645 13.3757C87.154 13.0683 87.3307 12.6609 87.7765 12.5328C88.2222 12.4047 88.2247 12.0999 88.1325 11.7284C87.9071 10.8138 88.3144 10.3424 89.1827 10.5499C89.4082 10.6037 89.5849 10.6883 89.7309 10.4628C90.1433 9.82233 90.3226 10.1349 90.7248 10.5627C91.7469 11.649 91.0117 12.2433 90.2202 12.8377C89.6797 13.2451 89.1955 13.6319 89.029 14.3544C88.755 15.561 87.4614 15.6584 86.6852 16.3219C86.383 16.5807 86.05 16.7139 85.8476 17.1366C85.2815 18.3228 84.9818 18.3868 83.7881 17.7771C83.2835 18.2843 84.1621 18.5738 83.9572 19.0785Z" fill="#EE0000"/>
<path d="M23.9091 80.1674C23.0203 79.5218 22.2287 78.7763 21.5576 77.9053C22.3389 77.9616 22.9742 77.7439 23.3251 76.9727C23.4711 76.6551 23.6658 76.3758 24.0551 76.3323C24.8313 76.2451 24.6366 75.8916 24.2652 75.5252C23.7452 75.0103 23.9245 74.6619 24.4752 74.3288C25.195 73.8959 27.4774 74.4825 27.6003 75.2409C27.6848 75.7661 27.2443 76.2913 26.755 76.5475C25.7125 77.0906 25.1438 77.872 25.1822 79.0709C25.195 79.4347 25.0413 79.6422 24.6289 79.5013C23.9808 79.2759 23.9066 79.6832 23.9091 80.1674Z" fill="#EE0000"/>
<path d="M77.3279 21.4509C77.2869 20.5517 77.999 19.8907 79.2644 19.7498C79.7613 19.6934 80.9422 21.123 81.0165 21.8685C81.0959 22.6832 80.061 23.8104 79.1645 23.7412C78.5062 23.69 77.7889 23.5363 77.2356 23.2007C76.3929 22.6934 77.5149 22.1196 77.3279 21.4509Z" fill="#EE0000"/>
<path d="M46.2228 51.9786C46.9452 52.7113 47.3243 50.8283 47.8904 51.7404C48.3387 52.4603 49.1328 53.0598 49.0277 54.0973C48.9278 55.0657 48.2798 55.6909 47.186 55.5474C46.4047 55.4449 45.0624 55.2989 45.3263 54.4278C45.5517 53.6721 44.2299 52.0862 46.2228 51.9786Z" fill="#EE0000"/>
<path d="M25.961 30.7429C25.9815 31.6729 25.7381 32.3928 24.8749 32.6439C23.8887 32.9308 23.0101 32.4543 22.3134 31.8702C21.7882 31.4295 22.8718 30.9223 22.4645 30.1716C22.0162 29.3416 22.7693 29.1546 23.4942 29.1546C24.027 29.1546 24.4394 28.3091 25.0875 28.947C25.6229 29.4774 26.0302 30.041 25.961 30.7429Z" fill="#EE0000"/>
<path d="M69.1051 75.0692C69.8607 75.6841 70.2373 73.7857 70.9468 74.9053C71.349 75.5355 72.0637 76.0043 72.0534 76.8651C72.0432 77.6721 70.9622 78.6585 70.1527 78.6124C69.2485 78.5586 67.8832 77.5876 68.1394 77.1239C68.498 76.4681 67.499 75.0564 69.1051 75.0692Z" fill="#EE0000"/>
<path d="M21.5783 77.9103C21.4092 77.8898 21.3247 77.7899 21.3042 77.626C21.3939 77.7208 21.4861 77.8156 21.5783 77.9103Z" fill="#EE0000"/>
<path d="M24.168 80.4159C24.0809 80.3339 23.9938 80.2493 23.9067 80.1674C23.9938 80.2493 24.0809 80.3313 24.168 80.4159Z" fill="#EE0000"/>
<path d="M127.739 45.7352C127.785 46.5141 127.266 47.4082 126.479 48.1921C124.604 50.0597 122.773 51.9735 120.846 53.7873C120.109 54.4842 119.98 54.8531 120.803 55.614C122.744 57.4099 124.576 59.3236 126.438 61.2066C128.157 62.9462 128.27 65.152 126.746 66.6584C125.214 68.1725 122.995 68.0649 121.292 66.374C119.355 64.4474 117.398 62.5388 115.516 60.561C114.911 59.9257 114.596 60.0358 114.05 60.5994C112.122 62.5926 110.147 64.5422 108.174 66.4919C106.455 68.1904 104.253 68.2468 102.731 66.6609C101.286 65.1545 101.412 62.9615 103.056 61.304C104.949 59.3953 106.832 57.4714 108.774 55.6114C109.455 54.9581 109.583 54.5687 108.812 53.8488C106.881 52.0427 105.047 50.1315 103.177 48.2562C101.453 46.5294 101.32 44.38 102.831 42.8095C104.322 41.2621 106.555 41.3467 108.272 43.0427C110.247 44.9923 112.222 46.9393 114.15 48.9351C114.67 49.4731 114.947 49.4372 115.447 48.9248C117.439 46.8753 119.466 44.8539 121.51 42.8556C122.652 41.7386 124.028 41.4158 125.513 42.0589C126.927 42.6712 127.693 43.7882 127.739 45.7352ZM127.153 45.5995C127.166 44.111 126.436 43.0503 125.055 42.4816C123.871 41.9948 122.847 42.3714 122.012 43.1913C119.901 45.2715 117.829 47.3954 115.767 49.5269C115.103 50.2135 114.583 50.298 113.861 49.5499C111.906 47.5234 109.885 45.561 107.895 43.5704C107.442 43.117 106.996 42.6686 106.34 42.4944C104.998 42.1357 103.535 42.6379 102.846 43.719C102.006 45.0384 102.083 46.2143 103.246 47.4235C105.349 49.6037 107.498 51.7378 109.652 53.8693C110.293 54.5021 110.387 54.9453 109.637 55.6396C107.357 57.7455 105.154 59.9334 103.097 62.2621C101.983 63.5252 102.042 64.9957 103.279 66.2305C104.442 67.3936 106.076 67.4372 107.296 66.3971C109.696 64.3501 111.786 61.988 114.025 59.7771C114.647 59.1597 115.011 59.1802 115.569 59.7745C117.409 61.7318 119.43 63.5098 121.197 65.5414C122.616 67.1733 124.271 67.6652 125.708 66.7327C127.296 65.7002 128.19 63.8018 126.118 61.6447C124.169 59.6157 122.171 57.6276 120.137 55.6806C119.378 54.9556 119.332 54.4662 120.116 53.7182C122.153 51.7737 124.11 49.7497 126.11 47.7668C126.735 47.1468 127.222 46.4756 127.153 45.5995Z" fill="#EE0000"/>
<path d="M127.153 45.5995C127.222 46.4731 126.735 47.1469 126.108 47.7695C124.11 49.7524 122.15 51.7789 120.114 53.7208C119.33 54.4689 119.376 54.9582 120.134 55.6832C122.168 57.6303 124.163 59.6183 126.115 61.6473C128.188 63.8045 127.294 65.7028 125.705 66.7353C124.271 67.6678 122.614 67.1759 121.195 65.544C119.43 63.5124 117.409 61.7344 115.567 59.7771C115.008 59.1828 114.645 59.1623 114.022 59.7797C111.786 61.9906 109.693 64.3527 107.293 66.3997C106.074 67.4398 104.442 67.3963 103.277 66.2332C102.039 64.9983 101.98 63.5252 103.095 62.2648C105.152 59.936 107.355 57.7455 109.634 55.6422C110.385 54.9479 110.29 54.5047 109.65 53.8719C107.498 51.7404 105.346 49.6063 103.243 47.4262C102.078 46.2195 102.003 45.041 102.844 43.7216C103.533 42.6379 104.993 42.1384 106.338 42.497C106.991 42.6713 107.439 43.1196 107.892 43.573C109.883 45.5636 111.906 47.5261 113.858 49.5525C114.578 50.3006 115.098 50.2161 115.764 49.5295C117.826 47.398 119.898 45.2742 122.009 43.1939C122.844 42.3715 123.869 41.9949 125.052 42.4842C126.436 43.0504 127.166 44.111 127.153 45.5995Z" fill="#EE0000"/>
</svg>
