<svg width="46" height="46" viewBox="0 0 46 46" fill="none" xmlns="http://www.w3.org/2000/svg">
<path d="M0 6C0 2.68629 2.68629 0 6 0H40C43.3137 0 46 2.68629 46 6V40C46 43.3137 43.3137 46 40 46H6C2.68629 46 0 43.3137 0 40V6Z" fill="#EE0000"/>
<rect x="10" y="14.7826" width="27" height="1.76087" rx="0.880435" fill="#FEFEFE"/>
<rect x="10" y="21.8261" width="27" height="1.76087" rx="0.880435" fill="#FEFEFE"/>
<rect x="10" y="28.8696" width="27" height="1.76087" rx="0.880435" fill="#FEFEFE"/>
<circle cx="29.9565" cy="15.9565" r="2.34783" fill="#EE0000"/>
<circle cx="14.6957" cy="23" r="2.34783" fill="#EE0000"/>
<circle cx="31.1304" cy="30.0435" r="2.34783" fill="#EE0000"/>
<circle cx="31.1304" cy="15.9565" r="2.34783" fill="#FEFEFE"/>
<circle cx="15.8696" cy="23" r="2.34783" fill="#FEFEFE"/>
<circle cx="32.3044" cy="30.0435" r="2.34783" fill="#FEFEFE"/>
</svg>
