<svg width="19" height="19" viewBox="0 0 19 19" fill="none" xmlns="http://www.w3.org/2000/svg">
<path d="M9.5 15.25C9.83542 15.25 10.1191 15.134 10.351 14.9021C10.5829 14.6702 10.6986 14.3869 10.6979 14.0521C10.6979 13.7167 10.582 13.433 10.35 13.2011C10.1181 12.9692 9.83478 12.8535 9.5 12.8542C9.16459 12.8542 8.88092 12.9701 8.649 13.202C8.41709 13.434 8.30145 13.7173 8.30208 14.0521C8.30208 14.3875 8.41804 14.6712 8.64996 14.9031C8.88188 15.135 9.16522 15.2506 9.5 15.25ZM8.6375 11.5604H10.4104C10.4104 10.9854 10.4743 10.5622 10.6021 10.2906C10.7299 10.0191 11.0014 9.6757 11.4167 9.26042C11.9757 8.70139 12.3708 8.23404 12.6021 7.85838C12.8334 7.48271 12.9494 7.05561 12.95 6.57709C12.95 5.73056 12.6625 5.0479 12.0875 4.52913C11.5125 4.01035 10.7378 3.75064 9.76354 3.75C8.88507 3.75 8.13853 3.96563 7.52392 4.39688C6.90931 4.82813 6.48189 5.42709 6.24167 6.19375L7.82292 6.81667C7.93472 6.38542 8.15833 6.03818 8.49375 5.77496C8.82917 5.51174 9.22049 5.37981 9.66771 5.37917C10.099 5.37917 10.4583 5.49513 10.7458 5.72704C11.0333 5.95896 11.1771 6.26627 11.1771 6.64896C11.1771 6.92049 11.0892 7.20799 10.9135 7.51146C10.7378 7.81493 10.4424 8.15035 10.0271 8.51771C9.5 8.9809 9.13647 9.42429 8.9365 9.84788C8.73653 10.2715 8.63686 10.8423 8.6375 11.5604ZM2.79167 18.125C2.26458 18.125 1.81321 17.9372 1.43754 17.5615C1.06188 17.1858 0.874363 16.7348 0.875002 16.2083V2.79167C0.875002 2.26458 1.06283 1.81321 1.4385 1.43754C1.81417 1.06188 2.26522 0.874363 2.79167 0.875002H16.2083C16.7354 0.875002 17.1868 1.06283 17.5625 1.4385C17.9381 1.81417 18.1256 2.26522 18.125 2.79167V16.2083C18.125 16.7354 17.9372 17.1868 17.5615 17.5625C17.1858 17.9381 16.7348 18.1256 16.2083 18.125H2.79167ZM2.79167 16.2083H16.2083V2.79167H2.79167V16.2083Z" fill="white"/>
</svg>
