<svg width="19" height="20" viewBox="0 0 19 20" fill="none" xmlns="http://www.w3.org/2000/svg">
<path d="M10.0174 0.209835C9.9495 0.14332 9.86886 0.0905481 9.78008 0.0545412C9.6913 0.0185342 9.59612 0 9.5 0C9.40388 0 9.3087 0.0185342 9.21992 0.0545412C9.13114 0.0905481 9.0505 0.14332 8.98262 0.209835L0.213386 8.78072C0.145568 8.84717 0.0918151 8.92603 0.0552011 9.0128C0.0185871 9.09957 -0.000170342 9.19254 1.16557e-06 9.2864V19.2858C1.16557e-06 19.4752 0.0769927 19.6569 0.214038 19.7908C0.351084 19.9248 0.536958 20 0.73077 20H7.30769C7.5015 20 7.68738 19.9248 7.82442 19.7908C7.96147 19.6569 8.03846 19.4752 8.03846 19.2858V13.5718H10.9615V19.2858C10.9615 19.4752 11.0385 19.6569 11.1756 19.7908C11.3126 19.9248 11.4985 20 11.6923 20H18.2692C18.463 20 18.6489 19.9248 18.786 19.7908C18.923 19.6569 19 19.4752 19 19.2858V9.2864C19.0002 9.19254 18.9814 9.09957 18.9448 9.0128C18.9082 8.92603 18.8544 8.84717 18.7866 8.78072L16.8077 6.84798V2.144C16.8077 1.95457 16.7307 1.7729 16.5937 1.63895C16.4566 1.50501 16.2707 1.42976 16.0769 1.42976H14.6154C14.4216 1.42976 14.2357 1.50501 14.0987 1.63895C13.9616 1.7729 13.8846 1.95457 13.8846 2.144V3.99102L10.0174 0.209835ZM1.46154 18.5715V9.58209L9.5 1.72545L17.5385 9.58209V18.5715H12.4231V12.8576C12.4231 12.6682 12.3461 12.4865 12.209 12.3526C12.072 12.2186 11.8861 12.1434 11.6923 12.1434H7.30769C7.11388 12.1434 6.92801 12.2186 6.79096 12.3526C6.65391 12.4865 6.57692 12.6682 6.57692 12.8576V18.5715H1.46154Z" fill="#1B381C"/>
</svg>
