<svg width="11" height="15" viewBox="0 0 11 15" fill="none" xmlns="http://www.w3.org/2000/svg">
<path d="M10.4414 5.47059C10.4414 2.5595 8.22668 0.5 5.47082 0.5C2.72564 0.5 0.50023 2.72541 0.50023 5.47059C0.50023 5.8815 0.625978 6.41064 0.866662 7.03196C1.10481 7.64672 1.44256 8.31934 1.83637 9.0075C2.62394 10.3838 3.615 11.7866 4.41979 12.8573C4.9613 13.5778 5.99806 13.5825 6.54368 12.8687C7.34764 11.817 8.33278 10.4388 9.1146 9.06961C9.91105 7.67477 10.4414 6.38113 10.4414 5.47059Z" stroke="#EE0000"/>
<circle cx="2.93478" cy="2.93478" r="2.43478" transform="matrix(-1 0 0 1 8.33252 2.60864)" stroke="#EE0000"/>
</svg>
