<svg width="216" height="105" viewBox="0 0 216 105" fill="none" xmlns="http://www.w3.org/2000/svg">
<g clip-path="url(#clip0_1_171)">
<path d="M11.0621 99.7573H7.74349V89.713H3.27054V99.7573H0V77.3658H3.27054V86.5772H7.74349V77.3658H11.0621V99.7573Z" fill="#1B381C"/>
<path d="M22.6534 97.9444C22.6534 99.1204 22.0282 99.7083 20.8258 99.7083H15.2947C14.0923 99.7083 13.467 99.1204 13.467 97.9444V87.0672C13.467 85.8912 14.0923 85.3033 15.2947 85.3033H20.8258C22.0282 85.3033 22.6534 85.8912 22.6534 87.0672V92.3588L21.7877 93.2408H16.5933V97.3075H19.6234V94.9066H22.7015V97.9444H22.6534ZM19.5753 91.1829V87.7041H16.5933V91.1829H19.5753Z" fill="#1B381C"/>
<path d="M40.6413 99.7573H37.4669V88.0471L34.4369 88.0961V99.7573H31.2144V88.0471L28.1844 88.0961V99.7573H25.01V85.3033H28.2325V85.8423C29.002 85.6953 29.7234 85.5973 30.4449 85.4503C31.3587 85.3033 32.1282 85.2543 32.7054 85.2543C33.4268 85.2543 33.9078 85.4503 34.1483 85.8913C34.9178 85.7443 35.7355 85.6463 36.505 85.4993C37.5631 85.3033 38.3327 85.2543 38.9098 85.2543C40.0641 85.2543 40.6413 85.8423 40.6413 87.0182V99.7573Z" fill="#1B381C"/>
<path d="M52.4249 96.8175C52.4249 97.9935 51.992 98.8264 51.1744 99.2674C50.5972 99.6104 49.6834 99.7573 48.4329 99.7573C48.1443 99.7573 47.7596 99.7573 47.2305 99.7083C46.7015 99.7083 46.3648 99.6593 46.1243 99.6593V104.951H42.95V85.2053H46.1724V85.7443C46.9419 85.6463 47.6634 85.4993 48.4329 85.4013C49.3948 85.2543 50.1163 85.1563 50.6934 85.1563C51.8477 85.1563 52.473 85.7443 52.473 86.9202V96.8175H52.4249ZM49.2025 95.9356V88.0471L46.1724 88.0961V97.0135H48.1443C48.8177 97.0135 49.2025 96.6705 49.2025 95.9356Z" fill="#1B381C"/>
<path d="M63.5831 97.9445C63.5831 99.1204 63.0059 99.7083 61.8035 99.7083H56.4168C55.2144 99.7083 54.6372 99.1204 54.6372 97.9445V94.8577H57.7154V97.3075H60.553V95.0046L55.6472 92.0649C55.022 91.6729 54.6853 91.1339 54.6853 90.4969V87.1162C54.6853 85.9403 55.3106 85.3523 56.513 85.3523H61.8516C63.054 85.3523 63.6312 85.9403 63.6312 87.1162V90.007H60.6011V87.7531H57.7154V89.86L62.6212 92.7998C63.2945 93.1918 63.5831 93.7307 63.5831 94.4167V97.9445Z" fill="#1B381C"/>
<path d="M75.0301 97.9444C75.0301 99.1204 74.4049 99.7083 73.2025 99.7083H67.6714C66.469 99.7083 65.8438 99.1204 65.8438 97.9444V87.0672C65.8438 85.8912 66.469 85.3033 67.6714 85.3033H73.2025C74.4049 85.3033 75.0301 85.8912 75.0301 87.0672V92.3588L74.1644 93.2408H68.97V97.3075H72.0001V94.9066H75.0782V97.9444H75.0301ZM71.952 91.1829V87.7041H68.9219V91.1829H71.952Z" fill="#1B381C"/>
<path d="M86.525 97.9444C86.525 99.1204 85.8997 99.7083 84.6973 99.7083H79.1663C77.9639 99.7083 77.3386 99.1204 77.3386 97.9444V87.0672C77.3386 85.8912 77.9639 85.3033 79.1663 85.3033H84.6973C85.8997 85.3033 86.525 85.8912 86.525 87.0672V92.3588L85.6593 93.2408H80.4649V97.3075H83.4949V94.9066H86.5731V97.9444H86.525ZM83.4468 91.1829V87.7041H80.4168V91.1829H83.4468Z" fill="#1B381C"/>
<path d="M98.2606 99.7573H95.0382V99.2674C92.8738 99.6593 91.6714 99.8553 91.3828 99.8553C90.5652 99.8553 89.94 99.6103 89.5071 99.1204C89.0261 98.6304 88.8337 97.9934 88.8337 97.1605V88.1941C88.8337 87.0182 89.2666 86.1852 90.0842 85.7443C90.6614 85.4013 91.5752 85.2053 92.8257 85.2053C93.1143 85.2053 93.4991 85.2053 94.0281 85.2543C94.5572 85.2543 94.8939 85.3033 95.1343 85.3033V77.3658H98.3568V99.7573H98.2606ZM95.0863 96.9155V87.9981H93.1143C92.3929 87.9981 92.0562 88.3411 92.0562 89.076V95.9846C92.0562 96.6705 92.3929 97.0625 93.0662 97.0625C93.2105 97.0625 93.8838 97.0135 95.0863 96.9155Z" fill="#1B381C"/>
<path d="M115.671 80.3056H109.996V86.9202H114.854V89.811H109.996V99.7083H106.726V77.3168H115.72V80.3056H115.671Z" fill="#1B381C"/>
<path d="M120.625 99.7573H117.451V77.3658H120.625V99.7573Z" fill="#1B381C"/>
<path d="M132.361 97.9444C132.361 99.1204 131.784 99.7083 130.581 99.7083H124.81C123.607 99.7083 122.982 99.1204 122.982 97.9444V87.0672C122.982 85.8912 123.607 85.3033 124.81 85.3033H130.581C131.784 85.3033 132.361 85.8912 132.361 87.0672V97.9444ZM129.186 97.0135V87.9981H126.156V97.0135H129.186Z" fill="#1B381C"/>
<path d="M144.096 99.7573H140.922V99.2674C140.2 99.4144 139.431 99.5124 138.71 99.6593C137.796 99.8063 137.074 99.8553 136.449 99.8553C135.295 99.8553 134.669 99.2674 134.669 98.0914V85.3523H137.844V97.0625L140.874 97.0135V85.3523H144.096V99.7573Z" fill="#1B381C"/>
<path d="M155.399 91.3299H152.224V88.0471L149.675 88.0961V99.7573H146.453V85.3033H149.675V85.8423C150.349 85.6953 151.022 85.5973 151.647 85.4503C152.465 85.3033 153.09 85.2543 153.619 85.2543C154.774 85.2543 155.399 85.8423 155.399 87.0182V91.3299Z" fill="#1B381C"/>
<path d="M173.916 89.566C173.916 90.9379 173.243 91.6729 171.896 91.6729H166.557V99.8063H163.287V77.4148H171.896C173.243 77.4148 173.916 78.1008 173.916 79.4727V89.566ZM170.597 88.7331V80.2076H166.557V88.7331H170.597Z" fill="#1B381C"/>
<path d="M185.218 99.7573H182.14V99.2674C181.419 99.3653 180.697 99.5123 179.928 99.6103C178.966 99.7573 178.244 99.8063 177.763 99.8063C176.609 99.8063 176.032 99.2184 176.032 98.0424V92.8488C176.032 91.6729 176.657 91.0359 177.86 91.0359H182.188V87.7041H179.11V89.762H176.224V87.0672C176.224 85.8912 176.85 85.3033 178.052 85.3033H183.487C184.689 85.3033 185.266 85.8912 185.266 87.0672V99.7573H185.218ZM182.188 97.1605V93.2898H179.11V97.2585L182.188 97.1605Z" fill="#1B381C"/>
<path d="M196.425 97.9445C196.425 99.1204 195.848 99.7083 194.645 99.7083H189.259C188.056 99.7083 187.479 99.1204 187.479 97.9445V94.8577H190.557V97.3075H193.395V95.0046L188.489 92.0649C187.864 91.6729 187.527 91.1339 187.527 90.4969V87.1162C187.527 85.9403 188.152 85.3523 189.355 85.3523H194.693C195.896 85.3523 196.473 85.9403 196.473 87.1162V90.007H193.347V87.7531H190.509V89.86L195.415 92.7998C196.088 93.1918 196.377 93.7307 196.377 94.4167V97.9445H196.425Z" fill="#1B381C"/>
<path d="M204.794 99.7573H201.234C200.032 99.7573 199.455 99.1694 199.455 97.9935V88.1451H197.916V85.3523H199.455V81.4326H202.677V85.3523H204.745V88.1451H202.677V97.0135H204.842V99.7573H204.794Z" fill="#1B381C"/>
<path d="M215.712 99.7573H212.633V99.2674C211.912 99.3653 211.19 99.5123 210.421 99.6103C209.459 99.7573 208.738 99.8063 208.257 99.8063C207.102 99.8063 206.525 99.2184 206.525 98.0424V92.8488C206.525 91.6729 207.15 91.0359 208.353 91.0359H212.681V87.7041H209.603V89.762H206.718V87.0672C206.718 85.8912 207.343 85.3033 208.545 85.3033H213.98C215.182 85.3033 215.76 85.8912 215.76 87.0672V99.7573H215.712ZM212.681 97.1605V93.2898H209.603V97.2585L212.681 97.1605Z" fill="#1B381C"/>
<path d="M55.7916 64.3327C55.7435 64.5777 55.5511 64.8717 55.2144 65.2147L49.4429 72.8582C48.9619 73.4951 48.4328 73.7891 47.8557 73.7891C47.2304 73.7891 46.7495 73.5441 46.3647 73.1031C45.2104 71.8292 43.7194 70.2123 41.8918 68.1545C40.1122 66.0966 38.1884 63.8918 36.0721 61.5399C34.004 59.1881 31.8878 56.7382 29.7715 54.2884C27.6553 51.7896 25.6834 49.4867 23.9038 47.3309C23.8557 47.2329 23.7595 47.1349 23.6633 47.0369C23.5671 46.9389 23.4709 46.8899 23.3266 46.8899C23.1824 46.8899 22.8938 46.8899 22.3647 46.9389C21.8357 46.9879 21.2104 46.9879 20.5371 46.9879C19.2385 46.9879 17.9399 46.8899 16.5451 46.6939C15.1984 46.5469 14.0441 46.1059 13.0341 45.469C12.7455 45.224 12.4088 45.126 12.024 45.126C11.5431 45.126 11.3026 45.518 11.3026 46.2529C11.3026 46.6939 11.4469 48.2128 11.7836 50.7606C12.0721 53.3085 13.0341 56.8362 14.5731 61.3929C14.7174 61.8339 14.8136 62.1769 14.9579 62.4709C15.1022 62.7648 15.1503 63.0588 15.1503 63.3528C15.1503 64.0877 14.5731 64.4797 13.3707 64.4797H2.78957C2.21241 64.4797 1.77955 64.2837 1.49097 63.8918C1.20239 63.4998 1.01001 63.0588 1.01001 62.5688V2.40085C1.01001 0.930949 1.77955 0.244995 3.31863 0.244995H22.3166C27.1262 0.244995 31.4068 0.930949 35.0621 2.30286C38.7655 3.67477 41.8437 5.53664 44.3928 7.79049C46.9419 10.0443 48.8657 12.6412 50.1643 15.532C51.4629 18.4228 52.0882 21.4116 52.0882 24.4004C52.0882 29.496 50.6453 33.8568 47.7114 37.4335C44.8256 41.0103 40.3046 43.5581 34.1483 44.979C33.6673 45.224 33.4268 45.371 33.4268 45.567C33.4268 45.763 33.6192 45.959 34.004 46.2529C35.8797 47.7228 37.6112 49.0947 39.2946 50.3687C40.9779 51.6426 42.6132 52.9165 44.2966 54.1904C45.9799 55.4643 47.6633 56.7382 49.4429 58.0611C51.2224 59.3841 53.0982 60.756 55.0701 62.2259C55.6473 62.6668 55.8878 63.1568 55.8878 63.7448C55.8878 63.8918 55.8397 64.1367 55.7916 64.3327ZM10.7735 36.3556C11.0621 36.6986 11.4469 37.0415 11.9278 37.3355C13.0341 38.0215 14.3327 38.5604 15.8717 38.9524C17.3627 39.3444 18.9018 39.5404 20.4409 39.5404C23.8557 39.5404 26.5972 38.5604 28.7615 36.6006C30.8777 34.6407 31.984 31.9459 31.984 28.4671C31.984 25.0863 30.3968 22.2445 27.3186 19.9417C24.1443 17.6878 19.1423 16.5609 12.3126 16.5609C11.7355 16.5609 11.3026 16.7569 10.9178 17.0999C10.5331 17.4429 10.3407 17.9328 10.3407 18.5698V35.0327C10.3407 35.5716 10.485 36.0126 10.7735 36.3556Z" fill="#EE0000"/>
<path d="M163.96 18.8637C166.461 19.8437 168.673 21.3136 170.597 23.3224C172.521 25.2823 174.012 27.7811 175.166 30.7209C176.272 33.7098 176.85 37.1885 176.85 41.2062C176.85 44.0481 176.465 46.8409 175.695 49.6827C174.926 52.5245 173.627 55.0723 171.751 57.3262C169.876 59.58 167.423 61.3929 164.297 62.8138C161.17 64.2347 157.274 64.9207 152.561 64.9207H131.639C130.773 64.9207 130.293 64.5777 130.293 63.9407C130.293 63.5978 130.389 63.1078 130.629 62.5688C130.87 61.7359 131.062 60.266 131.158 58.1101C131.254 56.0033 131.351 53.5534 131.351 50.7606C131.351 48.1638 131.303 45.469 131.158 42.5782C131.062 39.6873 130.87 36.8455 130.629 33.9547C130.389 31.0639 130.148 28.2711 129.812 25.5273C129.523 22.7835 129.186 20.3336 128.898 18.1288C128.561 15.9239 128.224 14.0131 127.888 12.3962C127.551 10.7793 127.214 9.60336 126.926 8.86841C126.83 8.62342 126.733 8.42744 126.637 8.23145C126.589 8.03546 126.541 7.88847 126.541 7.69249C126.541 7.15352 126.83 6.81055 127.359 6.61456C128.994 6.07559 130.725 5.24265 132.457 4.16472C134.236 3.08679 135.679 1.95987 136.882 0.734951C137.459 0.29398 137.892 0 138.228 0C138.854 0 139.19 0.636957 139.19 1.91087V21.7056C139.19 22.4405 139.287 22.7835 139.527 22.7835C139.719 22.7835 139.96 22.6855 140.248 22.4895C142.413 20.6276 144.914 19.3047 147.751 18.5208C150.589 17.7368 153.331 17.3448 156.024 17.3448C158.862 17.3448 161.459 17.8348 163.96 18.8637ZM146.357 45.8609C148.136 46.1549 150.012 46.3019 152.08 46.3019C154.389 46.3019 156.553 46.0569 158.669 45.616C160.737 45.175 162.613 44.44 164.248 43.5091C165.884 42.5292 167.182 41.3042 168.144 39.7853C169.106 38.2664 169.587 36.4536 169.587 34.3467C169.587 32.5338 169.154 30.9659 168.337 29.594C167.519 28.2221 166.413 27.0462 165.018 26.0663C163.623 25.0863 162.084 24.3514 160.401 23.8124C158.717 23.2734 156.986 23.0285 155.206 23.0285C153.331 23.0285 151.455 23.3224 149.579 23.8614C147.703 24.4494 146.068 25.3313 144.721 26.6052C142.894 28.2221 141.691 30.084 141.114 32.1909C140.489 34.2977 140.2 36.4536 140.2 38.6584V43.1661C140.2 43.9011 140.585 44.342 141.355 44.587C142.942 45.126 144.625 45.567 146.357 45.8609Z" fill="#EE0000"/>
<path d="M81.9558 35.1307C82.4848 37.6295 82.9658 40.0793 83.3986 42.2842C82.1962 40.3243 81.7634 37.8255 81.9558 35.1307Z" fill="#1B381C"/>
<path d="M86.9097 44.293C86.7654 43.6561 86.6211 43.0191 86.4768 42.3822C86.6211 42.3332 86.8135 42.2842 86.9578 42.2842C87.1021 42.9211 87.2463 43.5581 87.4387 44.1461C87.2463 44.244 87.1021 44.293 86.9097 44.293Z" fill="#1B381C"/>
<path d="M94.9417 39.8344C94.4607 41.0593 93.7874 42.1862 92.9216 43.2641C93.0178 42.9211 93.1621 42.5782 93.2583 42.2352C93.8355 41.4512 94.4126 40.6673 94.9417 39.8344Z" fill="#1B381C"/>
<path d="M90.7573 49.0457C91.575 47.8208 92.4407 46.6449 93.1621 45.371C93.9317 44.0481 94.605 42.6272 95.2303 41.2553C95.8555 39.8834 96.4327 38.5115 97.0098 37.0905C96.4808 41.9902 94.5569 46.0569 90.7573 49.0457Z" fill="#1B381C"/>
<path d="M97.25 24.7433C97.25 24.7923 97.25 24.8413 97.2979 24.8413C97.25 24.7923 97.1541 24.6944 97.1062 24.6454C97.1541 24.6944 97.202 24.6944 97.25 24.7433Z" fill="#1B381C"/>
<path d="M98.6453 36.8945C98.9338 34.8367 99.2705 32.7788 99.5591 30.77C99.9439 32.9258 99.8958 34.9837 98.6453 36.8945Z" fill="#1B381C"/>
<path d="M114.276 37.5315C112.882 41.2553 110.91 44.636 108.264 47.5268C105.282 50.8096 102.156 53.8964 99.03 57.0322C96.3366 59.727 93.6432 62.3729 90.6131 65.3617C84.9859 59.4331 78.7334 54.6314 73.7795 48.3598C70.9899 44.881 68.3446 41.3533 66.9498 37.0415C65.2664 31.8969 66.1322 27.0952 69.2103 22.8325C71.9518 19.1087 75.4628 16.2669 80.1762 15.385C81.4748 15.14 82.8215 15.14 84.6492 14.993C81.9558 16.7569 79.7434 18.1288 77.6271 19.5987C75.03 21.3626 73.058 23.7144 71.9518 26.6542C70.557 30.231 70.7013 34.0527 72.2885 37.5315C73.5871 40.3733 75.1261 43.3131 77.1462 45.665C81.3306 50.4176 85.8997 54.7784 90.3726 59.3351C95.7113 55.0723 100.232 50.2217 104.753 45.322C106.966 42.9212 108.601 40.0303 109.9 36.9925C113.603 28.2711 106.292 20.4316 99.8476 19.5987C97.7795 19.3537 95.8075 19.3537 93.9318 19.8437C91.4789 18.9128 90.0841 19.4517 88.8817 21.9505C88.6893 22.2935 88.545 22.6855 88.3526 23.0285C87.5831 23.7144 86.9097 24.4494 86.3326 25.2333C86.9578 23.7144 87.8716 21.9505 89.1221 19.7457C87.7274 20.0887 86.7173 20.6766 85.8516 21.4606C82.8696 24.2044 81.1382 27.6342 80.7053 31.7009C80.4167 34.4937 80.7053 37.0905 81.4267 39.5894C81.1382 38.9524 80.8496 38.3155 80.6091 37.6295C78.5891 32.1909 79.4548 27.2422 82.9177 22.7345C84.6492 20.4806 86.573 18.5698 89.0259 17.2469C99.4147 11.5142 111.631 17.3939 114.806 28.4671C115.719 31.5049 115.383 34.5427 114.276 37.5315Z" fill="#1B381C"/>
<path d="M97.0579 37.1395C96.4808 41.9902 94.5569 46.0569 90.7573 49.0457C91.575 47.8208 92.4407 46.6449 93.1621 45.371C93.9317 44.0481 94.605 42.6272 95.2303 41.2553C95.9036 39.9323 96.4327 38.5114 97.0579 37.1395Z" fill="#1B381C"/>
<path d="M96.5288 31.8479C96.3365 36.1106 95.4707 40.0304 92.9216 43.2641C94.0759 39.5404 95.2783 35.7676 96.5288 31.8479Z" fill="#1B381C"/>
<path d="M82.3406 29.839C82.3406 27.3892 83.1101 25.2334 84.9378 23.3225C84.0239 25.6253 83.2063 27.7322 82.3406 29.839Z" fill="#1B381C"/>
<path d="M95.2302 31.1619C95.0379 33.5628 94.4607 35.8166 93.3545 37.9235C93.2583 37.8745 93.1621 37.8745 93.0659 37.8255C93.6912 35.5716 94.3645 33.3668 94.9898 31.1129C95.0379 31.1619 95.134 31.1619 95.2302 31.1619Z" fill="#1B381C"/>
<path d="M81.9558 35.1307C82.4367 37.6295 82.9658 40.0793 83.3986 42.2352C82.1962 40.3243 81.7634 37.8255 81.9558 35.1307Z" fill="#1B381C"/>
<path d="M97.2984 24.8414C95.7112 23.1755 94.5088 21.4116 92.3445 20.6276C94.2683 20.3827 96.5288 22.2935 97.2984 24.8414Z" fill="#1B381C"/>
<path d="M98.645 36.8945C98.9336 34.8367 99.2703 32.7788 99.5588 30.77C99.9436 32.9258 99.8955 34.9837 98.645 36.8945Z" fill="#1B381C"/>
<path d="M97.7793 29.1041C98.645 30.525 98.5488 31.9459 97.8755 33.3668C97.8274 31.8969 97.7793 30.525 97.7793 29.1041Z" fill="#1B381C"/>
<path d="M94.3164 23.7144C93.7393 23.1755 93.1621 22.6365 92.5369 22.0976C92.585 21.9996 92.6812 21.9506 92.7293 21.8526C93.3545 22.3915 93.9317 22.8815 94.5569 23.4205C94.4607 23.5185 94.3645 23.6165 94.3164 23.7144Z" fill="#1B381C"/>
<path d="M85.7073 38.0215C85.7073 37.2375 85.7554 36.4536 85.7554 35.6696C85.8516 35.6696 85.9959 35.6696 86.092 35.6696C86.092 36.4536 86.092 37.2375 86.092 38.0215C85.9959 38.0215 85.8516 38.0215 85.7073 38.0215Z" fill="#1B381C"/>
<path d="M92.0559 34.8857C92.2002 34.1997 92.3445 33.5138 92.5369 32.8768C92.6331 32.9258 92.7293 32.9258 92.8735 32.9748C92.7293 33.6608 92.585 34.3467 92.3926 34.9837C92.2964 34.9347 92.2002 34.9347 92.0559 34.8857Z" fill="#1B381C"/>
<path d="M86.9097 44.2931C86.7654 43.6561 86.6211 43.0192 86.4768 42.3822C86.6211 42.3332 86.8135 42.2842 86.9578 42.2842C87.1021 42.9212 87.2463 43.5581 87.4387 44.1461C87.2463 44.2441 87.1021 44.2931 86.9097 44.2931Z" fill="#1B381C"/>
<path d="M96.8175 46.1549C95.4709 48.2128 93.7875 50.8586 90.9017 52.3775C89.4107 53.1615 88.6893 53.1125 87.5831 51.9366C82.5811 46.5959 79.3105 40.4713 79.5029 32.8278C79.6472 28.1731 81.4749 24.3024 84.6973 21.0196C89.9879 15.63 97.2985 18.5208 99.7995 23.2245C101.483 26.3603 101.916 29.741 101.531 33.2688C100.954 37.6785 99.4628 41.7452 96.8175 46.1549ZM89.1703 19.6967C87.7755 20.0397 86.7655 20.6276 85.8997 21.4116C82.9178 24.1554 81.1863 27.5852 80.7534 31.6519C80.1282 37.5315 82.1001 42.6272 85.3707 47.3309C85.4669 47.4289 85.6111 47.5269 85.8997 47.7718C84.553 43.8521 83.6873 40.1773 84.5049 36.2576C84.6011 36.4536 84.6973 36.6496 84.6973 36.8456C84.7935 40.5203 85.7554 44.0481 86.9097 47.5269C87.2464 48.6048 87.7755 49.6337 88.3045 50.6137C88.8336 51.5936 89.4107 51.7406 90.3727 51.1526C91.3827 50.5157 92.4408 49.7807 93.2103 48.8988C95.6151 46.106 97.539 42.9212 98.7895 39.3934C100.088 35.6696 100.906 31.7989 100.184 27.8302C99.5109 24.2534 97.8276 21.2646 94.3166 19.7947C91.6713 18.7168 90.1803 19.1577 88.9298 21.7546C87.6793 24.2534 86.7173 26.8992 85.6111 29.4471C85.5149 29.692 85.3707 29.937 85.1783 30.427C85.034 27.8792 86.1402 24.9394 89.1703 19.6967Z" fill="#1B381C"/>
<g opacity="0.8">
<path d="M121.154 30.084C118.461 22.1955 112.882 15.385 105.523 11.5633C101.868 9.65238 97.8277 8.47646 93.6915 8.13349C89.5552 7.79051 85.2746 8.32947 81.2346 9.70138C81.2346 9.75038 81.2346 9.75038 81.1865 9.79937C81.0903 9.89737 80.8498 10.0444 80.5612 10.1913C80.2726 10.3383 79.936 10.4363 79.6474 10.5833C78.7816 10.9753 77.8678 11.2693 77.0021 11.6613C76.1845 12.1022 75.3187 12.4942 74.5011 12.9842C71.5191 14.944 68.97 17.4919 66.9019 20.3827L68.2005 18.6678L69.6434 17.0999C69.8839 16.8549 70.1243 16.5609 70.3648 16.3649L71.1825 15.679L71.952 14.993C72.1925 14.748 72.4811 14.5521 72.7696 14.3561C73.443 13.8661 74.0682 13.5721 74.0682 13.7681C74.1163 13.9641 73.5873 14.5031 72.9139 14.993C70.0281 17.2959 67.431 20.3827 65.5552 23.7634C63.6314 27.1442 62.3809 30.721 61.5632 34.0528C61.0342 38.3645 61.4189 42.7742 62.7175 46.8409C63.968 50.9076 66.0843 54.5824 68.8257 57.6202C71.5672 60.658 74.8859 63.0098 78.3969 64.5287C81.956 66.0966 85.7075 66.7826 89.3628 66.7826C89.6514 66.7336 89.9881 66.7826 90.1324 66.8316C90.3247 66.8806 90.2766 66.9786 89.9881 66.9786C86.1885 67.2725 82.1003 66.6356 78.1564 65.0187C77.6273 64.8717 77.1945 64.6267 76.7135 64.3817C76.2326 64.1368 75.7516 63.8918 75.2706 63.6468C74.3087 63.1078 73.443 62.4709 72.481 61.8829L71.1825 60.854C70.7496 60.511 70.2686 60.168 69.8839 59.776C69.1143 58.9921 68.2005 58.2081 67.5271 57.2772C64.5452 53.7494 62.2366 49.3887 61.1304 44.6361C60.0722 39.8344 60.1203 34.6897 61.3708 29.79L61.6113 28.9081L61.8999 28.0262L62.5251 26.3113C60.9861 29.4961 60.0241 33.0728 59.6875 36.8456C59.7837 37.2375 59.7837 37.8745 59.8318 38.6095L60.0241 41.2553C60.0241 41.6963 60.1203 42.1372 60.2165 42.5782L60.457 43.9011C60.457 43.8031 60.5051 43.7541 60.5532 43.7541C60.6975 43.7541 60.8899 44.3421 61.0342 45.126C61.948 49.4377 63.7756 53.5045 66.3247 57.0812C66.3728 57.1792 66.469 57.2282 66.5171 57.3262C68.1043 59.5311 70.1243 61.3439 72.1444 63.0588C73.2506 63.8428 74.2606 64.6757 75.463 65.3127C76.0402 65.6557 76.6173 65.9986 77.1945 66.2926L79.0221 67.1256C79.5993 67.4195 80.2245 67.6155 80.8498 67.8605C81.475 68.0565 82.1003 68.3015 82.7255 68.4975L84.6494 68.9384C84.9861 68.9874 85.2746 69.0854 85.6113 69.1344L86.5732 69.2814L88.5452 69.5264L90.5171 69.5754L91.479 69.6244C91.8157 69.6244 92.1524 69.5754 92.441 69.5754L94.4129 69.4284C95.0863 69.3794 95.7115 69.2324 96.3368 69.1344L97.2987 68.9874L97.7796 68.8894L98.2606 68.7425C99.5111 68.3995 100.762 68.0565 101.964 67.5175C104.417 66.6356 106.677 65.2637 108.794 63.7448C109.804 62.9118 110.862 62.1769 111.776 61.197L112.497 60.511C112.738 60.315 112.978 60.07 113.17 59.825L114.469 58.3551L114.806 57.9632L115.094 57.5712L115.671 56.7872L116.249 56.0033L116.537 55.6113L116.778 55.1704L117.74 53.4555L117.98 53.0145L118.172 52.5735L118.557 51.6916C118.653 51.3976 118.846 51.0056 118.99 50.8586C119.134 50.6627 119.182 50.7117 119.134 51.0056C119.182 51.0056 119.279 51.0056 119.279 51.0546C117.98 54.7784 116.056 58.2082 113.411 61.2459C110.766 64.2348 107.399 66.8316 103.407 68.5465L101.291 69.3794C100.569 69.6244 99.8478 69.8204 99.1263 70.0164L98.0201 70.3103L96.9139 70.5063C96.1925 70.6043 95.4229 70.8003 94.7015 70.8983C95.471 70.8493 96.2406 70.7513 97.0101 70.7023C97.3949 70.6533 97.7796 70.6533 98.1644 70.6043C98.5492 70.5553 98.8859 70.4573 99.2706 70.4083C99.9921 70.2614 100.714 70.1634 101.435 70.0164C102.108 69.8204 102.83 69.6734 103.455 69.4774C107.158 67.9585 110.573 65.6557 113.459 62.9608C116.393 60.217 118.798 57.0322 120.722 53.6025L120.481 53.8474C120.77 53.2105 121.154 52.6715 121.251 52.7205C121.395 52.7205 121.251 53.2595 120.962 53.9454C119.423 57.3262 117.307 60.511 114.71 63.2548C114.036 63.8918 113.411 64.6267 112.689 65.2147L110.477 67.0276L108.072 68.5955C107.255 69.0854 106.389 69.5264 105.571 69.9674C102.156 71.6333 98.4049 72.7112 94.5572 73.1522L91.6714 73.3481L88.7857 73.2502C88.3047 73.2502 87.8237 73.2012 87.3428 73.1032L85.8999 72.9072C85.4189 72.8092 84.938 72.8092 84.457 72.6622L83.0141 72.3192C79.2145 71.3883 75.6073 69.7714 72.2887 67.5665C69.0181 65.3617 66.1324 62.5199 63.7756 59.2861C61.4189 56.0523 59.5913 52.3775 58.437 48.5068C57.2346 44.6361 56.8017 40.5203 56.9941 36.4536C56.9941 34.8367 57.2827 33.2198 57.5231 31.6519C57.6674 30.868 57.9079 30.084 58.0522 29.3001L58.3408 28.1242C58.437 27.7322 58.5813 27.3402 58.7255 26.9972L59.447 24.4984L60.457 22.2935C60.6494 21.9506 60.7937 21.5586 60.9861 21.2156L61.6113 20.1867C62.0442 19.5007 62.3809 18.7658 62.8618 18.1288L64.2566 16.2179L64.5933 15.728L64.978 15.287L65.7957 14.4051C66.8057 13.1802 68.0562 12.1512 69.2105 11.0733C69.8358 10.5833 70.461 10.0934 71.0863 9.60339L72.0482 8.86844L73.0582 8.23148C73.7316 7.8395 74.4049 7.39853 75.0782 7.00656L77.2426 5.97763C78.0602 5.53666 78.9259 5.34067 79.5512 5.24268C80.1764 5.14468 80.5612 5.14468 80.6093 5.29167C80.6574 5.43867 80.3207 5.73265 79.7917 6.02663C79.2626 6.3696 78.4931 6.66358 77.6754 7.10455L75.6554 8.08449L73.7316 9.26041C73.3949 9.4564 73.1063 9.65238 72.7696 9.84837L71.8558 10.5343C71.2786 10.9753 70.6534 11.4163 70.0762 11.9062C68.97 12.9352 67.8157 13.9151 66.8538 15.091C66.3728 15.679 65.8438 16.2179 65.4109 16.8059L64.0642 18.6678C62.4289 21.2156 60.9861 23.9104 60.0722 26.8012C59.4951 28.2221 59.2546 29.741 58.8698 31.2109C58.7255 31.9459 58.6293 32.7298 58.5332 33.4648L58.3889 34.5917C58.3408 34.9837 58.3408 35.3757 58.3408 35.7186C58.0522 41.0593 58.9179 46.4489 60.9861 51.2996C59.447 47.4779 58.7255 43.3131 58.7736 39.2464C58.7736 38.8544 58.7255 38.4625 58.7255 38.0705L58.7736 36.8946C58.8217 36.1106 58.8217 35.3267 58.8698 34.5427C59.1103 32.9748 59.2546 31.4069 59.6875 29.888C60.0241 28.3201 60.6013 26.8502 61.1304 25.3313C61.4189 24.5964 61.8037 23.9104 62.1404 23.1755C62.3328 22.8325 62.477 22.4405 62.6694 22.0976L63.2947 21.0686C65.2666 17.7858 67.7676 14.895 70.6053 12.5922C73.4911 10.2893 76.7135 8.47646 80.1283 7.20255C83.5432 5.92863 87.1504 5.19368 90.8538 5.09569C94.5572 4.99769 98.2606 5.43867 101.964 6.51659C105.571 7.54552 108.746 9.11342 111.583 10.9753C112.305 11.4653 113.026 11.9062 113.651 12.4452C114.325 12.9842 114.998 13.4741 115.623 14.0131C116.249 14.6011 116.826 15.14 117.451 15.728L117.884 16.169L118.317 16.6589L119.134 17.5899L119.952 18.5208C120.241 18.8148 120.433 19.2067 120.722 19.5007C121.202 20.1867 121.732 20.8726 122.164 21.5586C122.597 22.2935 123.03 23.0285 123.463 23.7634L123.848 24.4984L124.136 25.0864L124.665 26.2623C125.05 27.0462 125.387 27.8302 125.675 28.7121C125.964 29.5451 126.253 30.378 126.493 31.2599C126.685 32.1419 126.878 33.0238 127.07 33.9548L127.215 34.6407C127.263 34.8857 127.263 35.0817 127.311 35.3267C127.359 35.8166 127.407 36.2576 127.455 36.7476C127.551 37.4335 127.503 38.1685 127.407 38.4135C127.311 38.6585 127.166 38.4135 127.118 37.7275C127.022 36.8456 126.878 35.9146 126.782 35.0327C126.637 34.1508 126.397 33.2688 126.204 32.4359C126.108 31.9949 126.012 31.5539 125.868 31.162L125.483 29.888L125.05 28.6141C124.906 28.2221 124.762 27.7812 124.569 27.3892L123.511 25.0374C123.126 24.2534 122.645 23.5675 122.261 22.7835C122.02 22.4405 121.828 22.0486 121.587 21.7056L120.866 20.6767L120.144 19.6477L119.76 19.1578C119.615 19.0108 119.471 18.8148 119.327 18.6678C118.75 18.0308 118.221 17.3939 117.643 16.7569C117.066 16.169 116.441 15.581 115.816 14.993C115.239 14.4051 114.517 13.9151 113.892 13.3761C113.219 12.8372 112.593 12.2982 111.824 11.8572C111.102 11.4163 110.429 10.8773 109.659 10.4853C108.89 10.0934 108.12 9.70138 107.351 9.30941C105.764 8.62345 104.176 7.9375 102.445 7.44753C98.8378 6.3696 95.1344 5.92863 91.479 5.97763C87.8237 6.07562 84.2165 6.76158 80.8017 8.03549C77.3869 9.26041 74.1644 11.0733 71.2786 13.3761C68.3929 15.728 65.94 18.5698 63.968 21.8526C63.3909 22.7345 63.0061 23.6655 62.5251 24.5964L63.1504 23.4695C63.3428 23.0775 63.5352 22.7345 63.8237 22.3915C64.3047 21.7056 64.7857 21.0196 65.2185 20.3337C66.2766 19.0598 67.2867 17.7858 68.4891 16.7079L69.3067 15.826C69.5953 15.532 69.8839 15.287 70.1724 15.042C70.7496 14.5521 71.3267 13.9641 71.952 13.5231L73.8277 12.1512C74.453 11.7102 75.1263 11.3673 75.7997 10.9263C78.4931 9.4074 81.3308 8.23148 84.3608 7.59452C84.7456 7.49653 85.0823 7.39853 85.467 7.34954L86.5732 7.25154C87.3428 7.15355 88.0642 7.00656 88.8338 6.95756L91.1424 6.85957C91.5271 6.81057 91.9119 6.85957 92.2967 6.90857L93.451 7.00656L94.6053 7.05556C94.9901 7.05556 95.3748 7.15355 95.7596 7.20255C96.5291 7.34954 97.2987 7.44753 98.0201 7.59452C98.7416 7.79051 99.5111 7.9865 100.233 8.18248L100.81 8.32947C101.002 8.37847 101.194 8.47646 101.339 8.52546L102.445 8.91743C104.705 9.70138 106.822 10.8773 108.842 12.1022C109.323 12.4452 109.804 12.7882 110.285 13.1312C110.766 13.4741 111.295 13.8171 111.728 14.2091L113.074 15.385C113.315 15.581 113.555 15.777 113.748 15.973L114.373 16.6099C117.691 20.0397 120.337 24.2534 121.78 29.0061C122.116 30.182 122.261 31.4069 122.116 31.6519C121.924 31.9949 121.491 31.2599 121.154 30.084ZM78.4931 68.8404L76.954 68.2035C76.4249 68.0075 75.8959 67.7625 75.4149 67.4685L73.9239 66.6356L73.2025 66.1946L72.481 65.7047C76.0883 68.3015 80.2245 70.1144 84.5532 71.0453C88.8819 71.9762 93.4029 71.9762 97.7316 71.0943C96.9139 71.1923 96.1444 71.2903 95.3267 71.3883C94.5091 71.4863 93.6915 71.4373 92.8738 71.4863L91.6233 71.5353L90.3728 71.4373C89.5552 71.3883 88.7376 71.3883 87.9199 71.2413C84.6975 70.9473 81.475 70.0654 78.4931 68.8404Z" fill="#1B381C"/>
<path d="M88.3529 74.3281C83.0142 73.6911 77.7236 71.7802 73.2026 69.4774C73.0102 69.3794 72.8178 69.3304 72.914 69.4284C73.0102 69.5264 73.2507 69.7224 73.4912 69.8204C77.8679 71.9762 83.0142 73.8381 88.1605 74.475C88.4491 74.475 88.7377 74.475 88.7377 74.426C88.8339 74.3771 88.5934 74.3281 88.3529 74.3281Z" fill="#1B381C"/>
<path d="M70.0282 67.7135C66.5172 65.3617 63.3428 62.3239 60.7937 58.6491C58.2446 54.9744 56.3689 50.7606 55.3588 46.2039C54.3488 41.6962 54.2526 36.9436 54.9741 32.2889C55.7436 27.6342 57.3789 23.1265 59.8318 19.0597C60.7937 17.3939 61.9961 15.924 63.1504 14.4051C63.7757 13.7191 64.449 13.0331 65.0743 12.3472L65.5552 11.8572L66.0843 11.3673L67.1424 10.4363C69.932 7.98648 73.0582 5.92862 76.425 4.50771C83.1103 1.51891 90.6133 0.538979 97.9721 1.7639C102.83 2.54785 107.447 4.31173 111.439 6.51658C111.776 6.71257 112.016 6.76156 111.92 6.61457C111.824 6.46758 111.487 6.2226 111.102 6.02661C102.685 1.32293 92.5853 -0.293966 83.0622 1.91089C78.3007 2.98882 73.7316 5.09567 69.6915 7.98648C65.6995 10.8773 62.2366 14.601 59.6875 18.9128C57.2346 22.9795 55.5512 27.5852 54.8298 32.2889C54.0602 36.9925 54.2045 41.8432 55.2626 46.4489C56.2727 51.0546 58.2446 55.3663 60.8418 59.0901C63.439 62.8138 66.7095 65.9006 70.3167 68.2035C70.5091 68.3505 70.6534 68.3505 70.6053 68.2525C70.461 68.0565 70.2206 67.8605 70.0282 67.7135Z" fill="#1B381C"/>
<path d="M83.1585 2.35185C78.0603 3.67477 73.2988 6.07561 69.2106 9.40738C68.6334 9.79936 68.1525 10.2403 67.6715 10.6813L66.2286 12.0042C65.3148 12.9351 64.401 13.9641 63.5352 14.944L62.3328 16.5609C61.9481 17.0999 61.5152 17.5898 61.1785 18.1778L60.0723 19.8927C59.8799 20.1867 59.6875 20.4806 59.5432 20.7746L59.0623 21.6566C56.3208 26.8502 54.8298 32.6808 55.1184 38.7564C55.2146 39.7854 55.3108 40.7653 55.407 41.7452C55.5032 42.7252 55.7436 43.6561 55.936 44.636C56.0322 45.126 56.0803 45.567 56.2246 46.0569C56.3689 46.4979 56.5132 46.9879 56.6094 47.4289C56.898 48.3108 57.0903 49.2417 57.4751 50.1237C57.8118 51.0056 58.1485 51.8876 58.5332 52.7205C58.9661 53.5534 59.3509 54.3864 59.7837 55.2683C59.9761 55.7093 60.2166 56.1013 60.4571 56.4932C60.6975 56.8852 60.938 57.3262 61.1785 57.7182C61.419 58.1101 61.6595 58.5511 61.9481 58.9431C62.2366 59.3351 62.5252 59.727 62.8138 60.119C62.9581 60.315 63.1505 60.511 63.1986 60.56C63.2467 60.56 63.1505 60.364 63.0062 60.168C60.5533 56.6892 58.6775 52.9655 57.3308 49.0457C56.0322 45.077 55.407 40.9123 55.4551 36.6006C55.4551 34.5917 55.7917 32.5828 56.0803 30.623C56.3208 29.643 56.5613 28.6631 56.8018 27.7322C57.0903 26.7522 57.427 25.8703 57.7637 24.9393C59.2066 21.2646 61.2747 17.8348 63.7276 14.846C66.2286 11.8572 69.2106 9.30939 72.4811 7.25153L73.7316 6.46758L74.3569 6.07561L75.0302 5.73263C75.896 5.29166 76.7617 4.85069 77.6274 4.45871C78.5412 4.11574 79.4551 3.77276 80.3208 3.38079C80.7537 3.1848 81.2346 3.08681 81.7156 2.93982L83.1104 2.54784C83.4471 2.44985 83.6394 2.35185 83.6394 2.30286C83.7356 2.25386 83.4471 2.30286 83.1585 2.35185Z" fill="#1B381C"/>
<path d="M62.3327 35.5226C61.8036 40.3733 62.5251 45.616 64.5451 50.1727C66.6133 54.6804 69.8357 58.4041 73.3467 60.707C73.5391 60.805 73.5872 60.805 73.491 60.658C73.3948 60.511 73.2024 60.315 73.0101 60.168C69.6433 57.8651 66.5652 54.1904 64.6894 49.7807C62.8618 45.371 62.1884 40.3733 62.6213 35.6696C62.6213 35.2287 62.6694 34.8367 62.5732 34.7877C62.5251 34.7387 62.3808 35.0327 62.3327 35.5226Z" fill="#1B381C"/>
<path d="M91.0463 73.4461C85.7076 73.3481 80.417 71.9762 75.6555 69.5264L75.2226 69.3304L74.7898 69.0854L73.924 68.5464C73.3469 68.2035 72.7697 67.8605 72.2407 67.5175L70.6535 66.3416C70.1244 65.9496 69.5954 65.5576 69.1144 65.1167C68.1044 64.2347 67.0944 63.3528 66.2286 62.3728C65.7958 61.8829 65.3148 61.3929 64.8819 60.9029L63.6314 59.335C60.6976 55.1703 58.6294 50.3686 57.6194 45.371C57.5232 44.636 57.3309 44.0971 57.1866 44.0971C57.0423 44.0971 57.0423 44.734 57.1866 45.469C57.4751 46.7429 57.8118 48.0168 58.1004 49.2907L58.7256 51.1526C58.9661 51.7406 59.1104 52.3775 59.4471 52.9655C59.399 52.9165 59.3509 52.9165 59.3028 52.9165C55.5513 44.538 55.2146 34.5917 58.3409 25.8703C58.5333 25.3803 58.5814 24.9883 58.5333 24.9883C58.4371 24.9393 58.2447 25.3313 58.1004 25.8213C54.7337 34.9347 55.3108 45.371 59.5433 53.9454C59.6876 54.2884 59.8318 54.6314 60.0242 55.0233C63.8238 62.1279 69.6916 67.7625 77.0022 70.9473L77.9641 71.3882C78.3008 71.5352 78.6375 71.6332 78.9741 71.7802C79.6475 72.0252 80.2727 72.2702 80.9461 72.5152C81.6194 72.7602 82.2928 72.9071 82.9661 73.0541C83.6395 73.2011 84.3128 73.4461 84.9862 73.5441C87.7276 74.0341 90.4691 74.328 93.2106 74.2301C98.6936 74.0341 104.177 72.6622 109.034 69.8203C112.882 67.6155 116.104 64.5287 118.846 61.0499C121.203 58.1101 123.175 54.7294 124.185 51.4466C125.531 46.8899 125.724 42.6272 125.243 38.6584C125.243 38.4134 125.146 38.4134 125.146 38.5604C125.098 38.7074 125.098 39.0504 125.098 39.2464C125.146 40.2263 125.243 41.2553 125.291 42.2842C125.098 43.1661 125.05 44.2441 125.002 45.273C124.858 46.3509 124.714 47.3798 124.521 48.4578C124.329 49.4867 124.04 50.5156 123.8 51.5446C120.818 59.0901 115.383 65.4596 108.601 69.6244C105.812 70.9963 102.974 72.0742 100.04 72.5642C98.5974 72.9561 97.1064 73.0051 95.6154 73.2011C95.2306 73.2501 94.8459 73.2501 94.5092 73.2991C94.1244 73.2991 93.7397 73.3481 93.3549 73.3481C92.9701 73.3481 92.5854 73.3971 92.2006 73.3971L91.6234 73.4461H91.0463Z" fill="#1B381C"/>
</g>
<path d="M185.074 9.26038C184.497 8.18245 183.776 7.30051 183.006 6.56556C182.91 6.46757 182.814 6.36957 182.814 6.27158C182.814 6.22258 183.006 6.12459 183.343 5.9776C184.112 5.73261 185.17 5.43863 186.469 5.04666C187.768 4.70368 189.114 4.31171 190.509 3.96873C191.904 3.62576 193.203 3.28278 194.453 2.9888C195.704 2.69482 196.665 2.44983 197.387 2.25385C197.579 2.20485 197.772 2.15585 198.012 2.15585C198.301 2.15585 198.445 2.35184 198.445 2.69482V3.62576C198.445 5.73261 197.964 7.79048 197.002 9.79934C196.04 11.8082 194.838 13.6701 193.347 15.385C191.856 17.0999 190.221 18.6678 188.345 20.0397C186.517 21.4116 184.689 22.5385 182.91 23.3224C182.91 23.4204 182.766 23.4204 182.573 23.4204C182.285 23.4204 182.14 23.2734 182.14 22.9795C182.14 22.9305 182.14 22.8325 182.188 22.7345C182.237 22.6365 182.333 22.4405 182.477 22.1465C183.728 20.4806 184.593 18.8147 185.17 17.2958C185.7 15.7769 185.988 14.356 185.988 13.0821C185.988 11.5632 185.7 10.2893 185.074 9.26038Z" fill="#EE0000"/>
<path d="M214.317 46.0079C214.22 45.861 214.124 45.665 213.98 45.518C212.826 43.9991 211.142 42.7252 208.882 41.7942C208.834 41.7942 208.834 41.7452 208.786 41.7452C208.16 41.5002 207.631 41.1573 207.295 40.6673C206.91 40.1773 206.717 39.6384 206.717 39.0504C206.717 38.4134 206.958 37.8255 207.487 37.2375C208.016 36.6496 208.834 36.4046 210.036 36.4046C210.998 36.4046 212.008 36.5516 212.97 36.8456C213.066 36.8945 213.21 36.9435 213.307 36.9435C213.451 36.9925 213.547 36.9925 213.691 36.9925C213.932 36.9925 214.076 36.8456 214.076 36.5026C214.076 36.4536 214.076 36.2576 213.98 35.8166C213.932 35.4246 213.836 34.9347 213.788 34.2977C213.691 33.7098 213.643 33.0238 213.547 32.3379C213.451 31.6519 213.403 31.0149 213.307 30.378C213.21 29.79 213.162 29.2511 213.114 28.8101C213.114 28.7611 213.114 28.7121 213.114 28.6631C213.066 28.3201 213.066 28.1241 213.066 28.0261C213.018 27.5362 212.778 27.2422 212.297 27.0952C211.575 26.8502 210.806 26.6052 209.94 26.3603C209.122 26.1153 208.112 26.0173 206.91 26.0173C205.611 26.0173 204.409 26.2623 203.351 26.7032C202.293 27.1442 201.379 27.8302 200.609 28.6141C199.84 29.447 199.262 30.378 198.83 31.5539C198.397 32.7298 198.204 33.9547 198.204 35.2777C198.204 37.5805 198.878 39.4914 200.224 40.9613C201.283 42.0882 202.774 43.2151 204.649 44.2931C205.178 44.587 205.707 44.881 206.285 45.175C206.958 45.469 207.535 45.9589 208.016 46.6939C208.449 47.3798 208.689 48.1638 208.689 48.9967C208.689 49.5357 208.545 50.0747 208.305 50.6136C208.064 51.1526 207.631 51.6426 207.006 52.0835C206.429 52.5245 205.611 52.8675 204.649 53.1615C204.024 53.3575 203.303 53.4554 202.437 53.5044C201.283 53.6024 200.128 53.9944 199.118 54.6314C198.974 54.7294 198.878 54.7784 198.782 54.8763C197.339 55.8563 196.473 57.4732 196.473 59.2371V61.5889C196.473 61.8829 196.569 62.1279 196.761 62.2749C196.954 62.4218 197.194 62.5198 197.435 62.5688C198.156 62.6668 198.974 62.7158 199.84 62.7648C200.753 62.8138 201.667 62.8628 202.581 62.8628C204.986 62.8628 207.006 62.5688 208.737 61.9319C210.421 61.2949 211.816 60.462 212.922 59.482C213.98 58.4531 214.749 57.2772 215.279 55.9543C215.759 54.6314 216 53.2595 216 51.7896C216 49.7317 215.423 47.8208 214.317 46.0079Z" fill="#EE0000"/>
</g>
<defs>
<clipPath id="clip0_1_171">
<rect width="216" height="105" fill="white"/>
</clipPath>
</defs>
</svg>
