<svg width="18" height="16" viewBox="0 0 18 16" fill="none" xmlns="http://www.w3.org/2000/svg">
<path d="M12.1828 15.3485C12.0663 15.3485 11.9572 15.3305 11.8553 15.2944C11.7534 15.2583 11.6588 15.1963 11.5714 15.1084L9.08249 12.6194C8.92238 12.4593 8.84233 12.2555 8.84233 12.0081C8.84233 11.7607 8.92238 11.5569 9.08249 11.3968C9.2426 11.2367 9.44637 11.1566 9.69382 11.1566C9.94125 11.1566 10.145 11.2367 10.3051 11.3968L12.1828 13.2744L16.5057 8.9515C16.6658 8.79139 16.8696 8.71133 17.117 8.71133C17.3644 8.71133 17.5682 8.79139 17.7283 8.9515C17.8884 9.1116 17.9685 9.31538 17.9685 9.56282C17.9685 9.81026 17.8884 10.014 17.7283 10.1741L12.7941 15.1084C12.7068 15.1957 12.6121 15.2577 12.5103 15.2944C12.4084 15.3311 12.2992 15.3491 12.1828 15.3485ZM1.74663 1.74663L8.73317 6.11322L15.7197 1.74663H1.74663ZM1.74663 13.9731C1.26631 13.9731 0.854978 13.8019 0.512638 13.4596C0.170298 13.1172 -0.000580728 12.7062 1.48271e-06 12.2264V1.74663C1.48271e-06 1.26631 0.171172 0.854978 0.513512 0.512638C0.855852 0.170298 1.26689 -0.000580728 1.74663 1.48271e-06H15.7197C16.2 1.48271e-06 16.6114 0.171171 16.9537 0.513511C17.296 0.855851 17.4669 1.26689 17.4663 1.74663V5.54556L16.593 6.41888L15.7197 7.29219V3.49327L9.19166 7.57602C9.11888 7.61969 9.04232 7.65258 8.96198 7.67471C8.88163 7.69683 8.80536 7.7076 8.73317 7.70702C8.66039 7.70702 8.58383 7.69625 8.50348 7.67471C8.42314 7.65316 8.34687 7.62027 8.27468 7.57602L1.74663 3.49327V12.2264H6.24421L7.99085 13.9731H1.74663Z" fill="#1B381C"/>
</svg>
