<svg width="249" height="192" viewBox="0 0 249 192" fill="none" xmlns="http://www.w3.org/2000/svg">
<path d="M48.4873 152H44.7311V132.468H48.3531L56.4289 144.944V132.468H60.1717V152H56.6301L48.4873 139.149V152ZM67.0347 144.528C67.0347 145.896 67.4103 146.983 68.1616 147.788C68.9128 148.584 69.9323 148.982 71.2201 148.982C72.4901 148.982 73.5007 148.575 74.2519 147.761C75.0121 146.938 75.3922 145.834 75.3922 144.447C75.3922 143.204 74.9942 142.185 74.1983 141.389C73.4112 140.584 72.4185 140.181 71.2201 140.181C69.986 140.181 68.9799 140.588 68.2018 141.402C67.4237 142.207 67.0347 143.249 67.0347 144.528ZM63.4932 144.555C63.4932 143.517 63.681 142.534 64.0566 141.603C64.4412 140.664 64.9956 139.833 65.72 139.108C66.4623 138.366 67.2985 137.798 68.2286 137.405C69.1587 137.002 70.1246 136.801 71.1262 136.801C72.1905 136.801 73.1698 136.98 74.0641 137.338C74.9674 137.686 75.7946 138.214 76.5459 138.92C77.315 139.663 77.9097 140.521 78.33 141.496C78.7504 142.462 78.9605 143.455 78.9605 144.474C78.9605 145.601 78.7772 146.63 78.4105 147.56C78.0439 148.49 77.4938 149.33 76.7605 150.082C76.0271 150.842 75.191 151.419 74.2519 151.812C73.3129 152.197 72.2933 152.389 71.1933 152.389C70.0844 152.389 69.0738 152.192 68.1616 151.799C67.2493 151.405 66.4176 150.815 65.6664 150.028C64.9509 149.259 64.4099 148.414 64.0432 147.493C63.6765 146.562 63.4932 145.583 63.4932 144.555ZM91.3049 152V132.468H95.1281V152H91.3049ZM100.381 152V140.302H98.1277V137.244H100.381V132.468H103.816V137.244H106.083V140.302H103.816V152H100.381ZM119.586 142.985C119.291 142.001 118.795 141.255 118.097 140.745C117.408 140.226 116.536 139.967 115.481 139.967C114.569 139.967 113.751 140.244 113.026 140.799C112.302 141.353 111.814 142.082 111.564 142.985H119.586ZM111.443 145.708C111.56 146.773 111.98 147.613 112.704 148.23C113.438 148.839 114.381 149.143 115.535 149.143C116.304 149.143 116.993 148.982 117.601 148.66C118.218 148.338 118.705 147.886 119.063 147.305H122.765C122.139 148.915 121.2 150.167 119.948 151.061C118.705 151.946 117.265 152.389 115.629 152.389C114.529 152.389 113.514 152.197 112.584 151.812C111.662 151.419 110.835 150.842 110.102 150.082C109.404 149.357 108.863 148.521 108.479 147.573C108.094 146.616 107.902 145.637 107.902 144.635C107.902 143.607 108.076 142.641 108.425 141.738C108.783 140.825 109.306 140.007 109.994 139.283C110.746 138.487 111.595 137.874 112.543 137.445C113.491 137.016 114.471 136.801 115.481 136.801C116.76 136.801 117.954 137.092 119.063 137.673C120.172 138.254 121.115 139.073 121.893 140.128C122.367 140.763 122.716 141.474 122.94 142.261C123.172 143.048 123.289 143.951 123.289 144.971C123.289 145.051 123.284 145.176 123.275 145.346C123.266 145.507 123.262 145.628 123.262 145.708H111.443ZM129.83 137.244V138.92C130.331 138.25 130.903 137.753 131.547 137.431C132.2 137.109 132.942 136.948 133.774 136.948C134.963 136.948 135.978 137.159 136.819 137.579C137.668 137.999 138.397 138.657 139.006 139.551C139.587 138.675 140.24 138.022 140.964 137.592C141.688 137.163 142.489 136.948 143.365 136.948C145.172 136.948 146.558 137.516 147.524 138.652C148.49 139.788 148.973 141.416 148.973 143.535V152H145.592V145.467C145.592 143.464 145.369 142.104 144.921 141.389C144.483 140.664 143.719 140.302 142.628 140.302C141.492 140.302 140.678 140.709 140.186 141.523C139.703 142.328 139.462 143.714 139.462 145.682V152H136.054V145.467C136.054 143.473 135.826 142.113 135.37 141.389C134.923 140.664 134.136 140.302 133.009 140.302C131.864 140.302 131.042 140.709 130.541 141.523C130.04 142.328 129.789 143.714 129.789 145.682V152H126.476V137.244H129.83ZM155.246 147.104V147.305C155.246 147.958 155.411 148.49 155.742 148.901C156.073 149.304 156.502 149.505 157.03 149.505C157.531 149.505 157.937 149.353 158.251 149.049C158.572 148.745 158.733 148.356 158.733 147.882C158.733 147.443 158.617 147.086 158.385 146.808C158.152 146.522 157.736 146.236 157.137 145.95C156.797 145.798 156.296 145.588 155.635 145.319C154.973 145.051 154.548 144.841 154.36 144.689C153.815 144.242 153.412 143.745 153.153 143.2C152.893 142.645 152.764 142.015 152.764 141.308C152.764 140.065 153.198 139.014 154.065 138.156C154.941 137.297 156.001 136.868 157.244 136.868C158.559 136.868 159.596 137.248 160.357 138.008C161.126 138.768 161.546 139.833 161.618 141.201H158.532V141.121C158.532 140.647 158.407 140.275 158.157 140.007C157.915 139.739 157.575 139.605 157.137 139.605C156.753 139.605 156.431 139.739 156.171 140.007C155.921 140.266 155.796 140.593 155.796 140.986C155.796 141.63 156.457 142.229 157.781 142.784C158.13 142.927 158.398 143.039 158.586 143.119C159.856 143.692 160.723 144.309 161.188 144.971C161.653 145.623 161.886 146.509 161.886 147.627C161.886 149.004 161.421 150.144 160.491 151.048C159.561 151.942 158.389 152.389 156.976 152.389C155.554 152.389 154.405 151.915 153.528 150.967C152.661 150.019 152.187 148.736 152.106 147.117L155.246 147.104ZM174.364 152V132.468H178.188V152H174.364ZM185.748 137.244V138.92C186.249 138.25 186.821 137.753 187.465 137.431C188.118 137.109 188.861 136.948 189.692 136.948C190.757 136.948 191.682 137.15 192.469 137.552C193.265 137.955 193.927 138.558 194.455 139.363C194.794 139.9 195.036 140.512 195.179 141.201C195.331 141.881 195.407 142.878 195.407 144.193V152H191.973V145.467C191.973 143.49 191.745 142.136 191.289 141.402C190.833 140.669 190.046 140.302 188.928 140.302C187.783 140.302 186.96 140.709 186.459 141.523C185.958 142.328 185.708 143.714 185.708 145.682V152H182.395V137.244H185.748ZM90.9601 175.06C90.9601 175.9 91.0988 176.683 91.376 177.407C91.6532 178.132 92.0646 178.793 92.6102 179.393C93.2094 180.045 93.889 180.551 94.6492 180.908C95.4094 181.257 96.1964 181.432 97.0102 181.432C98.7184 181.432 100.149 180.823 101.303 179.607C102.466 178.391 103.047 176.875 103.047 175.06C103.047 173.396 102.461 171.979 101.29 170.807C100.127 169.627 98.7273 169.036 97.0907 169.036C95.3826 169.036 93.9338 169.622 92.7443 170.794C91.5549 171.965 90.9601 173.387 90.9601 175.06ZM86.9491 175.194C86.9491 174.121 87.0922 173.11 87.3784 172.162C87.6645 171.205 88.0893 170.311 88.6528 169.479C89.6186 168.075 90.8305 166.993 92.2882 166.233C93.746 165.463 95.3379 165.079 97.0639 165.079C98.3607 165.079 99.6083 165.329 100.807 165.83C102.014 166.331 103.092 167.051 104.04 167.99C105.014 168.965 105.757 170.06 106.267 171.277C106.776 172.493 107.031 173.772 107.031 175.113C107.031 176.508 106.79 177.819 106.307 179.044C105.833 180.269 105.131 181.356 104.201 182.304C103.262 183.296 102.166 184.061 100.914 184.598C99.6709 185.125 98.3696 185.389 97.0102 185.389C95.5525 185.389 94.211 185.13 92.9858 184.611C91.7606 184.092 90.6739 183.323 89.726 182.304C88.8137 181.338 88.1206 180.256 87.6467 179.057C87.1816 177.85 86.9491 176.562 86.9491 175.194ZM117.248 173.235C115.915 173.342 114.985 173.691 114.458 174.281C113.93 174.872 113.666 175.936 113.666 177.474V185H110.232V170.244H113.452V171.947C113.97 171.286 114.538 170.803 115.155 170.499C115.772 170.185 116.47 170.029 117.248 170.029V173.235ZM130.979 177.689C130.979 176.428 130.577 175.377 129.772 174.536C128.976 173.696 127.979 173.275 126.781 173.275C125.6 173.275 124.589 173.705 123.749 174.563C122.917 175.422 122.501 176.446 122.501 177.635C122.501 178.878 122.922 179.916 123.762 180.747C124.603 181.57 125.663 181.982 126.942 181.982C128.068 181.982 129.021 181.566 129.799 180.734C130.586 179.902 130.979 178.887 130.979 177.689ZM131.127 171.424V165.468H134.508V185H131.127V183.793C130.447 184.329 129.732 184.732 128.981 185C128.229 185.259 127.416 185.389 126.539 185.389C125.609 185.389 124.733 185.241 123.91 184.946C123.087 184.651 122.349 184.222 121.696 183.659C120.802 182.889 120.113 181.982 119.63 180.935C119.156 179.88 118.919 178.762 118.919 177.582C118.919 176.49 119.139 175.444 119.577 174.442C120.024 173.441 120.65 172.573 121.455 171.84C122.126 171.205 122.895 170.722 123.762 170.391C124.63 170.06 125.555 169.895 126.539 169.895C127.487 169.895 128.328 170.02 129.061 170.27C129.794 170.512 130.483 170.896 131.127 171.424ZM149.205 175.985C148.91 175.001 148.413 174.255 147.716 173.745C147.027 173.226 146.155 172.967 145.1 172.967C144.188 172.967 143.369 173.244 142.645 173.799C141.921 174.353 141.433 175.082 141.183 175.985H149.205ZM141.062 178.708C141.178 179.773 141.599 180.613 142.323 181.23C143.056 181.839 144 182.143 145.154 182.143C145.923 182.143 146.611 181.982 147.219 181.66C147.837 181.338 148.324 180.886 148.682 180.305H152.384C151.758 181.915 150.819 183.167 149.567 184.061C148.324 184.946 146.884 185.389 145.247 185.389C144.147 185.389 143.132 185.197 142.202 184.812C141.281 184.419 140.454 183.842 139.721 183.082C139.023 182.357 138.482 181.521 138.097 180.573C137.713 179.616 137.52 178.637 137.52 177.635C137.52 176.607 137.695 175.641 138.044 174.738C138.401 173.825 138.925 173.007 139.613 172.283C140.364 171.487 141.214 170.874 142.162 170.445C143.11 170.016 144.089 169.801 145.1 169.801C146.379 169.801 147.573 170.092 148.682 170.673C149.791 171.254 150.734 172.073 151.512 173.128C151.986 173.763 152.335 174.474 152.559 175.261C152.791 176.048 152.907 176.951 152.907 177.971C152.907 178.051 152.903 178.176 152.894 178.346C152.885 178.507 152.881 178.628 152.881 178.708H141.062ZM162.963 173.235C161.631 173.342 160.7 173.691 160.173 174.281C159.645 174.872 159.381 175.936 159.381 177.474V185H155.947V170.244H159.167V171.947C159.685 171.286 160.253 170.803 160.87 170.499C161.487 170.185 162.185 170.029 162.963 170.029V173.235Z" fill="#1B381C"/>
<path d="M201.003 65.1994C200.416 66.1986 200.489 67.3594 200.232 68.441C197.506 80.0022 187.91 88.8674 176.175 90.5801C175.306 90.707 174.97 90.9925 175.001 91.9313C175.065 93.9137 175.106 95.9151 174.932 97.888C174.608 101.551 172.072 103.841 168.391 103.997C168.138 104.006 167.884 104 167.63 104C137.887 104 108.147 103.997 78.4034 104.006C76.4867 104.006 74.7065 103.654 73.2309 102.328C71.6125 100.869 71.0096 99.0203 71.0128 96.8825C71.0318 85.4641 71.0223 74.0488 71.0223 62.6303C71.0223 48.5919 71.0509 34.5504 71.0001 20.512C70.9874 17.429 72.1869 15.2151 74.7604 13.5372C80.7802 9.60104 86.7428 5.59506 92.699 1.58274C94.3015 0.504331 95.9961 -0.00315645 97.9318 1.5344e-05C114.642 0.0253897 131.356 0.0253897 148.067 1.5344e-05C149.999 -0.00315645 151.7 0.4853 153.306 1.56688C159.3 5.60141 165.294 9.63593 171.346 13.5816C173.888 15.2405 175.081 17.4607 175.039 20.4644C174.989 24.1437 175.068 27.823 174.998 31.5023C174.979 32.4824 175.322 32.7837 176.217 32.9328C185.867 34.5313 192.988 39.7109 197.668 48.2525C199.306 51.2404 200.27 54.4693 200.734 57.8472C200.768 58.1105 200.616 58.4625 201.003 58.6084C201.003 60.8002 201.003 63.0014 201.003 65.1994ZM123.026 97.4439C129.331 97.4439 135.634 97.4439 141.939 97.4439C150.402 97.4439 158.862 97.4281 167.325 97.4661C168.271 97.4693 168.588 97.2251 168.531 96.264C168.452 94.8716 168.436 93.4697 168.534 92.0804C168.607 91.0369 168.182 90.7197 167.224 90.5675C159.186 89.2861 152.763 85.315 148.009 78.7398C143.411 72.3836 141.736 65.2375 142.885 57.5047C144.23 48.4333 148.965 41.5315 156.742 36.7167C159.976 34.7153 163.495 33.4371 167.274 32.9296C168.22 32.8027 168.585 32.4285 168.544 31.3913C168.445 28.9839 168.442 26.5701 168.544 24.1628C168.591 22.9955 168.198 22.783 167.119 22.7862C157.26 22.8274 147.403 22.8306 137.544 22.783C136.354 22.7767 135.986 23.0241 135.989 24.2896C136.04 37.3574 136.002 50.4252 136.052 63.493C136.059 64.7522 135.697 65.0123 134.501 65.0028C126.844 64.9489 119.183 64.9489 111.526 64.9996C110.371 65.006 110.044 64.711 110.047 63.5342C110.089 50.4252 110.06 37.3162 110.098 24.204C110.101 23.1034 109.844 22.7767 108.705 22.783C98.8044 22.8306 88.9038 22.8338 79.0031 22.7798C77.7909 22.7735 77.5593 23.1605 77.5593 24.2769C77.5878 48.1701 77.591 72.0632 77.5529 95.9595C77.5498 97.2155 77.9115 97.4788 79.111 97.4756C93.7462 97.4281 108.385 97.4439 123.026 97.4439ZM194.463 61.7929C194.495 49.2707 184.426 39.1336 171.926 39.0258C159.903 38.9211 149.152 48.4048 149.003 61.7041C148.863 74.1502 159.233 84.4586 171.717 84.4903C184.245 84.522 194.431 74.3596 194.463 61.7929ZM82.5858 16.1159C82.8904 16.2301 82.9285 16.2555 82.9666 16.2586C91.7217 16.2713 100.477 16.2777 109.232 16.3094C110.012 16.3126 110.127 15.9446 110.12 15.2976C110.098 12.7189 110.082 10.1371 110.13 7.56158C110.146 6.70519 109.835 6.49268 109.022 6.5022C105.259 6.53709 101.492 6.53391 97.7287 6.50537C97.0845 6.49902 96.599 6.75277 96.104 7.08581C92.626 9.41073 89.1418 11.7293 85.6607 14.0542C84.6897 14.6981 83.7218 15.3515 82.5858 16.1159ZM163.241 16.2967C163.267 16.2079 163.289 16.1223 163.314 16.0334C163.219 15.9605 163.124 15.8812 163.025 15.8146C158.567 12.8394 154.105 9.87064 149.653 6.88915C149.209 6.59101 148.742 6.50537 148.219 6.50854C144.503 6.52123 140.784 6.54343 137.068 6.49268C136.144 6.47999 135.941 6.80034 135.96 7.65356C136.011 10.1022 136.033 12.5508 135.954 14.9963C135.919 16.0715 136.256 16.3221 137.296 16.3157C145.449 16.2745 153.598 16.2935 161.75 16.2935C162.245 16.2967 162.743 16.2967 163.241 16.2967ZM122.94 16.246C124.797 16.246 126.653 16.2237 128.51 16.2586C129.201 16.2713 129.484 16.0652 129.474 15.3325C129.443 12.7189 129.443 10.1022 129.474 7.48862C129.484 6.75911 129.208 6.55294 128.513 6.55929C124.8 6.58466 121.087 6.58149 117.375 6.56246C116.737 6.55929 116.473 6.74642 116.48 7.42519C116.508 10.0832 116.508 12.7379 116.48 15.3959C116.473 16.0683 116.73 16.2713 117.371 16.2618C119.228 16.2269 121.084 16.2428 122.94 16.246Z" fill="#1B381C"/>
<path d="M123.026 97.4439C108.388 97.4439 93.7494 97.4281 79.1079 97.4725C77.9084 97.4756 77.5467 97.2124 77.5498 95.9564C77.5911 72.0632 77.5879 48.1701 77.5562 24.2738C77.5562 23.1573 77.7846 22.7703 79 22.7767C88.9007 22.8306 98.8013 22.8274 108.702 22.7799C109.844 22.7735 110.098 23.1002 110.095 24.2008C110.057 37.3099 110.086 50.4189 110.044 63.5311C110.041 64.7047 110.368 65.0028 111.523 64.9965C119.18 64.9457 126.84 64.9425 134.498 64.9996C135.694 65.0091 136.053 64.7491 136.049 63.4899C135.999 50.4221 136.037 37.3543 135.986 24.2865C135.98 23.0209 136.351 22.7767 137.541 22.7799C147.4 22.8274 157.256 22.8243 167.116 22.783C168.195 22.7799 168.588 22.9924 168.541 24.1596C168.442 26.567 168.442 28.9807 168.541 31.3881C168.582 32.4253 168.217 32.7996 167.271 32.9264C163.492 33.4339 159.973 34.7122 156.739 36.7136C148.961 41.5283 144.23 48.4302 142.881 57.5015C141.733 65.2375 143.408 72.3804 148.006 78.7367C152.763 85.3118 159.186 89.2829 167.221 90.5643C168.179 90.7165 168.604 91.0305 168.531 92.0772C168.433 93.4665 168.449 94.8716 168.528 96.2608C168.582 97.2187 168.268 97.4661 167.322 97.463C158.859 97.4281 150.399 97.4408 141.936 97.4408C135.634 97.4439 129.328 97.4439 123.026 97.4439Z" fill="white"/>
<path d="M194.463 61.7929C194.431 74.3596 184.245 84.522 171.714 84.4903C159.23 84.4617 148.86 74.1502 148.999 61.7041C149.149 48.4048 159.9 38.9211 171.923 39.0258C184.426 39.1336 194.495 49.2707 194.463 61.7929ZM161.927 74.6228C163.041 74.6926 163.895 74.2168 164.644 73.4588C166.729 71.3559 168.864 69.3069 170.901 67.1628C171.622 66.4047 172.018 66.5094 172.682 67.1976C174.735 69.3291 176.845 71.4034 178.949 73.4841C180.428 74.9495 182.49 75.0478 183.804 73.7411C185.124 72.4279 185.007 70.4297 183.487 68.8946C181.345 66.7314 179.203 64.5682 177.02 62.4495C176.467 61.9134 176.432 61.6216 177.007 61.0666C179.193 58.951 181.338 56.791 183.474 54.6215C185.013 53.0546 185.143 51.0818 183.842 49.7623C182.497 48.3952 180.478 48.5063 178.914 50.0573C176.813 52.1411 174.69 54.206 172.653 56.3501C171.936 57.105 171.542 57.0035 170.879 56.3152C168.858 54.2123 166.773 52.1729 164.704 50.1144C163.108 48.5285 161.147 48.3699 159.773 49.6989C158.367 51.0596 158.522 53.061 160.169 54.7166C162.197 56.7529 164.203 58.8146 166.284 60.797C167.04 61.517 167.081 61.9483 166.3 62.6937C164.069 64.8251 161.915 67.0359 159.741 69.2244C158.691 70.2838 158.589 71.5494 159.138 72.8561C159.643 74.0741 160.617 74.6672 161.927 74.6228Z" fill="#EE0000"/>
<path d="M82.5859 16.1159C83.722 15.3515 84.6898 14.6981 85.6609 14.0479C89.1419 11.7262 92.623 9.4044 96.1041 7.07948C96.5992 6.74644 97.0847 6.49587 97.7289 6.49904C101.492 6.52758 105.259 6.53393 109.023 6.49587C109.835 6.48952 110.146 6.69886 110.13 7.55525C110.082 10.1339 110.101 12.7126 110.121 15.2913C110.127 15.9383 110.013 16.3062 109.232 16.3031C100.477 16.2713 91.7218 16.265 82.9667 16.2523C82.9287 16.2587 82.8906 16.2301 82.5859 16.1159Z" fill="white"/>
<path d="M163.241 16.2967C162.743 16.2967 162.245 16.2967 161.746 16.2967C153.594 16.2967 145.442 16.2777 137.293 16.3189C136.252 16.3252 135.916 16.0747 135.951 14.9994C136.033 12.554 136.011 10.1022 135.957 7.65672C135.938 6.80351 136.141 6.48316 137.064 6.49584C140.78 6.54659 144.496 6.52122 148.215 6.5117C148.739 6.50853 149.205 6.59417 149.65 6.89232C154.105 9.87381 158.564 12.8426 163.022 15.8178C163.124 15.8844 163.216 15.9637 163.311 16.0366C163.289 16.1222 163.263 16.2079 163.241 16.2967Z" fill="white"/>
<path d="M122.94 16.2427C121.084 16.2427 119.228 16.2237 117.371 16.2522C116.73 16.2618 116.473 16.0588 116.48 15.3863C116.508 12.7284 116.508 10.0736 116.48 7.41562C116.473 6.74003 116.737 6.54972 117.374 6.55289C121.087 6.57192 124.8 6.57509 128.513 6.54972C129.208 6.54655 129.484 6.74954 129.474 7.47906C129.442 10.0926 129.442 12.7093 129.474 15.3229C129.484 16.0588 129.201 16.2618 128.51 16.2491C126.653 16.2237 124.797 16.2459 122.94 16.2427Z" fill="white"/>
<path d="M161.928 74.6229C160.617 74.6673 159.643 74.071 159.135 72.8625C158.586 71.5557 158.688 70.2902 159.738 69.2308C161.912 67.0391 164.067 64.8284 166.298 62.7001C167.075 61.9579 167.037 61.5234 166.282 60.8034C164.2 58.821 162.194 56.7593 160.167 54.723C158.517 53.0673 158.364 51.0659 159.77 49.7052C161.144 48.3763 163.105 48.5349 164.701 50.1208C166.77 52.1761 168.855 54.2187 170.877 56.3216C171.54 57.0131 171.933 57.1114 172.65 56.3565C174.688 54.2124 176.811 52.1475 178.911 50.0637C180.476 48.5126 182.494 48.3985 183.839 49.7687C185.14 51.0913 185.014 53.0642 183.471 54.6279C181.336 56.7974 179.191 58.9574 177.004 61.073C176.433 61.628 176.465 61.9198 177.017 62.4559C179.2 64.5746 181.342 66.7378 183.484 68.9009C185.004 70.4361 185.121 72.4343 183.801 73.7474C182.488 75.0542 180.425 74.9559 178.946 73.4905C176.842 71.4067 174.732 69.3355 172.679 67.204C172.016 66.5126 171.619 66.4111 170.899 67.1692C168.862 69.3133 166.726 71.3654 164.641 73.4652C163.895 74.2169 163.045 74.6926 161.928 74.6229Z" fill="white"/>
</svg>
