<svg width="26" height="30" viewBox="0 0 26 30" fill="none" xmlns="http://www.w3.org/2000/svg">
<g filter="url(#filter0_d_1_909)">
<path d="M6.03548 13.5347L5.81358 13.7547L4.90463 14.656C4.9046 14.6561 4.90458 14.6561 4.90455 14.6561C4.83016 14.73 4.78022 14.8232 4.76005 14.9238C4.73988 15.0244 4.75018 15.1287 4.78992 15.2238C4.82968 15.319 4.89745 15.4014 4.98563 15.4599C5.07384 15.5183 5.17819 15.5499 5.28548 15.55L6.03548 13.5347ZM6.03548 13.5347V13.2222M6.03548 13.5347V13.2222M6.03548 13.2222V8.65C6.03548 6.82205 6.7677 5.06768 8.07311 3.77319C9.37873 2.47848 11.1509 1.75 13 1.75C14.8491 1.75 16.6213 2.47848 17.9269 3.77319C19.2323 5.06768 19.9645 6.82205 19.9645 8.65V13.2222V13.5347M6.03548 13.2222L19.9645 13.5347M19.9645 13.5347L20.1864 13.7547M19.9645 13.5347L20.1864 13.7547M20.1864 13.7547L21.0954 14.656C21.1698 14.7299 21.2198 14.8232 21.2399 14.9238C21.2601 15.0244 21.2498 15.1287 21.2101 15.2238C21.1703 15.319 21.1025 15.4014 21.0144 15.4599L21.4287 16.085M20.1864 13.7547L21.4287 16.085M21.4287 16.085L21.0144 15.4599C20.9262 15.5183 20.8218 15.5499 20.7145 15.55C20.7145 15.55 20.7144 15.55 20.7144 15.55M21.4287 16.085L20.7144 15.55M20.7144 15.55H5.28564H20.7144ZM13 20.65C12.1739 20.65 11.3829 20.3245 10.8006 19.7471C10.401 19.3508 10.1221 18.8582 9.98658 18.325H16.0134C15.8779 18.8582 15.5991 19.3508 15.1994 19.7471C14.6171 20.3245 13.8261 20.65 13 20.65Z" stroke="#1B381C" stroke-width="1.5"/>
<circle cx="17.8" cy="2.8" r="2.3" fill="#EE0000" stroke="white"/>
</g>
<defs>
<filter id="filter0_d_1_909" x="0" y="0" width="26" height="29.4" filterUnits="userSpaceOnUse" color-interpolation-filters="sRGB">
<feFlood flood-opacity="0" result="BackgroundImageFix"/>
<feColorMatrix in="SourceAlpha" type="matrix" values="0 0 0 0 0 0 0 0 0 0 0 0 0 0 0 0 0 0 127 0" result="hardAlpha"/>
<feOffset dy="4"/>
<feGaussianBlur stdDeviation="2"/>
<feComposite in2="hardAlpha" operator="out"/>
<feColorMatrix type="matrix" values="0 0 0 0 0 0 0 0 0 0 0 0 0 0 0 0 0 0 0.25 0"/>
<feBlend mode="normal" in2="BackgroundImageFix" result="effect1_dropShadow_1_909"/>
<feBlend mode="normal" in="SourceGraphic" in2="effect1_dropShadow_1_909" result="shape"/>
</filter>
</defs>
</svg>
