<svg width="18" height="21" viewBox="0 0 18 21" fill="none" xmlns="http://www.w3.org/2000/svg">
<path d="M2.03548 12.5347L1.81358 12.7547L0.90463 13.656C0.904603 13.6561 0.904577 13.6561 0.90455 13.6561C0.830159 13.73 0.780221 13.8232 0.760052 13.9238C0.739883 14.0244 0.750181 14.1287 0.789918 14.2238C0.829683 14.319 0.897451 14.4014 0.985634 14.4599C1.07384 14.5183 1.17819 14.5499 1.28548 14.55L2.03548 12.5347ZM2.03548 12.5347V12.2222M2.03548 12.5347V12.2222M2.03548 12.2222V7.65C2.03548 5.82205 2.7677 4.06768 4.07311 2.77319C5.37873 1.47848 7.15087 0.75 9 0.75C10.8491 0.75 12.6213 1.47848 13.9269 2.77319C15.2323 4.06768 15.9645 5.82205 15.9645 7.65V12.2222V12.5347M2.03548 12.2222L15.9645 12.5347M15.9645 12.5347L16.1864 12.7547M15.9645 12.5347L16.1864 12.7547M16.1864 12.7547L17.0954 13.656C17.1698 13.7299 17.2198 13.8232 17.2399 13.9238C17.2601 14.0244 17.2498 14.1287 17.2101 14.2238C17.1703 14.319 17.1025 14.4014 17.0144 14.4599L17.4287 15.085M16.1864 12.7547L17.4287 15.085M17.4287 15.085L17.0144 14.4599C16.9262 14.5183 16.8218 14.5499 16.7145 14.55C16.7145 14.55 16.7144 14.55 16.7144 14.55M17.4287 15.085L16.7144 14.55M16.7144 14.55H1.28564H16.7144ZM9 19.65C8.17388 19.65 7.38285 19.3245 6.8006 18.7471C6.40095 18.3508 6.1221 17.8582 5.98658 17.325H12.0134C11.8779 17.8582 11.5991 18.3508 11.1994 18.7471C10.6171 19.3245 9.82612 19.65 9 19.65Z" stroke="#1B381C" stroke-width="1.5"/>
</svg>
