<svg width="19" height="20" viewBox="0 0 19 20" fill="none" xmlns="http://www.w3.org/2000/svg">
<path d="M2.51576 14.9786C2.51576 14.8341 2.51576 14.7209 2.51576 14.6072C2.51576 10.0941 2.51576 5.58042 2.51576 1.06728C2.51576 0.287927 2.80297 0 3.57897 0C8.35717 0 13.1349 0 17.9131 0C18.6516 0 18.9441 0.298664 18.9441 1.05167C18.9441 5.94741 18.946 10.8427 18.9431 15.7384C18.9417 17.7583 17.6817 19.4102 15.7867 19.8724C15.4773 19.948 15.1536 19.9949 14.836 19.9953C11.2928 20.0022 7.74907 20.0012 4.20583 19.9944C2.16168 19.9905 0.513456 18.5991 0.123291 16.5602C0.0867276 16.3694 0.0665217 16.1737 0.057381 15.9795C0.0285155 15.3563 0.364798 14.9971 0.977228 14.9922C1.40203 14.9888 1.82684 14.9922 2.25212 14.9908C2.33054 14.9913 2.40848 14.9844 2.51576 14.9786ZM4.16253 14.9922C4.29676 14.9922 4.39875 14.9922 4.50122 14.9922C6.81046 14.9922 9.1197 14.9913 11.4285 14.9927C12.0394 14.9932 12.3416 15.2914 12.37 15.9102C12.4378 17.3835 13.667 18.4596 15.1078 18.3073C16.3866 18.1721 17.2997 17.1014 17.3007 15.7203C17.3031 11.1252 17.3016 6.52961 17.3011 1.93448C17.3011 1.84908 17.292 1.76368 17.2862 1.6651C17.1688 1.6651 17.0808 1.6651 16.9932 1.6651C12.8241 1.6651 8.65449 1.6651 4.48535 1.6651C4.16302 1.6651 4.16253 1.6651 4.16253 1.99402C4.16253 6.21533 4.16253 10.4361 4.16253 14.6575C4.16253 14.7551 4.16253 14.8522 4.16253 14.9922Z" fill="#1B381C"/>
<path d="M9.92053 5.82307C9.92053 5.26576 9.92053 4.73236 9.92053 4.18433C11.5538 4.18433 13.1751 4.18433 14.8142 4.18433C14.8142 4.7309 14.8142 5.26967 14.8142 5.82307C13.1823 5.82307 11.5611 5.82307 9.92053 5.82307Z" fill="#1B381C"/>
<path d="M14.8194 7.52124C14.8194 8.06537 14.8194 8.59877 14.8194 9.14974C13.1928 9.14974 11.5701 9.14974 9.92761 9.14974C9.92761 8.61781 9.92761 8.07855 9.92761 7.52124C11.5513 7.52124 13.1793 7.52124 14.8194 7.52124Z" fill="#1B381C"/>
<path d="M9.91943 12.4791C9.91943 11.9242 9.91943 11.3908 9.91943 10.8438C11.5523 10.8438 13.1745 10.8438 14.8145 10.8438C14.8145 11.3874 14.8145 11.9262 14.8145 12.4791C13.1851 12.4791 11.5624 12.4791 9.91943 12.4791Z" fill="#1B381C"/>
<path d="M6.64526 4.18628C7.19659 4.18628 7.72098 4.18628 8.2574 4.18628C8.2574 4.73529 8.2574 5.26772 8.2574 5.81917C7.72291 5.81917 7.19226 5.81917 6.64526 5.81917C6.64526 5.27601 6.64526 4.73773 6.64526 4.18628Z" fill="#1B381C"/>
<path d="M6.64697 7.51489C7.19061 7.51489 7.71596 7.51489 8.25526 7.51489C8.25526 8.05951 8.25526 8.59242 8.25526 9.14632C7.72798 9.14632 7.19686 9.14632 6.64697 9.14632C6.64697 8.61292 6.64697 8.07464 6.64697 7.51489Z" fill="#1B381C"/>
<path d="M8.25005 12.4823C7.71075 12.4823 7.18539 12.4823 6.64417 12.4823C6.64417 11.9332 6.64417 11.3945 6.64417 10.8425C7.17914 10.8425 7.70449 10.8425 8.25005 10.8425C8.25005 11.3793 8.25005 11.9181 8.25005 12.4823Z" fill="#1B381C"/>
</svg>
