<svg width="19" height="22" viewBox="0 0 19 22" fill="none" xmlns="http://www.w3.org/2000/svg">
<g clip-path="url(#clip0_73_1011)">
<path d="M18.9475 8.59759C18.9475 9.67514 18.9797 10.7534 18.9416 11.8295C18.826 15.0705 17.3412 17.5707 14.4119 19.2715C12.9505 20.1202 11.3882 20.7609 9.78409 21.3146C9.6231 21.3703 9.40576 21.3814 9.24843 21.3257C7.28359 20.6273 5.35754 19.8551 3.65981 18.6489C1.54642 17.1463 0.366786 15.129 0.143592 12.6518C0.00674915 11.1318 0.0367522 9.59723 0.00967627 8.06891C-0.00788651 7.06023 0.014067 6.05155 0.000163101 5.04357C-0.00642294 4.57123 0.186036 4.27001 0.652913 4.07036C3.48491 2.86134 6.30593 1.62936 9.14086 0.425902C9.34503 0.338947 9.66189 0.34173 9.86752 0.428685C12.7134 1.63701 15.5469 2.87108 18.3884 4.08845C18.826 4.27627 19.0038 4.57192 19.0002 5.01574C18.9907 6.20946 18.9965 7.40318 18.9965 8.59759C18.9804 8.59759 18.9636 8.59759 18.9475 8.59759ZM17.3361 8.63446C17.3588 8.63446 17.3822 8.63446 17.4049 8.63446C17.4049 7.61465 17.3998 6.59415 17.41 5.57434C17.4122 5.38443 17.35 5.29052 17.1663 5.21191C14.6797 4.14619 12.1975 3.07073 9.71019 2.00779C9.59529 1.9584 9.41747 1.95631 9.30258 2.0057C6.80354 3.07281 4.3089 4.14967 1.81864 5.23487C1.71766 5.27869 1.60423 5.42965 1.60496 5.53051C1.61813 7.81291 1.57935 10.0988 1.69131 12.3777C1.78644 14.3227 2.64629 15.9728 4.2789 17.2117C5.8032 18.3693 7.5646 19.0997 9.36698 19.7536C9.4665 19.7898 9.6092 19.7675 9.71457 19.7292C11.1525 19.211 12.548 18.6106 13.8433 17.8134C15.9845 16.4952 17.1868 14.6385 17.3236 12.2128C17.391 11.0233 17.3361 9.82749 17.3361 8.63446Z" fill="white"/>
<path d="M9.49414 16.121C8.50697 16.121 7.51906 16.1245 6.53189 16.1203C5.38884 16.1147 4.7478 15.4956 4.7478 14.409C4.74853 13.0532 4.7478 11.6974 4.7478 10.3416C4.7478 9.33712 5.13857 8.86756 6.15648 8.60391C6.2421 8.58165 6.33723 8.40983 6.33797 8.30688C6.34309 7.74967 6.34089 7.20011 6.58604 6.67142C7.18903 5.36849 8.63796 4.61859 10.073 4.88502C11.5944 5.16815 12.6423 6.36395 12.6562 7.83384C12.6569 7.9034 12.665 7.97436 12.6547 8.04253C12.5991 8.40635 12.6818 8.60461 13.1377 8.69226C13.8146 8.82165 14.2449 9.4206 14.25 10.1128C14.2624 11.6077 14.2639 13.1026 14.2507 14.5976C14.2427 15.4894 13.5497 16.1099 12.5676 16.1196C11.5424 16.1294 10.5179 16.121 9.49414 16.121ZM6.37748 10.1107C6.37748 11.6327 6.37748 13.1096 6.37748 14.5781C8.48575 14.5781 10.5633 14.5781 12.6247 14.5781C12.6247 13.072 12.6247 11.5945 12.6247 10.1107C10.5289 10.1107 8.4616 10.1107 6.37748 10.1107ZM11.0528 8.59418C11.0528 8.23383 11.0894 7.9201 11.0463 7.6175C10.8999 6.59769 9.74002 6.04257 8.77846 6.5156C8.10083 6.84881 7.70494 7.7448 7.93398 8.45435C7.95374 8.51487 8.06717 8.58722 8.13742 8.58791C9.09679 8.59696 10.0562 8.59418 11.0528 8.59418Z" fill="white"/>
<path d="M9.51098 13.0901C9.0646 13.0943 8.71261 12.775 8.70602 12.359C8.69944 11.9493 9.05216 11.6112 9.49049 11.6077C9.93542 11.6042 10.2889 11.9256 10.2962 12.3395C10.302 12.7541 9.95518 13.0859 9.51098 13.0901Z" fill="white"/>
</g>
<defs>
<clipPath id="clip0_73_1011">
<rect width="19" height="21" fill="white" transform="translate(0 0.362061)"/>
</clipPath>
</defs>
</svg>
