<svg width="23" height="24" viewBox="0 0 23 24" fill="none" xmlns="http://www.w3.org/2000/svg">
<path d="M17.2723 13.4716C18.5201 13.7149 19.476 14.3458 20.1261 15.4199C21.6011 17.8585 20.0855 21.0932 17.2627 21.498C16.7313 21.5739 16.1844 21.5573 15.6449 21.5578C11.7422 21.5621 7.84005 21.5605 3.93734 21.56C3.10548 21.56 2.52489 21.1408 2.34632 20.404C2.3089 20.2506 2.30195 20.0864 2.30195 19.9277C2.29981 14.882 2.29981 9.8364 2.30035 4.79078C2.30035 3.96419 2.72697 3.38087 3.46314 3.20443C3.59786 3.17235 3.74114 3.16326 3.88014 3.16326C7.81653 3.16059 11.7524 3.15952 15.6882 3.16219C16.5121 3.16273 17.1018 3.63591 17.2509 4.40315C17.2734 4.5197 17.2712 4.64214 17.2712 4.76191C17.2723 7.58226 17.2723 10.4021 17.2723 13.2224C17.2723 13.3021 17.2723 13.3818 17.2723 13.4716ZM15.9908 13.4721C15.9908 13.4256 15.9908 13.3925 15.9908 13.3598C15.9908 10.493 15.9914 7.62664 15.9903 4.75977C15.9903 4.51382 15.9245 4.45554 15.6583 4.45554C11.7497 4.45554 7.84058 4.45554 3.932 4.45554C3.63315 4.45554 3.59519 4.49297 3.59519 4.78757C3.59519 9.83908 3.59519 14.8911 3.59519 19.9426C3.59519 20.2228 3.63849 20.2656 3.92184 20.2656C7.09586 20.2656 10.2694 20.2656 13.4434 20.265C13.4995 20.265 13.5551 20.2575 13.6241 20.2527C11.4733 17.8542 12.7532 14.056 15.9908 13.4721ZM19.4033 17.4885C19.4049 16.0054 18.1747 14.7564 16.7473 14.7163C15.1622 14.6719 13.8561 15.9417 13.8588 17.4784C13.8614 19.031 15.0863 20.264 16.6356 20.265C18.171 20.2656 19.4011 19.031 19.4033 17.4885Z" fill="white"/>
<path d="M9.79509 10.0006C11.0579 10.0006 12.3212 9.99895 13.5839 10.0016C14.0218 10.0027 14.3174 10.3192 14.2725 10.7266C14.2404 11.018 14.0218 11.2426 13.7288 11.2821C13.663 11.2912 13.5957 11.2944 13.5289 11.2944C11.0365 11.295 8.54355 11.2955 6.05116 11.2944C5.67479 11.2944 5.43047 11.1469 5.33157 10.8667C5.17653 10.4278 5.49249 10.0032 5.98594 10.0016C7.18883 9.99789 8.39172 10.0006 9.5946 10.0006C9.66143 10.0006 9.72826 10.0006 9.79509 10.0006Z" fill="white"/>
<path d="M9.78149 7.86821C8.49841 7.86821 7.21533 7.86982 5.93224 7.86714C5.60773 7.86661 5.34898 7.6335 5.29658 7.31056C5.24954 7.0181 5.44735 6.70746 5.74834 6.6155C5.82318 6.5925 5.90551 6.58769 5.98464 6.58769C8.51712 6.58609 11.0496 6.58609 13.5826 6.58662C13.9927 6.58662 14.2771 6.84807 14.2792 7.22341C14.2814 7.59928 13.9969 7.86768 13.5901 7.86768C12.3209 7.86928 11.0512 7.86875 9.78149 7.86821Z" fill="white"/>
<path d="M8.73354 13.4267C9.61512 13.4267 10.4972 13.4225 11.3788 13.431C11.5274 13.4326 11.6894 13.4577 11.821 13.5224C12.0749 13.6475 12.193 13.9534 12.1284 14.2218C12.0631 14.4912 11.8284 14.6896 11.5403 14.719C11.5071 14.7222 11.4735 14.7217 11.4403 14.7217C9.63009 14.7217 7.81988 14.7228 6.00966 14.719C5.89953 14.719 5.78192 14.6971 5.68034 14.6554C5.41677 14.5468 5.25639 14.2555 5.29755 13.9929C5.3446 13.6898 5.56807 13.4706 5.86959 13.4369C5.94872 13.4278 6.02944 13.4278 6.10964 13.4278C6.9832 13.4262 7.85837 13.4267 8.73354 13.4267Z" fill="white"/>
<path d="M8.29141 16.8523C9.05912 16.8523 9.82737 16.8518 10.5951 16.8528C10.9982 16.8534 11.2922 17.1255 11.2922 17.4934C11.2917 17.8628 10.9987 18.1333 10.5951 18.1339C9.05912 18.1344 7.5237 18.1344 5.98774 18.1339C5.58518 18.1339 5.2906 17.8607 5.29114 17.4923C5.29167 17.1218 5.58304 16.8528 5.98774 16.8523C6.75599 16.8518 7.5237 16.8523 8.29141 16.8523Z" fill="white"/>
<path d="M16.183 17.4591C16.6107 17.0308 16.9983 16.6266 17.4057 16.2443C17.5244 16.1331 17.6928 16.0443 17.8521 16.0139C18.1274 15.9609 18.345 16.0935 18.4813 16.3405C18.6118 16.5774 18.5877 16.8661 18.3926 17.0655C17.8136 17.6574 17.2293 18.2445 16.6364 18.823C16.3915 19.062 16.0141 19.0529 15.7665 18.816C15.4623 18.5252 15.1635 18.2284 14.8748 17.9231C14.6326 17.667 14.6492 17.2826 14.893 17.0383C15.1373 16.7939 15.519 16.7795 15.7778 17.019C15.9184 17.1484 16.0392 17.3013 16.183 17.4591Z" fill="white"/>
</svg>
