<svg width="255" height="279" viewBox="0 0 255 279" fill="none" xmlns="http://www.w3.org/2000/svg">
<path d="M127.276 65.7313C18.3117 41.1498 39.2254 -37.7054 63.3028 -74.0603C84.5957 -98.9822 139.517 -152.197 188.86 -165.679C250.539 -182.532 229.719 -143.116 254.883 -108.26C280.048 -73.4048 320.859 62.4507 327.214 90.8365C333.57 119.222 345.007 229.827 288.278 248.382C242.895 263.226 237.575 215.635 240.6 201.448C248.227 166.451 236.241 90.3128 127.276 65.7313Z" stroke="white" stroke-opacity="0.5" stroke-linecap="round" stroke-dasharray="4 4"/>
<path d="M102.276 11.7313C-6.68834 -12.8502 14.2254 -91.7054 38.3028 -128.06C59.5957 -152.982 114.517 -206.197 163.86 -219.679C225.539 -236.532 204.719 -197.116 229.883 -162.26C255.048 -127.405 295.859 8.45065 302.214 36.8365C308.57 65.2223 320.007 175.827 263.278 194.382C217.895 209.226 212.575 161.635 215.6 147.448C223.227 112.451 211.241 36.3128 102.276 11.7313Z" stroke="white" stroke-opacity="0.5" stroke-linecap="round" stroke-dasharray="4 4"/>
</svg>
